<?xml version="1.0" encoding="utf-8" standalone="no"?>
<!DOCTYPE svg PUBLIC "-//W3C//DTD SVG 1.1//EN"
  "http://www.w3.org/Graphics/SVG/1.1/DTD/svg11.dtd">
<!-- Created with matplotlib (https://matplotlib.org/) -->
<svg height="648pt" version="1.1" viewBox="0 0 648 648" width="648pt" xmlns="http://www.w3.org/2000/svg" xmlns:xlink="http://www.w3.org/1999/xlink">
 <defs>
  <style type="text/css">
*{stroke-linecap:butt;stroke-linejoin:round;}
  </style>
 </defs>
 <g id="figure_1">
  <g id="patch_1">
   <path d="M 0 648 
L 648 648 
L 648 0 
L 0 0 
z
" style="fill:#ffffff;"/>
  </g>
  <g id="axes_1">
   <g id="patch_2">
    <path d="M 64.8 602.64 
L 631.8 602.64 
L 631.8 45.36 
L 64.8 45.36 
z
" style="fill:#ffffff;"/>
   </g>
   <g id="matplotlib.axis_1">
    <g id="xtick_1">
     <g id="line2d_1">
      <path clip-path="url(#pcc914ff9ce)" d="M 86.393003 602.64 
L 86.393003 45.36 
" style="fill:none;stroke:#000000;stroke-linecap:square;stroke-width:0.2;"/>
     </g>
     <g id="line2d_2">
      <defs>
       <path d="M 0 0 
L 0 3.5 
" id="me9bdab1ef7" style="stroke:#000000;stroke-width:0.8;"/>
      </defs>
      <g>
       <use style="stroke:#000000;stroke-width:0.8;" x="86.393003" xlink:href="#me9bdab1ef7" y="602.64"/>
      </g>
     </g>
     <g id="text_1">
      <!-- 1000 -->
      <defs>
       <path d="M 24.3125 0 
L 24.3125 54.828125 
L 9.765625 45.75 
L 9.765625 54.890625 
Q 15.28125 57.671875 21.5 62.546875 
Q 27.734375 67.4375 31.15625 71.828125 
L 34.078125 71.828125 
L 34.078125 0 
z
" id="TrebuchetMS-49"/>
       <path d="M 3.125 37.9375 
Q 3.125 53.375 9.375 63.078125 
Q 15.625 72.796875 26.953125 72.796875 
Q 38.1875 72.796875 43.828125 64.6875 
Q 49.46875 56.59375 49.46875 36.375 
Q 49.46875 19 43.546875 9 
Q 37.640625 -0.984375 26.265625 -0.984375 
Q 14.890625 -0.984375 9 7.078125 
Q 3.125 15.140625 3.125 37.9375 
z
M 12.890625 37.0625 
Q 12.890625 7.328125 25.59375 7.328125 
Q 32.859375 7.328125 36.28125 13.921875 
Q 39.703125 20.515625 39.703125 37.015625 
Q 39.703125 48.390625 38.375 53.703125 
Q 37.0625 59.03125 34.125 61.765625 
Q 31.203125 64.5 26.703125 64.5 
Q 12.890625 64.5 12.890625 37.0625 
z
" id="TrebuchetMS-48"/>
      </defs>
      <g transform="translate(69.613003 621.4375)scale(0.16 -0.16)">
       <use xlink:href="#TrebuchetMS-49"/>
       <use x="52.441406" xlink:href="#TrebuchetMS-48"/>
       <use x="104.882812" xlink:href="#TrebuchetMS-48"/>
       <use x="157.324219" xlink:href="#TrebuchetMS-48"/>
      </g>
     </g>
    </g>
    <g id="xtick_2">
     <g id="line2d_3">
      <path clip-path="url(#pcc914ff9ce)" d="M 128.635309 602.64 
L 128.635309 45.36 
" style="fill:none;stroke:#000000;stroke-linecap:square;stroke-width:0.2;"/>
     </g>
     <g id="line2d_4">
      <g>
       <use style="stroke:#000000;stroke-width:0.8;" x="128.635309" xlink:href="#me9bdab1ef7" y="602.64"/>
      </g>
     </g>
     <g id="text_2">
      <!-- 700 -->
      <defs>
       <path d="M 20.90625 0 
L 10.0625 0 
Q 13.671875 11.46875 22.21875 30.34375 
Q 30.765625 49.21875 37.84375 62.546875 
L 4.109375 62.546875 
L 4.109375 71.828125 
L 50.484375 71.828125 
L 50.484375 68.015625 
L 44.1875 55.609375 
Q 41.015625 49.3125 37.546875 41.796875 
Q 34.078125 34.28125 30.75 26.46875 
Q 27.4375 18.65625 24.953125 11.96875 
Q 22.46875 5.28125 20.90625 0 
z
" id="TrebuchetMS-55"/>
      </defs>
      <g transform="translate(116.050309 621.4375)scale(0.16 -0.16)">
       <use xlink:href="#TrebuchetMS-55"/>
       <use x="52.441406" xlink:href="#TrebuchetMS-48"/>
       <use x="104.882812" xlink:href="#TrebuchetMS-48"/>
      </g>
     </g>
    </g>
    <g id="xtick_3">
     <g id="line2d_5">
      <path clip-path="url(#pcc914ff9ce)" d="M 168.484936 602.64 
L 168.484936 45.36 
" style="fill:none;stroke:#000000;stroke-linecap:square;stroke-width:0.2;"/>
     </g>
     <g id="line2d_6">
      <g>
       <use style="stroke:#000000;stroke-width:0.8;" x="168.484936" xlink:href="#me9bdab1ef7" y="602.64"/>
      </g>
     </g>
     <g id="text_3">
      <!-- 500 -->
      <defs>
       <path d="M 11.328125 34.90625 
L 8.015625 37.203125 
L 8.015625 71.828125 
L 43.609375 71.828125 
L 43.609375 63.53125 
L 17.28125 63.53125 
L 17.28125 46.140625 
Q 20.90625 48.828125 26.46875 48.828125 
Q 36.421875 48.828125 41.671875 42.875 
Q 46.921875 36.921875 46.921875 25.921875 
Q 46.921875 -0.984375 22.953125 -0.984375 
Q 12.9375 -0.984375 6.34375 4.59375 
L 10.109375 12.75 
Q 16.75 7.328125 22.90625 7.328125 
Q 36.671875 7.328125 36.671875 24.515625 
Q 36.671875 40.53125 23.09375 40.53125 
Q 16.546875 40.53125 11.328125 34.90625 
z
" id="TrebuchetMS-53"/>
      </defs>
      <g transform="translate(155.899936 621.4375)scale(0.16 -0.16)">
       <use xlink:href="#TrebuchetMS-53"/>
       <use x="52.441406" xlink:href="#TrebuchetMS-48"/>
       <use x="104.882812" xlink:href="#TrebuchetMS-48"/>
      </g>
     </g>
    </g>
    <g id="xtick_4">
     <g id="line2d_7">
      <path clip-path="url(#pcc914ff9ce)" d="M 228.983866 602.64 
L 228.983866 45.36 
" style="fill:none;stroke:#000000;stroke-linecap:square;stroke-width:0.2;"/>
     </g>
     <g id="line2d_8">
      <g>
       <use style="stroke:#000000;stroke-width:0.8;" x="228.983866" xlink:href="#me9bdab1ef7" y="602.64"/>
      </g>
     </g>
     <g id="text_4">
      <!-- 300 -->
      <defs>
       <path d="M 5.328125 5.078125 
L 10.015625 12.59375 
Q 14.796875 7.328125 22.125 7.328125 
Q 35.6875 7.328125 35.6875 20.609375 
Q 35.6875 26.65625 31.734375 30.4375 
Q 27.78125 34.234375 21.234375 34.234375 
L 20.453125 34.234375 
L 20.453125 42.140625 
L 20.90625 42.140625 
Q 33.296875 42.140625 33.296875 53.078125 
Q 33.296875 64.5 21.625 64.5 
Q 15.28125 64.5 11.53125 60.25 
L 7.171875 66.890625 
Q 11.71875 72.796875 22.359375 72.796875 
Q 31.734375 72.796875 37.640625 67.796875 
Q 43.5625 62.796875 43.5625 54.984375 
Q 43.5625 49.03125 40.265625 44.4375 
Q 36.96875 39.84375 32.515625 38.28125 
Q 38.671875 36.28125 42.3125 31.46875 
Q 45.953125 26.65625 45.953125 19.828125 
Q 45.953125 9.859375 39.640625 4.4375 
Q 33.34375 -0.984375 21.96875 -0.984375 
Q 17.1875 -0.984375 12.59375 0.796875 
Q 8.015625 2.59375 5.328125 5.078125 
z
" id="TrebuchetMS-51"/>
      </defs>
      <g transform="translate(216.398866 621.4375)scale(0.16 -0.16)">
       <use xlink:href="#TrebuchetMS-51"/>
       <use x="52.441406" xlink:href="#TrebuchetMS-48"/>
       <use x="104.882812" xlink:href="#TrebuchetMS-48"/>
      </g>
     </g>
    </g>
    <g id="xtick_5">
     <g id="line2d_9">
      <path clip-path="url(#pcc914ff9ce)" d="M 277.004568 602.64 
L 277.004568 45.36 
" style="fill:none;stroke:#000000;stroke-linecap:square;stroke-width:0.2;"/>
     </g>
     <g id="line2d_10">
      <g>
       <use style="stroke:#000000;stroke-width:0.8;" x="277.004568" xlink:href="#me9bdab1ef7" y="602.64"/>
      </g>
     </g>
     <g id="text_5">
      <!-- 200 -->
      <defs>
       <path d="M 3.375 0 
L 3.375 1.953125 
L 25.78125 36.28125 
Q 32.8125 47.078125 32.8125 54.59375 
Q 32.8125 64.5 21.625 64.5 
Q 17.671875 64.5 14.203125 62.421875 
Q 10.75 60.359375 9.1875 57.171875 
L 2.875 62.359375 
Q 4.546875 67.140625 9.40625 69.96875 
Q 14.265625 72.796875 21.140625 72.796875 
Q 31.453125 72.796875 37.25 68.03125 
Q 43.0625 63.28125 43.0625 54.59375 
Q 43.0625 46.53125 35.359375 34.28125 
L 19.28125 8.796875 
L 47.3125 8.796875 
L 47.3125 0 
z
" id="TrebuchetMS-50"/>
      </defs>
      <g transform="translate(264.419568 621.4375)scale(0.16 -0.16)">
       <use xlink:href="#TrebuchetMS-50"/>
       <use x="52.441406" xlink:href="#TrebuchetMS-48"/>
       <use x="104.882812" xlink:href="#TrebuchetMS-48"/>
      </g>
     </g>
    </g>
    <g id="xtick_6">
     <g id="line2d_11">
      <path clip-path="url(#pcc914ff9ce)" d="M 311.075799 602.64 
L 311.075799 45.36 
" style="fill:none;stroke:#000000;stroke-linecap:square;stroke-width:0.2;"/>
     </g>
     <g id="line2d_12">
      <g>
       <use style="stroke:#000000;stroke-width:0.8;" x="311.075799" xlink:href="#me9bdab1ef7" y="602.64"/>
      </g>
     </g>
     <g id="text_6">
      <!-- 150 -->
      <g transform="translate(298.490799 621.4375)scale(0.16 -0.16)">
       <use xlink:href="#TrebuchetMS-49"/>
       <use x="52.441406" xlink:href="#TrebuchetMS-53"/>
       <use x="104.882812" xlink:href="#TrebuchetMS-48"/>
      </g>
     </g>
    </g>
    <g id="xtick_7">
     <g id="line2d_13">
      <path clip-path="url(#pcc914ff9ce)" d="M 359.096501 602.64 
L 359.096501 45.36 
" style="fill:none;stroke:#000000;stroke-linecap:square;stroke-width:0.2;"/>
     </g>
     <g id="line2d_14">
      <g>
       <use style="stroke:#000000;stroke-width:0.8;" x="359.096501" xlink:href="#me9bdab1ef7" y="602.64"/>
      </g>
     </g>
     <g id="text_7">
      <!-- 100 -->
      <g transform="translate(346.511501 621.4375)scale(0.16 -0.16)">
       <use xlink:href="#TrebuchetMS-49"/>
       <use x="52.441406" xlink:href="#TrebuchetMS-48"/>
       <use x="104.882812" xlink:href="#TrebuchetMS-48"/>
      </g>
     </g>
    </g>
    <g id="xtick_8">
     <g id="line2d_15">
      <path clip-path="url(#pcc914ff9ce)" d="M 401.338808 602.64 
L 401.338808 45.36 
" style="fill:none;stroke:#000000;stroke-linecap:square;stroke-width:0.2;"/>
     </g>
     <g id="line2d_16">
      <g>
       <use style="stroke:#000000;stroke-width:0.8;" x="401.338808" xlink:href="#me9bdab1ef7" y="602.64"/>
      </g>
     </g>
     <g id="text_8">
      <!-- 70 -->
      <g transform="translate(392.948808 621.4375)scale(0.16 -0.16)">
       <use xlink:href="#TrebuchetMS-55"/>
       <use x="52.441406" xlink:href="#TrebuchetMS-48"/>
      </g>
     </g>
    </g>
    <g id="xtick_9">
     <g id="line2d_17">
      <path clip-path="url(#pcc914ff9ce)" d="M 441.188434 602.64 
L 441.188434 45.36 
" style="fill:none;stroke:#000000;stroke-linecap:square;stroke-width:0.2;"/>
     </g>
     <g id="line2d_18">
      <g>
       <use style="stroke:#000000;stroke-width:0.8;" x="441.188434" xlink:href="#me9bdab1ef7" y="602.64"/>
      </g>
     </g>
     <g id="text_9">
      <!-- 50 -->
      <g transform="translate(432.798434 621.4375)scale(0.16 -0.16)">
       <use xlink:href="#TrebuchetMS-53"/>
       <use x="52.441406" xlink:href="#TrebuchetMS-48"/>
      </g>
     </g>
    </g>
    <g id="xtick_10">
     <g id="line2d_19">
      <path clip-path="url(#pcc914ff9ce)" d="M 467.616134 602.64 
L 467.616134 45.36 
" style="fill:none;stroke:#000000;stroke-linecap:square;stroke-width:0.2;"/>
     </g>
     <g id="line2d_20">
      <g>
       <use style="stroke:#000000;stroke-width:0.8;" x="467.616134" xlink:href="#me9bdab1ef7" y="602.64"/>
      </g>
     </g>
     <g id="text_10">
      <!-- 40 -->
      <defs>
       <path d="M 43.0625 19.484375 
L 43.0625 0 
L 33.796875 0 
L 33.796875 19.484375 
L 1.21875 19.484375 
L 1.21875 25.046875 
L 39.65625 71.828125 
L 43.0625 71.828125 
L 43.0625 27 
L 50.296875 27 
L 50.296875 19.484375 
z
M 33.796875 52.34375 
L 12.796875 27 
L 33.796875 27 
z
" id="TrebuchetMS-52"/>
      </defs>
      <g transform="translate(459.226134 621.4375)scale(0.16 -0.16)">
       <use xlink:href="#TrebuchetMS-52"/>
       <use x="52.441406" xlink:href="#TrebuchetMS-48"/>
      </g>
     </g>
    </g>
    <g id="xtick_11">
     <g id="line2d_21">
      <path clip-path="url(#pcc914ff9ce)" d="M 523.280367 602.64 
L 523.280367 45.36 
" style="fill:none;stroke:#000000;stroke-linecap:square;stroke-width:0.2;"/>
     </g>
     <g id="line2d_22">
      <g>
       <use style="stroke:#000000;stroke-width:0.8;" x="523.280367" xlink:href="#me9bdab1ef7" y="602.64"/>
      </g>
     </g>
     <g id="text_11">
      <!-- 25 -->
      <g transform="translate(514.890367 621.4375)scale(0.16 -0.16)">
       <use xlink:href="#TrebuchetMS-50"/>
       <use x="52.441406" xlink:href="#TrebuchetMS-53"/>
      </g>
     </g>
    </g>
    <g id="xtick_12">
     <g id="line2d_23">
      <path clip-path="url(#pcc914ff9ce)" d="M 583.779298 602.64 
L 583.779298 45.36 
" style="fill:none;stroke:#000000;stroke-linecap:square;stroke-width:0.2;"/>
     </g>
     <g id="line2d_24">
      <g>
       <use style="stroke:#000000;stroke-width:0.8;" x="583.779298" xlink:href="#me9bdab1ef7" y="602.64"/>
      </g>
     </g>
     <g id="text_12">
      <!-- 15 -->
      <g transform="translate(575.389298 621.4375)scale(0.16 -0.16)">
       <use xlink:href="#TrebuchetMS-49"/>
       <use x="52.441406" xlink:href="#TrebuchetMS-53"/>
      </g>
     </g>
    </g>
    <g id="xtick_13">
     <g id="line2d_25">
      <path clip-path="url(#pcc914ff9ce)" d="M 631.8 602.64 
L 631.8 45.36 
" style="fill:none;stroke:#000000;stroke-linecap:square;stroke-width:0.2;"/>
     </g>
     <g id="line2d_26">
      <g>
       <use style="stroke:#000000;stroke-width:0.8;" x="631.8" xlink:href="#me9bdab1ef7" y="602.64"/>
      </g>
     </g>
     <g id="text_13">
      <!-- 10 -->
      <g transform="translate(623.41 621.4375)scale(0.16 -0.16)">
       <use xlink:href="#TrebuchetMS-49"/>
       <use x="52.441406" xlink:href="#TrebuchetMS-48"/>
      </g>
     </g>
    </g>
    <g id="text_14">
     <!-- Wave-length [km] -->
     <defs>
      <path d="M 62.3125 -0.984375 
L 59.234375 -0.984375 
L 42.1875 48.34375 
L 26.265625 -0.984375 
L 23.1875 -0.984375 
L 0.640625 71.53125 
L 10.796875 71.53125 
L 25.140625 21.578125 
L 40.875 71.53125 
L 44.28125 71.53125 
L 59.8125 21.6875 
L 74.421875 71.53125 
L 84.578125 71.53125 
z
" id="TrebuchetMS-87"/>
      <path d="M 36.140625 6 
Q 30.5625 -0.984375 19.09375 -0.984375 
Q 12.9375 -0.984375 8.421875 3.484375 
Q 3.90625 7.953125 3.90625 14.59375 
Q 3.90625 22.5625 10.859375 28.046875 
Q 17.828125 33.546875 28.609375 33.546875 
Q 31.546875 33.546875 35.25 32.28125 
Q 35.25 44.96875 23.921875 44.96875 
Q 15.234375 44.96875 10.546875 40.28125 
L 6.640625 48.046875 
Q 9.28125 50.203125 13.9375 51.734375 
Q 18.609375 53.265625 22.859375 53.265625 
Q 34.234375 53.265625 39.375 48.09375 
Q 44.53125 42.921875 44.53125 31.640625 
L 44.53125 12.890625 
Q 44.53125 6 48.640625 3.71875 
L 48.640625 -0.921875 
Q 42.96875 -0.921875 40.15625 0.6875 
Q 37.359375 2.296875 36.140625 6 
z
M 35.25 25.6875 
Q 30.859375 26.65625 29.109375 26.65625 
Q 22.078125 26.65625 17.625 23.046875 
Q 13.1875 19.4375 13.1875 14.5 
Q 13.1875 6.34375 22.796875 6.34375 
Q 29.828125 6.34375 35.25 13.03125 
z
" id="TrebuchetMS-97"/>
      <path d="M 25.4375 -0.984375 
L 23 -0.984375 
L 0.59375 52.4375 
L 10.75 52.4375 
L 24.5625 15.828125 
L 38.671875 52.4375 
L 48.390625 52.4375 
z
" id="TrebuchetMS-118"/>
      <path d="M 50.640625 25.25 
L 12.9375 25.25 
Q 12.9375 16.0625 17.96875 11.140625 
Q 22.40625 6.84375 29.390625 6.84375 
Q 37.359375 6.84375 42.671875 11.46875 
L 46.578125 4.78125 
Q 44.4375 2.640625 39.984375 1.078125 
Q 34.421875 -0.984375 27.59375 -0.984375 
Q 17.71875 -0.984375 10.84375 5.71875 
Q 3.171875 13.09375 3.171875 25.53125 
Q 3.171875 38.484375 11.03125 46.296875 
Q 18.0625 53.265625 27.6875 53.265625 
Q 38.875 53.265625 45.21875 46.96875 
Q 51.375 40.921875 51.375 30.90625 
Q 51.375 27.828125 50.640625 25.25 
z
M 28.125 45.453125 
Q 21.921875 45.453125 17.71875 41.453125 
Q 13.71875 37.640625 13.1875 31.984375 
L 42.140625 31.984375 
Q 42.140625 37.59375 38.625 41.359375 
Q 34.765625 45.453125 28.125 45.453125 
z
" id="TrebuchetMS-101"/>
      <path d="M 7.765625 24.703125 
L 7.765625 33.25 
L 28.65625 33.25 
L 28.65625 24.703125 
z
" id="TrebuchetMS-45"/>
      <path d="M 7.328125 14.796875 
L 7.328125 73.734375 
L 16.609375 73.734375 
L 16.609375 16.359375 
Q 16.609375 12.15625 19.015625 9.734375 
Q 21.4375 7.328125 25.34375 7.328125 
L 25.34375 -0.984375 
Q 7.328125 -0.984375 7.328125 14.796875 
z
" id="TrebuchetMS-108"/>
      <path d="M 38.765625 0 
L 38.765625 30.421875 
Q 38.765625 38.765625 36.25 42.109375 
Q 33.734375 45.453125 27.828125 45.453125 
Q 24.65625 45.453125 21.1875 43.546875 
Q 17.71875 41.65625 15.875 38.875 
L 15.875 0 
L 6.59375 0 
L 6.59375 52.296875 
L 12.9375 52.296875 
L 15.875 45.5625 
Q 20.453125 53.265625 30.859375 53.265625 
Q 48.046875 53.265625 48.046875 32.375 
L 48.046875 0 
z
" id="TrebuchetMS-110"/>
      <path d="M 4.6875 -14.3125 
L 9.71875 -6.890625 
Q 17.828125 -12.3125 24.65625 -12.3125 
Q 30.953125 -12.3125 34.59375 -10.125 
Q 38.234375 -7.953125 38.234375 -4.734375 
Q 38.234375 1.609375 29.046875 1.609375 
Q 27.484375 1.609375 23.375 0.828125 
Q 19.28125 0.046875 17 0.046875 
Q 5.859375 0.046875 5.859375 8.453125 
Q 5.859375 11.03125 8.46875 13.125 
Q 11.078125 15.234375 14.9375 16.15625 
Q 3.90625 21.34375 3.90625 34.125 
Q 3.90625 42.328125 9.609375 47.796875 
Q 15.328125 53.265625 23.734375 53.265625 
Q 31.453125 53.265625 35.796875 50.09375 
L 40.4375 55.671875 
L 46.484375 49.953125 
L 40.921875 45.75 
Q 44.484375 41.109375 44.484375 33.640625 
Q 44.484375 25.734375 39.546875 20.359375 
Q 34.625 14.984375 26.609375 14.203125 
L 18.953125 13.421875 
Q 17.578125 13.28125 15.28125 12.375 
Q 12.984375 11.46875 12.984375 10.015625 
Q 12.984375 8.015625 17.78125 8.015625 
Q 19.875 8.015625 24.3125 8.765625 
Q 28.765625 9.515625 30.90625 9.515625 
Q 38.625 9.515625 42.9375 5.828125 
Q 47.265625 2.15625 47.265625 -4.390625 
Q 47.265625 -11.625 40.796875 -16.0625 
Q 34.328125 -20.515625 24.421875 -20.515625 
Q 19.34375 -20.515625 13.71875 -18.703125 
Q 8.109375 -16.890625 4.6875 -14.3125 
z
M 24.359375 45.796875 
Q 19.53125 45.796875 16.46875 42.375 
Q 13.421875 38.96875 13.421875 34.078125 
Q 13.421875 28.609375 16.375 25.015625 
Q 19.34375 21.4375 24.359375 21.4375 
Q 29.296875 21.4375 32.078125 24.921875 
Q 34.859375 28.421875 34.859375 34.078125 
Q 34.859375 38.96875 31.859375 42.375 
Q 28.859375 45.796875 24.359375 45.796875 
z
" id="TrebuchetMS-103"/>
      <path d="M 9.90625 44.96875 
L 3.859375 44.96875 
L 3.859375 52.296875 
L 9.90625 52.296875 
L 9.90625 63.234375 
L 19.1875 66.796875 
L 19.1875 52.296875 
L 33.546875 52.296875 
L 33.546875 44.96875 
L 19.1875 44.96875 
L 19.1875 19 
Q 19.1875 12.40625 21.40625 9.625 
Q 23.640625 6.84375 28.5625 6.84375 
Q 32.125 6.84375 35.9375 8.640625 
L 37.3125 0.484375 
Q 31.546875 -0.984375 24.65625 -0.984375 
Q 18.453125 -0.984375 14.171875 3.625 
Q 9.90625 8.25 9.90625 15.28125 
z
" id="TrebuchetMS-116"/>
      <path d="M 38.8125 0 
L 38.8125 32.859375 
Q 38.8125 38.71875 35.9375 42.078125 
Q 33.0625 45.453125 27.828125 45.453125 
Q 24.46875 45.453125 21.0625 43.46875 
Q 17.671875 41.5 15.875 38.875 
L 15.875 0 
L 6.59375 0 
L 6.59375 73.734375 
L 15.875 73.734375 
L 15.875 46.53125 
Q 17.71875 49.421875 21.84375 51.34375 
Q 25.984375 53.265625 30.375 53.265625 
Q 38.671875 53.265625 43.375 47.796875 
Q 48.09375 42.328125 48.09375 32.859375 
L 48.09375 0 
z
" id="TrebuchetMS-104"/>
      <path id="TrebuchetMS-32"/>
      <path d="M 9.859375 -20.515625 
L 9.859375 73.734375 
L 32.46875 73.734375 
L 32.46875 65.4375 
L 19.625 65.4375 
L 19.625 -12.203125 
L 32.46875 -12.203125 
L 32.46875 -20.515625 
z
" id="TrebuchetMS-91"/>
      <path d="M 40.375 0 
L 23.96875 26.171875 
L 15.875 17.828125 
L 15.875 0 
L 6.59375 0 
L 6.59375 73.734375 
L 15.875 73.734375 
L 15.875 27.984375 
L 35.890625 52.296875 
L 46.734375 52.296875 
L 29.984375 32.421875 
L 50.4375 0 
z
" id="TrebuchetMS-107"/>
      <path d="M 67.140625 0 
L 67.140625 33.109375 
Q 67.140625 45.453125 56.453125 45.453125 
Q 53.078125 45.453125 50.140625 43.375 
Q 47.21875 41.3125 46.140625 38.671875 
L 46.140625 0 
L 36.859375 0 
L 36.859375 37.15625 
Q 36.859375 41.015625 33.953125 43.234375 
Q 31.0625 45.453125 26.265625 45.453125 
Q 23.484375 45.453125 20.328125 43.296875 
Q 17.1875 41.15625 15.875 38.578125 
L 15.875 0 
L 6.59375 0 
L 6.59375 52.296875 
L 12.640625 52.296875 
L 15.71875 46.234375 
Q 21.09375 53.265625 29.15625 53.265625 
Q 40.375 53.265625 44.875 46.296875 
Q 46.4375 49.265625 50.6875 51.265625 
Q 54.9375 53.265625 59.421875 53.265625 
Q 67.53125 53.265625 71.96875 48.453125 
Q 76.421875 43.65625 76.421875 34.96875 
L 76.421875 0 
z
" id="TrebuchetMS-109"/>
      <path d="M 26.859375 -20.515625 
L 4.25 -20.515625 
L 4.25 -12.203125 
L 17.09375 -12.203125 
L 17.09375 65.4375 
L 4.25 65.4375 
L 4.25 73.734375 
L 26.859375 73.734375 
z
" id="TrebuchetMS-93"/>
     </defs>
     <g transform="translate(284.45125 640.5175)scale(0.16 -0.16)">
      <use xlink:href="#TrebuchetMS-87"/>
      <use x="85.126953" xlink:href="#TrebuchetMS-97"/>
      <use x="137.666016" xlink:href="#TrebuchetMS-118"/>
      <use x="186.640625" xlink:href="#TrebuchetMS-101"/>
      <use x="241.181641" xlink:href="#TrebuchetMS-45"/>
      <use x="277.900391" xlink:href="#TrebuchetMS-108"/>
      <use x="307.392578" xlink:href="#TrebuchetMS-101"/>
      <use x="361.933594" xlink:href="#TrebuchetMS-110"/>
      <use x="416.572266" xlink:href="#TrebuchetMS-103"/>
      <use x="466.767578" xlink:href="#TrebuchetMS-116"/>
      <use x="506.416016" xlink:href="#TrebuchetMS-104"/>
      <use x="561.054688" xlink:href="#TrebuchetMS-32"/>
      <use x="591.181641" xlink:href="#TrebuchetMS-91"/>
      <use x="627.900391" xlink:href="#TrebuchetMS-107"/>
      <use x="678.339844" xlink:href="#TrebuchetMS-109"/>
      <use x="761.347656" xlink:href="#TrebuchetMS-93"/>
     </g>
    </g>
   </g>
   <g id="matplotlib.axis_2">
    <g id="ytick_1">
     <g id="line2d_27">
      <path clip-path="url(#pcc914ff9ce)" d="M 64.8 602.64 
L 631.8 602.64 
" style="fill:none;stroke:#000000;stroke-linecap:square;stroke-width:0.2;"/>
     </g>
     <g id="line2d_28">
      <defs>
       <path d="M 0 0 
L -3.5 0 
" id="mfb38630b91" style="stroke:#000000;stroke-width:0.8;"/>
      </defs>
      <g>
       <use style="stroke:#000000;stroke-width:0.8;" x="64.8" xlink:href="#mfb38630b91" y="602.64"/>
      </g>
     </g>
     <g id="text_15">
      <!-- $\mathregular{10^{-8}}$ -->
      <defs>
       <path d="M 46.875 34.46875 
L 46.875 27.59375 
L 5.953125 27.59375 
L 5.953125 34.46875 
z
" id="TrebuchetMS-8722"/>
       <path d="M 17.234375 39.796875 
Q 12.703125 42.234375 9.8125 46.578125 
Q 6.9375 50.921875 6.9375 55.5625 
Q 6.9375 63.53125 12.328125 68.15625 
Q 17.71875 72.796875 26.265625 72.796875 
Q 35.5 72.796875 40.578125 68.15625 
Q 45.65625 63.53125 45.65625 55.515625 
Q 45.65625 50.828125 42.578125 45.96875 
Q 39.5 41.109375 35.453125 38.8125 
Q 48.34375 31.59375 48.34375 19.828125 
Q 48.34375 9.90625 42.375 4.453125 
Q 36.421875 -0.984375 26.03125 -0.984375 
Q 4.34375 -0.984375 4.34375 19.828125 
Q 4.34375 25.828125 8.046875 31.640625 
Q 11.765625 37.453125 17.234375 39.796875 
z
M 29.203125 42.828125 
Q 35.84375 49.078125 35.84375 55.765625 
Q 35.84375 59.765625 33.171875 62.125 
Q 30.515625 64.5 26.265625 64.5 
Q 16.703125 64.5 16.703125 55.671875 
Q 16.703125 49.125 29.203125 42.828125 
z
M 24.859375 35.546875 
Q 14.109375 29.734375 14.109375 19.828125 
Q 14.109375 14.5 17.421875 10.90625 
Q 20.75 7.328125 26.03125 7.328125 
Q 31.5 7.328125 35.03125 10.84375 
Q 38.578125 14.359375 38.578125 19.828125 
Q 38.578125 23.78125 36.125 27.265625 
Q 33.6875 30.765625 24.859375 35.546875 
z
" id="TrebuchetMS-56"/>
      </defs>
      <g transform="translate(28.68 608.53875)scale(0.16 -0.16)">
       <use transform="translate(0 0.434375)" xlink:href="#TrebuchetMS-49"/>
       <use transform="translate(52.441406 0.434375)" xlink:href="#TrebuchetMS-48"/>
       <use transform="translate(105.798008 37.042188)scale(0.7)" xlink:href="#TrebuchetMS-8722"/>
       <use transform="translate(142.506992 37.042188)scale(0.7)" xlink:href="#TrebuchetMS-56"/>
      </g>
     </g>
    </g>
    <g id="ytick_2">
     <g id="line2d_29">
      <path clip-path="url(#pcc914ff9ce)" d="M 64.8 546.912 
L 631.8 546.912 
" style="fill:none;stroke:#000000;stroke-linecap:square;stroke-width:0.2;"/>
     </g>
     <g id="line2d_30">
      <g>
       <use style="stroke:#000000;stroke-width:0.8;" x="64.8" xlink:href="#mfb38630b91" y="546.912"/>
      </g>
     </g>
     <g id="text_16">
      <!-- $\mathregular{10^{-7}}$ -->
      <g transform="translate(28.68 552.81075)scale(0.16 -0.16)">
       <use transform="translate(0 0.1125)" xlink:href="#TrebuchetMS-49"/>
       <use transform="translate(52.441406 0.1125)" xlink:href="#TrebuchetMS-48"/>
       <use transform="translate(105.798008 36.720313)scale(0.7)" xlink:href="#TrebuchetMS-8722"/>
       <use transform="translate(142.506992 36.720313)scale(0.7)" xlink:href="#TrebuchetMS-55"/>
      </g>
     </g>
    </g>
    <g id="ytick_3">
     <g id="line2d_31">
      <path clip-path="url(#pcc914ff9ce)" d="M 64.8 491.184 
L 631.8 491.184 
" style="fill:none;stroke:#000000;stroke-linecap:square;stroke-width:0.2;"/>
     </g>
     <g id="line2d_32">
      <g>
       <use style="stroke:#000000;stroke-width:0.8;" x="64.8" xlink:href="#mfb38630b91" y="491.184"/>
      </g>
     </g>
     <g id="text_17">
      <!-- $\mathregular{10^{-6}}$ -->
      <defs>
       <path d="M 32.8125 72.796875 
L 37.546875 67.578125 
Q 33.25 65.875 25.125 56.03125 
Q 17 46.1875 16.109375 40.875 
Q 20.171875 44.78125 27.390625 44.78125 
Q 36.859375 44.78125 42.578125 38.71875 
Q 48.296875 32.671875 48.296875 22.078125 
Q 48.296875 11.578125 42.40625 5.171875 
Q 36.53125 -1.21875 27.640625 -1.21875 
Q 4.109375 -1.21875 4.109375 29.984375 
Q 4.109375 42.96875 13.3125 56.5625 
Q 22.515625 70.171875 32.8125 72.796875 
z
M 14.359375 22.359375 
Q 14.359375 7.078125 26.90625 7.078125 
Q 32.171875 7.078125 35.21875 11.0625 
Q 38.28125 15.046875 38.28125 21.578125 
Q 38.28125 28.375 35.0625 32.421875 
Q 31.84375 36.46875 26.765625 36.46875 
Q 14.359375 36.46875 14.359375 22.359375 
z
" id="TrebuchetMS-54"/>
      </defs>
      <g transform="translate(28.68 497.08275)scale(0.16 -0.16)">
       <use transform="translate(0 0.434375)" xlink:href="#TrebuchetMS-49"/>
       <use transform="translate(52.441406 0.434375)" xlink:href="#TrebuchetMS-48"/>
       <use transform="translate(105.798008 37.042188)scale(0.7)" xlink:href="#TrebuchetMS-8722"/>
       <use transform="translate(142.506992 37.042188)scale(0.7)" xlink:href="#TrebuchetMS-54"/>
      </g>
     </g>
    </g>
    <g id="ytick_4">
     <g id="line2d_33">
      <path clip-path="url(#pcc914ff9ce)" d="M 64.8 435.456 
L 631.8 435.456 
" style="fill:none;stroke:#000000;stroke-linecap:square;stroke-width:0.2;"/>
     </g>
     <g id="line2d_34">
      <g>
       <use style="stroke:#000000;stroke-width:0.8;" x="64.8" xlink:href="#mfb38630b91" y="435.456"/>
      </g>
     </g>
     <g id="text_18">
      <!-- $\mathregular{10^{-5}}$ -->
      <g transform="translate(28.68 441.35475)scale(0.16 -0.16)">
       <use transform="translate(0 0.1125)" xlink:href="#TrebuchetMS-49"/>
       <use transform="translate(52.441406 0.1125)" xlink:href="#TrebuchetMS-48"/>
       <use transform="translate(105.798008 36.720313)scale(0.7)" xlink:href="#TrebuchetMS-8722"/>
       <use transform="translate(142.506992 36.720313)scale(0.7)" xlink:href="#TrebuchetMS-53"/>
      </g>
     </g>
    </g>
    <g id="ytick_5">
     <g id="line2d_35">
      <path clip-path="url(#pcc914ff9ce)" d="M 64.8 379.728 
L 631.8 379.728 
" style="fill:none;stroke:#000000;stroke-linecap:square;stroke-width:0.2;"/>
     </g>
     <g id="line2d_36">
      <g>
       <use style="stroke:#000000;stroke-width:0.8;" x="64.8" xlink:href="#mfb38630b91" y="379.728"/>
      </g>
     </g>
     <g id="text_19">
      <!-- $\mathregular{10^{-4}}$ -->
      <g transform="translate(28.68 385.62675)scale(0.16 -0.16)">
       <use transform="translate(0 0.1125)" xlink:href="#TrebuchetMS-49"/>
       <use transform="translate(52.441406 0.1125)" xlink:href="#TrebuchetMS-48"/>
       <use transform="translate(105.798008 36.720313)scale(0.7)" xlink:href="#TrebuchetMS-8722"/>
       <use transform="translate(142.506992 36.720313)scale(0.7)" xlink:href="#TrebuchetMS-52"/>
      </g>
     </g>
    </g>
    <g id="ytick_6">
     <g id="line2d_37">
      <path clip-path="url(#pcc914ff9ce)" d="M 64.8 324 
L 631.8 324 
" style="fill:none;stroke:#000000;stroke-linecap:square;stroke-width:0.2;"/>
     </g>
     <g id="line2d_38">
      <g>
       <use style="stroke:#000000;stroke-width:0.8;" x="64.8" xlink:href="#mfb38630b91" y="324"/>
      </g>
     </g>
     <g id="text_20">
      <!-- $\mathregular{10^{-3}}$ -->
      <g transform="translate(28.68 329.89875)scale(0.16 -0.16)">
       <use transform="translate(0 0.434375)" xlink:href="#TrebuchetMS-49"/>
       <use transform="translate(52.441406 0.434375)" xlink:href="#TrebuchetMS-48"/>
       <use transform="translate(105.798008 37.042188)scale(0.7)" xlink:href="#TrebuchetMS-8722"/>
       <use transform="translate(142.506992 37.042188)scale(0.7)" xlink:href="#TrebuchetMS-51"/>
      </g>
     </g>
    </g>
    <g id="ytick_7">
     <g id="line2d_39">
      <path clip-path="url(#pcc914ff9ce)" d="M 64.8 268.272 
L 631.8 268.272 
" style="fill:none;stroke:#000000;stroke-linecap:square;stroke-width:0.2;"/>
     </g>
     <g id="line2d_40">
      <g>
       <use style="stroke:#000000;stroke-width:0.8;" x="64.8" xlink:href="#mfb38630b91" y="268.272"/>
      </g>
     </g>
     <g id="text_21">
      <!-- $\mathregular{10^{-2}}$ -->
      <g transform="translate(28.68 274.17075)scale(0.16 -0.16)">
       <use transform="translate(0 0.434375)" xlink:href="#TrebuchetMS-49"/>
       <use transform="translate(52.441406 0.434375)" xlink:href="#TrebuchetMS-48"/>
       <use transform="translate(105.798008 37.042188)scale(0.7)" xlink:href="#TrebuchetMS-8722"/>
       <use transform="translate(142.506992 37.042188)scale(0.7)" xlink:href="#TrebuchetMS-50"/>
      </g>
     </g>
    </g>
    <g id="ytick_8">
     <g id="line2d_41">
      <path clip-path="url(#pcc914ff9ce)" d="M 64.8 212.544 
L 631.8 212.544 
" style="fill:none;stroke:#000000;stroke-linecap:square;stroke-width:0.2;"/>
     </g>
     <g id="line2d_42">
      <g>
       <use style="stroke:#000000;stroke-width:0.8;" x="64.8" xlink:href="#mfb38630b91" y="212.544"/>
      </g>
     </g>
     <g id="text_22">
      <!-- $\mathregular{10^{-1}}$ -->
      <g transform="translate(28.68 218.44275)scale(0.16 -0.16)">
       <use transform="translate(0 0.1125)" xlink:href="#TrebuchetMS-49"/>
       <use transform="translate(52.441406 0.1125)" xlink:href="#TrebuchetMS-48"/>
       <use transform="translate(105.798008 36.720313)scale(0.7)" xlink:href="#TrebuchetMS-8722"/>
       <use transform="translate(142.506992 36.720313)scale(0.7)" xlink:href="#TrebuchetMS-49"/>
      </g>
     </g>
    </g>
    <g id="ytick_9">
     <g id="line2d_43">
      <path clip-path="url(#pcc914ff9ce)" d="M 64.8 156.816 
L 631.8 156.816 
" style="fill:none;stroke:#000000;stroke-linecap:square;stroke-width:0.2;"/>
     </g>
     <g id="line2d_44">
      <g>
       <use style="stroke:#000000;stroke-width:0.8;" x="64.8" xlink:href="#mfb38630b91" y="156.816"/>
      </g>
     </g>
     <g id="text_23">
      <!-- $\mathregular{10^{0}}$ -->
      <g transform="translate(34.44 162.71475)scale(0.16 -0.16)">
       <use transform="translate(0 0.434375)" xlink:href="#TrebuchetMS-49"/>
       <use transform="translate(52.441406 0.434375)" xlink:href="#TrebuchetMS-48"/>
       <use transform="translate(105.798008 37.042188)scale(0.7)" xlink:href="#TrebuchetMS-48"/>
      </g>
     </g>
    </g>
    <g id="ytick_10">
     <g id="line2d_45">
      <path clip-path="url(#pcc914ff9ce)" d="M 64.8 101.088 
L 631.8 101.088 
" style="fill:none;stroke:#000000;stroke-linecap:square;stroke-width:0.2;"/>
     </g>
     <g id="line2d_46">
      <g>
       <use style="stroke:#000000;stroke-width:0.8;" x="64.8" xlink:href="#mfb38630b91" y="101.088"/>
      </g>
     </g>
     <g id="text_24">
      <!-- $\mathregular{10^{1}}$ -->
      <g transform="translate(34.44 106.98675)scale(0.16 -0.16)">
       <use transform="translate(0 0.1125)" xlink:href="#TrebuchetMS-49"/>
       <use transform="translate(52.441406 0.1125)" xlink:href="#TrebuchetMS-48"/>
       <use transform="translate(105.798008 36.720313)scale(0.7)" xlink:href="#TrebuchetMS-49"/>
      </g>
     </g>
    </g>
    <g id="ytick_11">
     <g id="line2d_47">
      <path clip-path="url(#pcc914ff9ce)" d="M 64.8 45.36 
L 631.8 45.36 
" style="fill:none;stroke:#000000;stroke-linecap:square;stroke-width:0.2;"/>
     </g>
     <g id="line2d_48">
      <g>
       <use style="stroke:#000000;stroke-width:0.8;" x="64.8" xlink:href="#mfb38630b91" y="45.36"/>
      </g>
     </g>
     <g id="text_25">
      <!-- $\mathregular{10^{2}}$ -->
      <g transform="translate(34.44 51.25875)scale(0.16 -0.16)">
       <use transform="translate(0 0.434375)" xlink:href="#TrebuchetMS-49"/>
       <use transform="translate(52.441406 0.434375)" xlink:href="#TrebuchetMS-48"/>
       <use transform="translate(105.798008 37.042188)scale(0.7)" xlink:href="#TrebuchetMS-50"/>
      </g>
     </g>
    </g>
    <g id="text_26">
     <!-- SSH PSD [$\mathregular{m^2}$/(cy/km)] -->
     <defs>
      <path d="M 4.109375 3.265625 
L 7.671875 12.25 
Q 10.40625 10.25 14.484375 8.90625 
Q 18.5625 7.5625 21.78125 7.5625 
Q 27.484375 7.5625 30.953125 10.6875 
Q 34.421875 13.8125 34.421875 18.65625 
Q 34.421875 22.265625 32.484375 25.359375 
Q 30.5625 28.46875 22.796875 32.125 
L 17.046875 34.8125 
Q 9.71875 38.234375 6.8125 42.921875 
Q 3.90625 47.609375 3.90625 54.203125 
Q 3.90625 62.203125 9.5625 67.46875 
Q 15.234375 72.75 24.125 72.75 
Q 35.984375 72.75 40.625 68.890625 
L 37.75 60.40625 
Q 35.796875 61.8125 31.78125 63.125 
Q 27.78125 64.453125 24.359375 64.453125 
Q 19.390625 64.453125 16.53125 61.625 
Q 13.671875 58.796875 13.671875 54.34375 
Q 13.671875 51.609375 14.6875 49.359375 
Q 15.71875 47.125 17.546875 45.609375 
Q 19.390625 44.09375 25.046875 41.359375 
L 30.90625 38.578125 
Q 38.234375 35.109375 41.1875 30.296875 
Q 44.140625 25.484375 44.140625 18.0625 
Q 44.140625 10.015625 37.671875 4.390625 
Q 31.203125 -1.21875 20.359375 -1.21875 
Q 10.84375 -1.21875 4.109375 3.265625 
z
" id="TrebuchetMS-83"/>
      <path d="M 48.34375 0 
L 48.34375 34.578125 
L 17.09375 34.578125 
L 17.09375 0 
L 7.328125 0 
L 7.328125 71.53125 
L 17.09375 71.53125 
L 17.09375 42.875 
L 48.34375 42.875 
L 48.34375 71.53125 
L 58.109375 71.53125 
L 58.109375 0 
z
" id="TrebuchetMS-72"/>
      <path d="M 17.09375 27.546875 
L 17.09375 0 
L 7.328125 0 
L 7.328125 71.53125 
Q 18.40625 72.015625 20.703125 72.015625 
Q 51.859375 72.015625 51.859375 51.171875 
Q 51.859375 27.046875 24.3125 27.046875 
Q 22.65625 27.046875 17.09375 27.546875 
z
M 17.09375 62.75 
L 17.09375 36.328125 
Q 23.296875 35.84375 23.640625 35.84375 
Q 41.796875 35.84375 41.796875 50.140625 
Q 41.796875 63.234375 22.40625 63.234375 
Q 20.453125 63.234375 17.09375 62.75 
z
" id="TrebuchetMS-80"/>
      <path d="M 21.734375 0 
L 7.328125 0 
L 7.328125 71.53125 
Q 21.09375 72.015625 24.953125 72.015625 
Q 39.9375 72.015625 48.671875 62.90625 
Q 57.421875 53.8125 57.421875 38.671875 
Q 57.421875 0 21.734375 0 
z
M 17.09375 62.75 
L 17.09375 9.28125 
Q 20.359375 8.796875 25.203125 8.796875 
Q 35.453125 8.796875 41.3125 16.484375 
Q 47.171875 24.171875 47.171875 37.84375 
Q 47.171875 63.234375 24.359375 63.234375 
Q 23 63.234375 17.09375 62.75 
z
" id="TrebuchetMS-68"/>
      <path d="M 17.09375 0 
L 9.234375 0 
L 35.15625 71.828125 
L 42.921875 71.828125 
z
" id="TrebuchetMS-47"/>
      <path d="M 30.171875 72.015625 
L 30.171875 67.96875 
Q 20.515625 54 20.515625 27.203125 
Q 20.515625 -4.640625 30.171875 -15.765625 
L 30.171875 -20.90625 
Q 20.3125 -14.015625 14.859375 -1.140625 
Q 9.421875 11.71875 9.421875 27.296875 
Q 9.421875 40.578125 15.625 54.125 
Q 21.828125 67.671875 30.171875 72.015625 
z
" id="TrebuchetMS-40"/>
      <path d="M 46.046875 48.046875 
L 41.453125 41.5 
Q 40.046875 42.921875 36.453125 44.1875 
Q 32.859375 45.453125 29.390625 45.453125 
Q 21.828125 45.453125 17.375 40.15625 
Q 12.9375 34.859375 12.9375 25.640625 
Q 12.9375 16.453125 17.46875 11.640625 
Q 22.015625 6.84375 30.078125 6.84375 
Q 36.328125 6.84375 42.671875 11.671875 
L 46.34375 3.859375 
Q 38.875 -0.984375 27.828125 -0.984375 
Q 17.140625 -0.984375 10.15625 6.1875 
Q 3.171875 13.375 3.171875 25.640625 
Q 3.171875 38.140625 10.421875 45.703125 
Q 17.671875 53.265625 30.28125 53.265625 
Q 34.328125 53.265625 39.0625 51.5625 
Q 43.796875 49.859375 46.046875 48.046875 
z
" id="TrebuchetMS-99"/>
      <path d="M 26.5625 -8.890625 
Q 24.75 -13.875 18.96875 -17.1875 
Q 13.1875 -20.515625 6.0625 -20.515625 
L 6.0625 -12.203125 
Q 11.859375 -12.203125 16.015625 -9.484375 
Q 20.171875 -6.78125 20.171875 -2.875 
Q 20.171875 1.421875 18.65625 5.59375 
Q 17.140625 9.765625 14.75 15.921875 
L 0.59375 52.296875 
L 10.0625 52.296875 
L 25.4375 11.859375 
L 39.265625 52.296875 
L 48.734375 52.296875 
z
" id="TrebuchetMS-121"/>
      <path d="M 9.421875 -20.90625 
L 9.421875 -15.765625 
Q 19.09375 -4.640625 19.09375 27.203125 
Q 19.09375 54 9.421875 67.96875 
L 9.421875 72.015625 
Q 17.78125 67.671875 23.96875 54.125 
Q 30.171875 40.578125 30.171875 27.296875 
Q 30.171875 11.71875 24.71875 -1.140625 
Q 19.28125 -14.015625 9.421875 -20.90625 
z
" id="TrebuchetMS-41"/>
     </defs>
     <g transform="translate(21.32 403.6)rotate(-90)scale(0.16 -0.16)">
      <use transform="translate(0 0.434375)" xlink:href="#TrebuchetMS-83"/>
      <use transform="translate(48.095703 0.434375)" xlink:href="#TrebuchetMS-83"/>
      <use transform="translate(96.191406 0.434375)" xlink:href="#TrebuchetMS-72"/>
      <use transform="translate(161.621094 0.434375)" xlink:href="#TrebuchetMS-32"/>
      <use transform="translate(191.748047 0.434375)" xlink:href="#TrebuchetMS-80"/>
      <use transform="translate(247.509766 0.434375)" xlink:href="#TrebuchetMS-83"/>
      <use transform="translate(295.605469 0.434375)" xlink:href="#TrebuchetMS-68"/>
      <use transform="translate(356.933594 0.434375)" xlink:href="#TrebuchetMS-32"/>
      <use transform="translate(387.060547 0.434375)" xlink:href="#TrebuchetMS-91"/>
      <use transform="translate(423.779297 0.434375)" xlink:href="#TrebuchetMS-109"/>
      <use transform="translate(507.702305 37.042188)scale(0.7)" xlink:href="#TrebuchetMS-50"/>
      <use transform="translate(547.026133 0.434375)" xlink:href="#TrebuchetMS-47"/>
      <use transform="translate(599.467539 0.434375)" xlink:href="#TrebuchetMS-40"/>
      <use transform="translate(636.186289 0.434375)" xlink:href="#TrebuchetMS-99"/>
      <use transform="translate(685.698008 0.434375)" xlink:href="#TrebuchetMS-121"/>
      <use transform="translate(735.014414 0.434375)" xlink:href="#TrebuchetMS-47"/>
      <use transform="translate(787.45582 0.434375)" xlink:href="#TrebuchetMS-107"/>
      <use transform="translate(837.895273 0.434375)" xlink:href="#TrebuchetMS-109"/>
      <use transform="translate(920.903086 0.434375)" xlink:href="#TrebuchetMS-41"/>
      <use transform="translate(957.621836 0.434375)" xlink:href="#TrebuchetMS-93"/>
     </g>
    </g>
   </g>
   <g id="line2d_49">
    <path clip-path="url(#pcc914ff9ce)" d="M 189.473105 281.262637 
L 271.565038 314.814237 
L 319.585741 334.440664 
L 353.656971 348.365836 
L 380.084671 359.167038 
L 401.677674 367.992263 
L 419.934297 375.453885 
L 435.748904 381.917435 
L 449.698376 387.618691 
L 462.176604 392.718637 
L 473.464534 397.332101 
L 483.769607 401.543862 
L 493.249355 405.418308 
L 502.02623 409.005484 
L 510.197306 412.345065 
L 517.840837 415.469034 
L 525.020831 418.403552 
L 531.790309 421.17029 
L 538.193686 423.787399 
L 544.268537 426.270237 
L 550.046933 428.631911 
L 555.556467 430.8837 
L 560.82105 433.035375 
L 565.86154 435.095462 
L 570.696236 437.071439 
L 575.341288 438.969907 
L 579.811011 440.796717 
L 584.118163 442.557083 
L 588.274156 444.255669 
" style="fill:none;stroke:#000000;stroke-dasharray:7.4,3.2;stroke-dashoffset:0;stroke-width:2;"/>
   </g>
   <g id="line2d_50">
    <path clip-path="url(#pcc914ff9ce)" d="M 189.473105 26.864873 
L 271.565038 110.743871 
L 319.585741 159.80994 
L 353.656971 194.622869 
L 380.084671 221.625875 
L 401.677674 243.688938 
L 419.934297 262.342991 
L 435.748904 278.501867 
L 449.698376 292.755006 
L 462.176604 305.504873 
L 473.464534 317.038531 
L 483.769607 327.567936 
L 493.249355 337.254049 
L 502.02623 346.221989 
L 510.197306 354.570942 
L 517.840837 362.380865 
L 525.020831 369.717161 
L 531.790309 376.634004 
L 538.193686 383.176777 
L 544.268537 389.383871 
L 550.046933 395.288057 
L 555.556467 400.917529 
L 560.82105 406.296717 
L 565.86154 411.446934 
L 570.696236 416.386877 
L 575.341288 421.133047 
L 579.811011 425.700072 
L 584.118163 430.100987 
L 588.274156 434.347451 
" style="fill:none;stroke:#999999;stroke-dasharray:7.4,3.2;stroke-dashoffset:0;stroke-width:2;"/>
   </g>
   <g id="patch_3">
    <path d="M 64.8 602.64 
L 64.8 45.36 
" style="fill:none;stroke:#000000;stroke-linecap:square;stroke-linejoin:miter;stroke-width:0.8;"/>
   </g>
   <g id="patch_4">
    <path d="M 631.8 602.64 
L 631.8 45.36 
" style="fill:none;stroke:#000000;stroke-linecap:square;stroke-linejoin:miter;stroke-width:0.8;"/>
   </g>
   <g id="patch_5">
    <path d="M 64.8 602.64 
L 631.8 602.64 
" style="fill:none;stroke:#000000;stroke-linecap:square;stroke-linejoin:miter;stroke-width:0.8;"/>
   </g>
   <g id="patch_6">
    <path d="M 64.8 45.36 
L 631.8 45.36 
" style="fill:none;stroke:#000000;stroke-linecap:square;stroke-linejoin:miter;stroke-width:0.8;"/>
   </g>
   <g id="line2d_51">
    <path clip-path="url(#pcc914ff9ce)" d="M 189.473105 130.329879 
L 271.565038 163.774585 
L 319.585741 189.240702 
L 353.656971 201.967005 
L 380.084671 206.501944 
L 401.677674 223.571226 
L 419.934297 229.941182 
L 435.748904 243.067878 
L 449.698376 248.5285 
L 462.176604 257.465727 
L 473.464534 252.656582 
L 483.769607 266.033386 
L 493.249355 266.724617 
L 502.02623 270.533631 
L 510.197306 273.197534 
L 517.840837 279.935203 
L 525.020831 277.426674 
L 531.790309 282.481828 
L 538.193686 285.179659 
L 544.268537 283.575814 
L 550.046933 288.282111 
L 555.556467 289.579295 
L 560.82105 287.914075 
L 565.86154 290.006793 
L 570.696236 291.384667 
L 575.341288 291.979493 
L 579.811011 292.521452 
L 584.118163 293.447512 
L 588.274156 294.541973 
" style="fill:none;stroke:#008ab8;stroke-linecap:square;stroke-width:5;"/>
   </g>
   <g id="legend_1">
    <g id="patch_7">
     <path d="M 355.595 152.605 
L 622.6 152.605 
Q 625.8 152.605 625.8 149.405 
L 625.8 58.56 
Q 625.8 55.36 622.6 55.36 
L 355.595 55.36 
Q 352.395 55.36 352.395 58.56 
L 352.395 149.405 
Q 352.395 152.605 355.595 152.605 
z
" style="fill:#4c4c4c;opacity:0.5;stroke:#4c4c4c;stroke-linejoin:miter;"/>
    </g>
    <g id="patch_8">
     <path d="M 353.595 150.605 
L 620.6 150.605 
Q 623.8 150.605 623.8 147.405 
L 623.8 56.56 
Q 623.8 53.36 620.6 53.36 
L 353.595 53.36 
Q 350.395 53.36 350.395 56.56 
L 350.395 147.405 
Q 350.395 150.605 353.595 150.605 
z
" style="fill:#ffffff;stroke:#cccccc;stroke-linejoin:miter;"/>
    </g>
    <g id="line2d_52">
     <path d="M 356.795 65.9575 
L 388.795 65.9575 
" style="fill:none;stroke:#ffed00;stroke-linecap:square;stroke-width:4;"/>
    </g>
    <g id="line2d_53"/>
    <g id="text_27">
     <!-- Saral-Altika ("sla_unfiltered") -->
     <defs>
      <path d="M 35.015625 43.359375 
Q 31.984375 45.453125 28.90625 45.453125 
Q 23.96875 45.453125 20.28125 40.90625 
Q 16.609375 36.375 16.609375 29.984375 
L 16.609375 0 
L 7.328125 0 
L 7.328125 52.296875 
L 16.609375 52.296875 
L 16.609375 43.953125 
Q 21.6875 53.265625 31.6875 53.265625 
Q 34.1875 53.265625 38.875 52.390625 
z
" id="TrebuchetMS-114"/>
      <path d="M 47.953125 0 
L 43.015625 15.09375 
L 16.40625 15.09375 
L 11.140625 0 
L 0.203125 0 
L 29.25 72.515625 
L 31.84375 72.515625 
L 58.796875 0 
z
M 30.078125 53.765625 
L 19 22.265625 
L 40.234375 22.265625 
z
" id="TrebuchetMS-65"/>
      <path d="M 16.15625 72.078125 
Q 18.5625 72.078125 20.234375 70.390625 
Q 21.921875 68.703125 21.921875 66.359375 
Q 21.921875 63.96875 20.234375 62.28125 
Q 18.5625 60.59375 16.15625 60.59375 
Q 13.8125 60.59375 12.125 62.28125 
Q 10.453125 63.96875 10.453125 66.359375 
Q 10.453125 68.75 12.109375 70.40625 
Q 13.765625 72.078125 16.15625 72.078125 
z
M 11.078125 0 
L 11.078125 44.484375 
L 3.90625 44.484375 
L 3.90625 52.296875 
L 20.359375 52.296875 
L 20.359375 0 
z
" id="TrebuchetMS-105"/>
      <path d="M 11.1875 53.03125 
L 4.6875 53.03125 
L 3.515625 71.625 
L 12.5 71.625 
z
M 27.296875 53.03125 
L 20.796875 53.03125 
L 19.625 71.625 
L 28.609375 71.625 
z
" id="TrebuchetMS-34"/>
      <path d="M 3.171875 3.125 
L 6.453125 11.921875 
Q 14.203125 6.84375 18.953125 6.84375 
Q 27.546875 6.84375 27.546875 14.0625 
Q 27.546875 19.234375 19.234375 22.953125 
Q 12.84375 25.875 10.625 27.390625 
Q 8.40625 28.90625 6.765625 30.828125 
Q 5.125 32.765625 4.3125 34.9375 
Q 3.515625 37.109375 3.515625 39.59375 
Q 3.515625 46.046875 8.203125 49.65625 
Q 12.890625 53.265625 20.453125 53.265625 
Q 26.171875 53.265625 34.859375 49.65625 
L 32.234375 41.0625 
Q 26.703125 45.453125 21.140625 45.453125 
Q 17.828125 45.453125 15.546875 43.890625 
Q 13.28125 42.328125 13.28125 39.9375 
Q 13.28125 34.90625 19 32.328125 
L 25.640625 29.296875 
Q 31.734375 26.515625 34.515625 22.953125 
Q 37.3125 19.390625 37.3125 14.015625 
Q 37.3125 6.984375 32.375 3 
Q 27.4375 -0.984375 18.703125 -0.984375 
Q 10.453125 -0.984375 3.171875 3.125 
z
" id="TrebuchetMS-115"/>
      <path d="M -0.390625 -12.40625 
L -0.390625 -6.109375 
L 52.59375 -6.109375 
L 52.59375 -12.40625 
z
" id="TrebuchetMS-95"/>
      <path d="M 15.375 52.296875 
L 15.375 18.953125 
Q 15.375 6.84375 25.875 6.84375 
Q 30.46875 6.84375 34.28125 9.46875 
Q 38.09375 12.109375 39.3125 15.578125 
L 39.3125 52.296875 
L 48.578125 52.296875 
L 48.578125 0 
L 39.3125 0 
L 39.3125 7.234375 
Q 37.75 4.15625 33.03125 1.578125 
Q 28.328125 -0.984375 23.828125 -0.984375 
Q 15.234375 -0.984375 10.671875 3.953125 
Q 6.109375 8.890625 6.109375 17.96875 
L 6.109375 52.296875 
z
" id="TrebuchetMS-117"/>
      <path d="M 34.859375 65.4375 
Q 32.03125 66.40625 29.59375 66.40625 
Q 25.34375 66.40625 22.578125 63.1875 
Q 19.828125 59.96875 19.828125 55.03125 
Q 19.828125 53.71875 20.0625 52.296875 
L 30.71875 52.296875 
L 30.71875 44.484375 
L 20.0625 44.484375 
L 20.0625 0 
L 10.796875 0 
L 10.796875 44.484375 
L 3.171875 44.484375 
L 3.171875 52.296875 
L 10.796875 52.296875 
Q 10.796875 62.3125 15.71875 68.015625 
Q 20.65625 73.734375 28.765625 73.734375 
Q 32.8125 73.734375 37.453125 72.265625 
z
" id="TrebuchetMS-102"/>
      <path d="M 39.75 0.046875 
L 39.75 3.90625 
Q 34.90625 -0.921875 25.6875 -0.921875 
Q 15.875 -0.921875 9.765625 6.109375 
Q 3.65625 13.140625 3.65625 24.859375 
Q 3.65625 36.625 10.6875 44.9375 
Q 17.71875 53.265625 27.4375 53.265625 
Q 35.546875 53.265625 39.75 49.46875 
L 39.75 73.734375 
L 49.03125 73.734375 
L 49.03125 0.046875 
z
M 39.75 40.1875 
Q 36.234375 45.453125 30.125 45.453125 
Q 22.65625 45.453125 18.03125 39.890625 
Q 13.421875 34.328125 13.421875 25.734375 
Q 13.421875 6.84375 30.609375 6.84375 
Q 32.8125 6.84375 35.890625 8.234375 
Q 38.96875 9.625 39.75 11.1875 
z
" id="TrebuchetMS-100"/>
     </defs>
     <g transform="translate(401.595 71.5575)scale(0.16 -0.16)">
      <use xlink:href="#TrebuchetMS-83"/>
      <use x="48.095703" xlink:href="#TrebuchetMS-97"/>
      <use x="100.634766" xlink:href="#TrebuchetMS-114"/>
      <use x="139.501953" xlink:href="#TrebuchetMS-97"/>
      <use x="192.041016" xlink:href="#TrebuchetMS-108"/>
      <use x="221.533203" xlink:href="#TrebuchetMS-45"/>
      <use x="258.251953" xlink:href="#TrebuchetMS-65"/>
      <use x="317.236328" xlink:href="#TrebuchetMS-108"/>
      <use x="346.728516" xlink:href="#TrebuchetMS-116"/>
      <use x="386.376953" xlink:href="#TrebuchetMS-105"/>
      <use x="414.892578" xlink:href="#TrebuchetMS-107"/>
      <use x="465.332031" xlink:href="#TrebuchetMS-97"/>
      <use x="517.871094" xlink:href="#TrebuchetMS-32"/>
      <use x="547.998047" xlink:href="#TrebuchetMS-40"/>
      <use x="584.716797" xlink:href="#TrebuchetMS-34"/>
      <use x="617.1875" xlink:href="#TrebuchetMS-115"/>
      <use x="657.666016" xlink:href="#TrebuchetMS-108"/>
      <use x="687.158203" xlink:href="#TrebuchetMS-97"/>
      <use x="739.697266" xlink:href="#TrebuchetMS-95"/>
      <use x="792.138672" xlink:href="#TrebuchetMS-117"/>
      <use x="846.777344" xlink:href="#TrebuchetMS-110"/>
      <use x="901.416016" xlink:href="#TrebuchetMS-102"/>
      <use x="938.378906" xlink:href="#TrebuchetMS-105"/>
      <use x="966.894531" xlink:href="#TrebuchetMS-108"/>
      <use x="996.386719" xlink:href="#TrebuchetMS-116"/>
      <use x="1036.035156" xlink:href="#TrebuchetMS-101"/>
      <use x="1090.576172" xlink:href="#TrebuchetMS-114"/>
      <use x="1129.443359" xlink:href="#TrebuchetMS-101"/>
      <use x="1183.984375" xlink:href="#TrebuchetMS-100"/>
      <use x="1239.697266" xlink:href="#TrebuchetMS-34"/>
      <use x="1272.167969" xlink:href="#TrebuchetMS-41"/>
     </g>
    </g>
    <g id="line2d_54">
     <path d="M 356.795 89.1 
L 388.795 89.1 
" style="fill:none;stroke:#008ab8;stroke-linecap:square;stroke-width:5;"/>
    </g>
    <g id="line2d_55"/>
    <g id="text_28">
     <!-- eNATL60-Faroe ("sossheig_bl") -->
     <defs>
      <path d="M 53.5625 -0.984375 
L 16.609375 51.3125 
L 16.609375 0 
L 7.328125 0 
L 7.328125 71.53125 
L 11.234375 71.53125 
L 47.21875 22.078125 
L 47.21875 71.53125 
L 56.5 71.53125 
L 56.5 -0.984375 
z
" id="TrebuchetMS-78"/>
      <path d="M 33.40625 62.75 
L 33.40625 0 
L 23.640625 0 
L 23.640625 62.75 
L 0.875 62.75 
L 0.875 71.53125 
L 57.171875 71.53125 
L 57.171875 62.75 
z
" id="TrebuchetMS-84"/>
      <path d="M 7.328125 0 
L 7.328125 71.53125 
L 17.09375 71.53125 
L 17.09375 8.796875 
L 49.421875 8.796875 
L 49.421875 0 
z
" id="TrebuchetMS-76"/>
      <path d="M 17.09375 62.75 
L 17.09375 42.875 
L 42.234375 42.875 
L 42.234375 34.578125 
L 17.09375 34.578125 
L 17.09375 0 
L 7.328125 0 
L 7.328125 71.53125 
L 51.515625 71.53125 
L 51.515625 62.75 
z
" id="TrebuchetMS-70"/>
      <path d="M 3.171875 26.265625 
Q 3.171875 38.375 9.6875 45.8125 
Q 16.21875 53.265625 26.859375 53.265625 
Q 38.09375 53.265625 44.28125 46.109375 
Q 50.484375 38.96875 50.484375 26.265625 
Q 50.484375 13.625 44.140625 6.3125 
Q 37.796875 -0.984375 26.859375 -0.984375 
Q 15.671875 -0.984375 9.421875 6.390625 
Q 3.171875 13.765625 3.171875 26.265625 
z
M 12.9375 26.265625 
Q 12.9375 6.59375 26.859375 6.59375 
Q 33.34375 6.59375 37.03125 11.859375 
Q 40.71875 17.140625 40.71875 26.265625 
Q 40.71875 45.703125 26.859375 45.703125 
Q 20.515625 45.703125 16.71875 40.53125 
Q 12.9375 35.359375 12.9375 26.265625 
z
" id="TrebuchetMS-111"/>
      <path d="M 14.5 3.765625 
L 11.234375 -0.984375 
L 6.59375 -0.984375 
L 6.59375 73.734375 
L 15.875 73.734375 
L 15.875 48.4375 
Q 17.1875 50.25 20.828125 51.75 
Q 24.46875 53.265625 27.984375 53.265625 
Q 38.71875 53.265625 45.375 45.84375 
Q 52.046875 38.421875 52.046875 27.09375 
Q 52.046875 14.015625 45.359375 6.515625 
Q 38.671875 -0.984375 27.25 -0.984375 
Q 23.53125 -0.984375 19.9375 0.40625 
Q 16.359375 1.8125 14.5 3.765625 
z
M 15.875 41.359375 
L 15.875 11.1875 
Q 15.875 10.40625 19.328125 8.625 
Q 22.796875 6.84375 24.609375 6.84375 
Q 34.078125 6.84375 38.171875 11.375 
Q 42.28125 15.921875 42.28125 26.609375 
Q 42.28125 35.5 37.5 40.46875 
Q 32.71875 45.453125 24.609375 45.453125 
Q 22.90625 45.453125 19.84375 43.984375 
Q 16.796875 42.53125 15.875 41.359375 
z
" id="TrebuchetMS-98"/>
     </defs>
     <g transform="translate(401.595 94.7)scale(0.16 -0.16)">
      <use xlink:href="#TrebuchetMS-101"/>
      <use x="54.541016" xlink:href="#TrebuchetMS-78"/>
      <use x="118.359375" xlink:href="#TrebuchetMS-65"/>
      <use x="177.203125" xlink:href="#TrebuchetMS-84"/>
      <use x="235.259766" xlink:href="#TrebuchetMS-76"/>
      <use x="285.894531" xlink:href="#TrebuchetMS-54"/>
      <use x="338.335938" xlink:href="#TrebuchetMS-48"/>
      <use x="390.777344" xlink:href="#TrebuchetMS-45"/>
      <use x="427.496094" xlink:href="#TrebuchetMS-70"/>
      <use x="479.986328" xlink:href="#TrebuchetMS-97"/>
      <use x="532.525391" xlink:href="#TrebuchetMS-114"/>
      <use x="571.392578" xlink:href="#TrebuchetMS-111"/>
      <use x="625.054688" xlink:href="#TrebuchetMS-101"/>
      <use x="679.595703" xlink:href="#TrebuchetMS-32"/>
      <use x="709.722656" xlink:href="#TrebuchetMS-40"/>
      <use x="746.441406" xlink:href="#TrebuchetMS-34"/>
      <use x="778.912109" xlink:href="#TrebuchetMS-115"/>
      <use x="819.390625" xlink:href="#TrebuchetMS-111"/>
      <use x="873.052734" xlink:href="#TrebuchetMS-115"/>
      <use x="913.53125" xlink:href="#TrebuchetMS-115"/>
      <use x="954.009766" xlink:href="#TrebuchetMS-104"/>
      <use x="1008.648438" xlink:href="#TrebuchetMS-101"/>
      <use x="1063.189453" xlink:href="#TrebuchetMS-105"/>
      <use x="1091.705078" xlink:href="#TrebuchetMS-103"/>
      <use x="1141.900391" xlink:href="#TrebuchetMS-95"/>
      <use x="1194.341797" xlink:href="#TrebuchetMS-98"/>
      <use x="1250.054688" xlink:href="#TrebuchetMS-108"/>
      <use x="1279.546875" xlink:href="#TrebuchetMS-34"/>
      <use x="1312.017578" xlink:href="#TrebuchetMS-41"/>
     </g>
    </g>
    <g id="line2d_56">
     <path d="M 356.795 112.2425 
L 388.795 112.2425 
" style="fill:none;stroke:#000000;stroke-dasharray:7.4,3.2;stroke-dashoffset:0;stroke-width:2;"/>
    </g>
    <g id="line2d_57"/>
    <g id="text_29">
     <!-- k$^\mathregular{-2}$ -->
     <g transform="translate(401.595 117.8425)scale(0.16 -0.16)">
      <use transform="translate(0 0.760938)" xlink:href="#TrebuchetMS-107"/>
      <use transform="translate(51.396484 39.042188)scale(0.7)" xlink:href="#TrebuchetMS-8722"/>
      <use transform="translate(88.105469 39.042188)scale(0.7)" xlink:href="#TrebuchetMS-50"/>
     </g>
    </g>
    <g id="line2d_58">
     <path d="M 356.795 135.3225 
L 388.795 135.3225 
" style="fill:none;stroke:#999999;stroke-dasharray:7.4,3.2;stroke-dashoffset:0;stroke-width:2;"/>
    </g>
    <g id="line2d_59"/>
    <g id="text_30">
     <!-- k$^\mathregular{-5}$ -->
     <g transform="translate(401.595 140.9225)scale(0.16 -0.16)">
      <use transform="translate(0 0.439063)" xlink:href="#TrebuchetMS-107"/>
      <use transform="translate(51.396484 38.720313)scale(0.7)" xlink:href="#TrebuchetMS-8722"/>
      <use transform="translate(88.105469 38.720313)scale(0.7)" xlink:href="#TrebuchetMS-53"/>
     </g>
    </g>
   </g>
   <g id="line2d_60">
    <path clip-path="url(#pcc914ff9ce)" d="M 189.473105 212.124838 
L 271.565038 211.973646 
L 319.585741 211.561521 
L 353.656971 224.499353 
L 380.084671 230.429244 
L 401.677674 248.974734 
L 419.934297 247.873727 
L 435.748904 250.172809 
L 449.698376 262.392206 
L 462.176604 270.326988 
L 473.464534 276.934427 
L 483.769607 276.404718 
L 493.249355 282.387534 
L 502.02623 277.34349 
L 510.197306 273.43218 
L 517.840837 279.807183 
L 525.020831 283.810327 
L 531.790309 290.871681 
L 538.193686 284.187471 
L 544.268537 272.674536 
L 550.046933 281.747662 
L 555.556467 288.92092 
L 560.82105 278.380165 
L 565.86154 276.676078 
L 570.696236 270.607315 
L 575.341288 279.401426 
L 579.811011 276.158738 
L 584.118163 276.366731 
L 588.274156 282.819558 
" style="fill:none;stroke:#ffed00;stroke-linecap:square;stroke-width:4;"/>
   </g>
  </g>
  <g id="axes_2">
   <g id="matplotlib.axis_3">
    <g id="xtick_14">
     <g id="line2d_61">
      <defs>
       <path d="M 0 0 
L 0 -3.5 
" id="m7730768b64" style="stroke:#000000;stroke-width:0.8;"/>
      </defs>
      <g>
       <use style="stroke:#000000;stroke-width:0.8;" x="86.393003" xlink:href="#m7730768b64" y="45.36"/>
      </g>
     </g>
     <g id="text_31">
      <!-- $\mathregular{10^{-3}}$ -->
      <g style="fill:#4c4c4c;" transform="translate(71.833003 35.0775)scale(0.16 -0.16)">
       <use transform="translate(0 0.434375)" xlink:href="#TrebuchetMS-49"/>
       <use transform="translate(52.441406 0.434375)" xlink:href="#TrebuchetMS-48"/>
       <use transform="translate(105.798008 37.042188)scale(0.7)" xlink:href="#TrebuchetMS-8722"/>
       <use transform="translate(142.506992 37.042188)scale(0.7)" xlink:href="#TrebuchetMS-51"/>
      </g>
     </g>
    </g>
    <g id="xtick_15">
     <g id="line2d_62">
      <g>
       <use style="stroke:#000000;stroke-width:0.8;" x="359.096501" xlink:href="#m7730768b64" y="45.36"/>
      </g>
     </g>
     <g id="text_32">
      <!-- $\mathregular{10^{-2}}$ -->
      <g style="fill:#4c4c4c;" transform="translate(344.536501 35.0775)scale(0.16 -0.16)">
       <use transform="translate(0 0.434375)" xlink:href="#TrebuchetMS-49"/>
       <use transform="translate(52.441406 0.434375)" xlink:href="#TrebuchetMS-48"/>
       <use transform="translate(105.798008 37.042188)scale(0.7)" xlink:href="#TrebuchetMS-8722"/>
       <use transform="translate(142.506992 37.042188)scale(0.7)" xlink:href="#TrebuchetMS-50"/>
      </g>
     </g>
    </g>
    <g id="xtick_16">
     <g id="line2d_63">
      <g>
       <use style="stroke:#000000;stroke-width:0.8;" x="631.8" xlink:href="#m7730768b64" y="45.36"/>
      </g>
     </g>
     <g id="text_33">
      <!-- $\mathregular{10^{-1}}$ -->
      <g style="fill:#4c4c4c;" transform="translate(617.24 35.0775)scale(0.16 -0.16)">
       <use transform="translate(0 0.1125)" xlink:href="#TrebuchetMS-49"/>
       <use transform="translate(52.441406 0.1125)" xlink:href="#TrebuchetMS-48"/>
       <use transform="translate(105.798008 36.720313)scale(0.7)" xlink:href="#TrebuchetMS-8722"/>
       <use transform="translate(142.506992 36.720313)scale(0.7)" xlink:href="#TrebuchetMS-49"/>
      </g>
     </g>
    </g>
    <g id="text_34">
     <!-- Wave-number [cy/km] -->
     <g style="fill:#4c4c4c;" transform="translate(267.69 19.28)scale(0.16 -0.16)">
      <use xlink:href="#TrebuchetMS-87"/>
      <use x="85.126953" xlink:href="#TrebuchetMS-97"/>
      <use x="137.666016" xlink:href="#TrebuchetMS-118"/>
      <use x="186.640625" xlink:href="#TrebuchetMS-101"/>
      <use x="241.181641" xlink:href="#TrebuchetMS-45"/>
      <use x="277.900391" xlink:href="#TrebuchetMS-110"/>
      <use x="332.539062" xlink:href="#TrebuchetMS-117"/>
      <use x="387.177734" xlink:href="#TrebuchetMS-109"/>
      <use x="470.185547" xlink:href="#TrebuchetMS-98"/>
      <use x="525.898438" xlink:href="#TrebuchetMS-101"/>
      <use x="580.439453" xlink:href="#TrebuchetMS-114"/>
      <use x="619.306641" xlink:href="#TrebuchetMS-32"/>
      <use x="649.433594" xlink:href="#TrebuchetMS-91"/>
      <use x="686.152344" xlink:href="#TrebuchetMS-99"/>
      <use x="735.664062" xlink:href="#TrebuchetMS-121"/>
      <use x="784.980469" xlink:href="#TrebuchetMS-47"/>
      <use x="837.421875" xlink:href="#TrebuchetMS-107"/>
      <use x="887.861328" xlink:href="#TrebuchetMS-109"/>
      <use x="970.869141" xlink:href="#TrebuchetMS-93"/>
     </g>
    </g>
   </g>
   <g id="patch_9">
    <path d="M 64.8 602.64 
L 64.8 45.36 
" style="fill:none;stroke:#000000;stroke-linecap:square;stroke-linejoin:miter;stroke-width:0.8;"/>
   </g>
   <g id="patch_10">
    <path d="M 631.8 602.64 
L 631.8 45.36 
" style="fill:none;stroke:#000000;stroke-linecap:square;stroke-linejoin:miter;stroke-width:0.8;"/>
   </g>
   <g id="patch_11">
    <path d="M 64.8 602.64 
L 631.8 602.64 
" style="fill:none;stroke:#000000;stroke-linecap:square;stroke-linejoin:miter;stroke-width:0.8;"/>
   </g>
   <g id="patch_12">
    <path d="M 64.8 45.36 
L 631.8 45.36 
" style="fill:none;stroke:#000000;stroke-linecap:square;stroke-linejoin:miter;stroke-width:0.8;"/>
   </g>
   <g id="text_35">
    <g id="patch_13">
     <path d="M 100.24 481.4528 
L 256.08 481.4528 
L 256.08 415.9593 
L 100.24 415.9593 
z
" style="fill:#e6e6e6;stroke:#000000;stroke-linejoin:miter;"/>
    </g>
    <!-- 26 segments -->
    <defs>
     <path d="M 42 46.09375 
Q 42 42.90625 40.75 39.90625 
Q 39.5 36.90625 37.453125 34 
Q 35.40625 31.09375 32.796875 28.296875 
Q 30.203125 25.5 27.5 22.796875 
Q 26 21.296875 24 19.1875 
Q 22 17.09375 20.203125 14.890625 
Q 18.40625 12.703125 17.203125 10.59375 
Q 16 8.5 16 7 
L 44.5 7 
L 44.5 0 
L 7 0 
Q 6.90625 0.5 6.90625 1.046875 
Q 6.90625 1.59375 6.90625 2.09375 
Q 6.90625 6.296875 8.296875 9.890625 
Q 9.703125 13.5 11.890625 16.703125 
Q 14.09375 19.90625 16.84375 22.75 
Q 19.59375 25.59375 22.296875 28.296875 
Q 24.5 30.5 26.546875 32.59375 
Q 28.59375 34.703125 30.140625 36.796875 
Q 31.703125 38.90625 32.640625 41.15625 
Q 33.59375 43.40625 33.59375 45.796875 
Q 33.59375 48.5 32.75 50.390625 
Q 31.90625 52.296875 30.453125 53.546875 
Q 29 54.796875 27.09375 55.390625 
Q 25.203125 56 23 56 
Q 20.40625 56 18.25 55.296875 
Q 16.09375 54.59375 14.4375 53.59375 
Q 12.796875 52.59375 11.59375 51.640625 
Q 10.40625 50.703125 9.796875 50.09375 
L 5.703125 55.90625 
Q 6.5 56.796875 8.09375 58.09375 
Q 9.703125 59.40625 11.953125 60.546875 
Q 14.203125 61.703125 17 62.5 
Q 19.796875 63.296875 23 63.296875 
Q 32.703125 63.296875 37.34375 58.84375 
Q 42 54.40625 42 46.09375 
z
" id="UbuntuMono-Regular-50"/>
     <path d="M 5.40625 24.796875 
Q 5.40625 33.796875 7.84375 40.75 
Q 10.296875 47.703125 14.84375 52.390625 
Q 19.40625 57.09375 25.90625 59.59375 
Q 32.40625 62.09375 40.59375 62.203125 
L 41.296875 55.203125 
Q 36 55.09375 31.640625 54.046875 
Q 27.296875 53 23.890625 50.640625 
Q 20.5 48.296875 18.203125 44.59375 
Q 15.90625 40.90625 14.703125 35.5 
Q 17.09375 36.59375 19.9375 37.296875 
Q 22.796875 38 26 38 
Q 31.203125 38 34.84375 36.390625 
Q 38.5 34.796875 40.703125 32.140625 
Q 42.90625 29.5 43.90625 26 
Q 44.90625 22.5 44.90625 18.796875 
Q 44.90625 15.40625 43.796875 11.84375 
Q 42.703125 8.296875 40.390625 5.34375 
Q 38.09375 2.40625 34.5 0.546875 
Q 30.90625 -1.296875 25.90625 -1.296875 
Q 15.59375 -1.296875 10.5 5.59375 
Q 5.40625 12.5 5.40625 24.796875 
z
M 25.09375 31.203125 
Q 21.90625 31.203125 19.25 30.59375 
Q 16.59375 30 13.90625 28.796875 
Q 13.796875 27.796875 13.796875 26.84375 
Q 13.796875 25.90625 13.796875 24.796875 
Q 13.796875 20.90625 14.34375 17.453125 
Q 14.90625 14 16.25 11.34375 
Q 17.59375 8.703125 19.890625 7.140625 
Q 22.203125 5.59375 25.796875 5.59375 
Q 28.796875 5.59375 30.796875 6.84375 
Q 32.796875 8.09375 34.09375 10 
Q 35.40625 11.90625 35.953125 14.25 
Q 36.5 16.59375 36.5 18.703125 
Q 36.5 24.796875 33.75 28 
Q 31 31.203125 25.09375 31.203125 
z
" id="UbuntuMono-Regular-54"/>
     <path id="UbuntuMono-Regular-32"/>
     <path d="M 35.09375 11.59375 
Q 35.09375 14.09375 33.046875 15.6875 
Q 31 17.296875 27.953125 18.5 
Q 24.90625 19.703125 21.296875 20.84375 
Q 17.703125 22 14.640625 23.703125 
Q 11.59375 25.40625 9.546875 27.90625 
Q 7.5 30.40625 7.5 34.40625 
Q 7.5 40 12.046875 43.75 
Q 16.59375 47.5 26.296875 47.5 
Q 30.09375 47.5 34.140625 46.953125 
Q 38.203125 46.40625 41.09375 45.5 
L 39.59375 38.09375 
Q 38.796875 38.5 37.390625 38.953125 
Q 36 39.40625 34.203125 39.75 
Q 32.40625 40.09375 30.34375 40.296875 
Q 28.296875 40.5 26.40625 40.5 
Q 15.59375 40.5 15.59375 34.59375 
Q 15.59375 32.5 17.640625 31.046875 
Q 19.703125 29.59375 22.796875 28.390625 
Q 25.90625 27.203125 29.5 25.953125 
Q 33.09375 24.703125 36.1875 22.890625 
Q 39.296875 21.09375 41.34375 18.546875 
Q 43.40625 16 43.40625 12.09375 
Q 43.40625 5.796875 38.5 2.34375 
Q 33.59375 -1.09375 23 -1.09375 
Q 18.203125 -1.09375 14.203125 -0.296875 
Q 10.203125 0.5 6.59375 2.09375 
L 8.203125 9.59375 
Q 11.703125 8 15.546875 6.953125 
Q 19.40625 5.90625 23.796875 5.90625 
Q 35.09375 5.90625 35.09375 11.59375 
z
" id="UbuntuMono-Regular-115"/>
     <path d="M 25.90625 47.5 
Q 35.296875 47.5 40.390625 41.640625 
Q 45.5 35.796875 45.5 23.90625 
L 45.5 21 
L 12.296875 21 
Q 12.796875 13.796875 17.046875 10.046875 
Q 21.296875 6.296875 29 6.296875 
Q 33.40625 6.296875 36.5 7 
Q 39.59375 7.703125 41.203125 8.5 
L 42.296875 1.5 
Q 40.796875 0.703125 36.890625 -0.1875 
Q 33 -1.09375 28.09375 -1.09375 
Q 22.09375 -1.09375 17.546875 0.75 
Q 13 2.59375 10 5.796875 
Q 7 9 5.5 13.453125 
Q 4 17.90625 4 23.09375 
Q 4 29.296875 5.890625 33.890625 
Q 7.796875 38.5 10.890625 41.5 
Q 14 44.5 17.890625 46 
Q 21.796875 47.5 25.90625 47.5 
z
M 37.09375 27.703125 
Q 37.09375 33.59375 34 37.046875 
Q 30.90625 40.5 25.796875 40.5 
Q 22.90625 40.5 20.546875 39.390625 
Q 18.203125 38.296875 16.5 36.5 
Q 14.796875 34.703125 13.796875 32.390625 
Q 12.796875 30.09375 12.5 27.703125 
z
" id="UbuntuMono-Regular-101"/>
     <path d="M 34.59375 4.296875 
Q 33.203125 3.5 30.296875 2.59375 
Q 27.40625 1.703125 23.59375 1.703125 
Q 19.5 1.703125 15.953125 3.046875 
Q 12.40625 4.40625 9.75 7.15625 
Q 7.09375 9.90625 5.546875 14.15625 
Q 4 18.40625 4 24.203125 
Q 4 29.296875 5.453125 33.546875 
Q 6.90625 37.796875 9.65625 40.890625 
Q 12.40625 44 16.40625 45.75 
Q 20.40625 47.5 25.5 47.5 
Q 31.5 47.5 35.75 46.640625 
Q 40 45.796875 42.90625 45 
L 42.90625 3.59375 
Q 42.90625 -7.203125 37.453125 -12 
Q 32 -16.796875 21 -16.796875 
Q 16.5 -16.796875 12.84375 -16.09375 
Q 9.203125 -15.40625 6.40625 -14.40625 
L 7.90625 -7.09375 
Q 10.5 -8.203125 13.84375 -8.890625 
Q 17.203125 -9.59375 21.203125 -9.59375 
Q 28.40625 -9.59375 31.5 -6.6875 
Q 34.59375 -3.796875 34.59375 2.703125 
z
M 34.59375 39.09375 
Q 33.40625 39.5 31.296875 39.84375 
Q 29.203125 40.203125 25.59375 40.203125 
Q 19.203125 40.203125 15.84375 35.796875 
Q 12.5 31.40625 12.5 24.09375 
Q 12.5 20.09375 13.453125 17.25 
Q 14.40625 14.40625 16.046875 12.546875 
Q 17.703125 10.703125 19.796875 9.84375 
Q 21.90625 9 24.296875 9 
Q 27.40625 9 30.15625 9.890625 
Q 32.90625 10.796875 34.59375 12 
z
" id="UbuntuMono-Regular-103"/>
     <path d="M 4.09375 45.09375 
Q 10.09375 47.40625 15.40625 47.40625 
Q 18.296875 47.40625 20.84375 46.546875 
Q 23.40625 45.703125 25.203125 43.90625 
Q 29.5 47.40625 34.40625 47.40625 
Q 36.796875 47.40625 38.9375 46.5 
Q 41.09375 45.59375 42.75 43.796875 
Q 44.40625 42 45.40625 39.296875 
Q 46.40625 36.59375 46.40625 33 
L 46.40625 0 
L 38.90625 0 
L 38.90625 33.203125 
Q 38.90625 36.796875 37.296875 38.6875 
Q 35.703125 40.59375 33.296875 40.59375 
Q 32.09375 40.59375 30.796875 40 
Q 29.5 39.40625 28.40625 38.09375 
Q 29 35.796875 29 33 
L 29 17.90625 
L 21.5 17.90625 
L 21.5 33.09375 
Q 21.5 36.59375 20.390625 38.59375 
Q 19.296875 40.59375 16.09375 40.59375 
Q 14.09375 40.59375 11.59375 39.703125 
L 11.59375 0 
L 4.09375 0 
z
" id="UbuntuMono-Regular-109"/>
     <path d="M 7.09375 45.09375 
Q 11.59375 46.203125 16.046875 46.796875 
Q 20.5 47.40625 24.40625 47.40625 
Q 33.703125 47.40625 38.453125 42.59375 
Q 43.203125 37.796875 43.203125 27.203125 
L 43.203125 0 
L 35 0 
L 35 25.703125 
Q 35 30.203125 34.203125 33 
Q 33.40625 35.796875 31.953125 37.34375 
Q 30.5 38.90625 28.453125 39.5 
Q 26.40625 40.09375 24 40.09375 
Q 22 40.09375 19.75 39.84375 
Q 17.5 39.59375 15.40625 39.203125 
L 15.40625 0 
L 7.09375 0 
z
" id="UbuntuMono-Regular-110"/>
     <path d="M 24.296875 46.40625 
L 43.90625 46.40625 
L 43.90625 39.5 
L 24.296875 39.5 
L 24.296875 17.90625 
Q 24.296875 14.40625 24.796875 12.203125 
Q 25.296875 10 26.4375 8.640625 
Q 27.59375 7.296875 29.390625 6.796875 
Q 31.203125 6.296875 33.796875 6.296875 
Q 37.40625 6.296875 39.59375 6.890625 
Q 41.796875 7.5 43.796875 8.5 
L 45 1.5 
Q 43.59375 0.90625 40.546875 -0.09375 
Q 37.5 -1.09375 33 -1.09375 
Q 27.796875 -1.09375 24.5 0.09375 
Q 21.203125 1.296875 19.34375 3.6875 
Q 17.5 6.09375 16.796875 9.640625 
Q 16.09375 13.203125 16.09375 17.90625 
L 16.09375 39.5 
L 6.296875 39.5 
L 6.296875 46.40625 
L 16.09375 46.40625 
L 16.09375 59.40625 
L 24.296875 60.796875 
z
" id="UbuntuMono-Regular-116"/>
    </defs>
    <g transform="translate(110.16 436.8868)scale(0.16 -0.16)">
     <use xlink:href="#UbuntuMono-Regular-50"/>
     <use x="49.999985" xlink:href="#UbuntuMono-Regular-54"/>
     <use x="99.999969" xlink:href="#UbuntuMono-Regular-32"/>
     <use x="149.999954" xlink:href="#UbuntuMono-Regular-115"/>
     <use x="199.999939" xlink:href="#UbuntuMono-Regular-101"/>
     <use x="249.999924" xlink:href="#UbuntuMono-Regular-103"/>
     <use x="299.999908" xlink:href="#UbuntuMono-Regular-109"/>
     <use x="349.999893" xlink:href="#UbuntuMono-Regular-101"/>
     <use x="399.999878" xlink:href="#UbuntuMono-Regular-110"/>
     <use x="449.999863" xlink:href="#UbuntuMono-Regular-116"/>
     <use x="499.999847" xlink:href="#UbuntuMono-Regular-115"/>
    </g>
    <!-- 60 points/segment -->
    <defs>
     <path d="M 30.796875 32.09375 
Q 30.796875 29.5 29.25 27.59375 
Q 27.703125 25.703125 25.203125 25.703125 
Q 22.59375 25.703125 21 27.59375 
Q 19.40625 29.5 19.40625 32.09375 
Q 19.40625 34.703125 21 36.703125 
Q 22.59375 38.703125 25.203125 38.703125 
Q 27.703125 38.703125 29.25 36.703125 
Q 30.796875 34.703125 30.796875 32.09375 
z
M 4.59375 31 
Q 4.59375 46.59375 9.9375 54.9375 
Q 15.296875 63.296875 25 63.296875 
Q 34.796875 63.296875 40.09375 54.9375 
Q 45.40625 46.59375 45.40625 31 
Q 45.40625 15.40625 40.09375 7.046875 
Q 34.796875 -1.296875 25 -1.296875 
Q 15.296875 -1.296875 9.9375 7.046875 
Q 4.59375 15.40625 4.59375 31 
z
M 37 31 
Q 37 36.09375 36.390625 40.640625 
Q 35.796875 45.203125 34.390625 48.59375 
Q 33 52 30.703125 54 
Q 28.40625 56 25 56 
Q 21.59375 56 19.296875 54 
Q 17 52 15.59375 48.59375 
Q 14.203125 45.203125 13.59375 40.640625 
Q 13 36.09375 13 31 
Q 13 25.90625 13.59375 21.34375 
Q 14.203125 16.796875 15.59375 13.390625 
Q 17 10 19.296875 8 
Q 21.59375 6 25 6 
Q 28.40625 6 30.703125 8 
Q 33 10 34.390625 13.390625 
Q 35.796875 16.796875 36.390625 21.34375 
Q 37 25.90625 37 31 
z
" id="UbuntuMono-Regular-48"/>
     <path d="M 37.5 23.09375 
Q 37.5 31.203125 33.703125 35.640625 
Q 29.90625 40.09375 23.796875 40.09375 
Q 20.40625 40.09375 18.453125 39.796875 
Q 16.5 39.5 15.40625 39.09375 
L 15.40625 9.796875 
Q 16.796875 8.5 19.5 7.390625 
Q 22.203125 6.296875 25.09375 6.296875 
Q 28.40625 6.296875 30.75 7.59375 
Q 33.09375 8.90625 34.59375 11.15625 
Q 36.09375 13.40625 36.796875 16.453125 
Q 37.5 19.5 37.5 23.09375 
z
M 46 23.09375 
Q 46 17.796875 44.640625 13.34375 
Q 43.296875 8.90625 40.75 5.703125 
Q 38.203125 2.5 34.5 0.703125 
Q 30.796875 -1.09375 26.09375 -1.09375 
Q 22.40625 -1.09375 19.59375 -0.1875 
Q 16.796875 0.703125 15.40625 1.796875 
L 15.40625 -16.5 
L 7.09375 -16.5 
L 7.09375 45 
Q 9.796875 45.796875 14.046875 46.59375 
Q 18.296875 47.40625 23.796875 47.40625 
Q 28.796875 47.40625 32.890625 45.703125 
Q 37 44 39.890625 40.84375 
Q 42.796875 37.703125 44.390625 33.203125 
Q 46 28.703125 46 23.09375 
z
" id="UbuntuMono-Regular-112"/>
     <path d="M 46 23.203125 
Q 46 17.703125 44.453125 13.25 
Q 42.90625 8.796875 40.09375 5.59375 
Q 37.296875 2.40625 33.390625 0.65625 
Q 29.5 -1.09375 24.90625 -1.09375 
Q 20.40625 -1.09375 16.546875 0.65625 
Q 12.703125 2.40625 9.890625 5.59375 
Q 7.09375 8.796875 5.546875 13.25 
Q 4 17.703125 4 23.203125 
Q 4 28.703125 5.546875 33.203125 
Q 7.09375 37.703125 9.890625 40.84375 
Q 12.703125 44 16.546875 45.75 
Q 20.40625 47.5 24.90625 47.5 
Q 29.5 47.5 33.390625 45.75 
Q 37.296875 44 40.09375 40.84375 
Q 42.90625 37.703125 44.453125 33.203125 
Q 46 28.703125 46 23.203125 
z
M 37.5 23.203125 
Q 37.5 31.09375 34.09375 35.640625 
Q 30.703125 40.203125 24.90625 40.203125 
Q 19.203125 40.203125 15.84375 35.640625 
Q 12.5 31.09375 12.5 23.203125 
Q 12.5 15.40625 15.84375 10.84375 
Q 19.203125 6.296875 24.90625 6.296875 
Q 30.703125 6.296875 34.09375 10.84375 
Q 37.5 15.40625 37.5 23.203125 
z
" id="UbuntuMono-Regular-111"/>
     <path d="M 20.90625 53.59375 
Q 18.296875 53.59375 16.390625 55.390625 
Q 14.5 57.203125 14.5 60.296875 
Q 14.5 63.40625 16.390625 65.203125 
Q 18.296875 67 20.90625 67 
Q 23.59375 67 25.4375 65.203125 
Q 27.296875 63.40625 27.296875 60.296875 
Q 27.296875 57.203125 25.4375 55.390625 
Q 23.59375 53.59375 20.90625 53.59375 
z
M 18.796875 39.5 
L 5.40625 39.5 
L 5.40625 46.40625 
L 27 46.40625 
L 27 17.90625 
Q 27 11 28.890625 8.640625 
Q 30.796875 6.296875 34.59375 6.296875 
Q 37.5 6.296875 39.953125 7 
Q 42.40625 7.703125 43.796875 8.5 
L 45 1.5 
Q 44.40625 1.203125 43.296875 0.75 
Q 42.203125 0.296875 40.75 -0.09375 
Q 39.296875 -0.5 37.546875 -0.796875 
Q 35.796875 -1.09375 33.90625 -1.09375 
Q 29.5 -1.09375 26.59375 0.09375 
Q 23.703125 1.296875 21.953125 3.6875 
Q 20.203125 6.09375 19.5 9.640625 
Q 18.796875 13.203125 18.796875 17.90625 
z
" id="UbuntuMono-Regular-105"/>
     <path d="M 15.40625 -16.5 
L 6.90625 -16.5 
L 34.796875 69.90625 
L 43.09375 69.90625 
z
" id="UbuntuMono-Regular-47"/>
    </defs>
    <g transform="translate(110.16 452.9963)scale(0.16 -0.16)">
     <use xlink:href="#UbuntuMono-Regular-54"/>
     <use x="49.999985" xlink:href="#UbuntuMono-Regular-48"/>
     <use x="99.999969" xlink:href="#UbuntuMono-Regular-32"/>
     <use x="149.999954" xlink:href="#UbuntuMono-Regular-112"/>
     <use x="199.999939" xlink:href="#UbuntuMono-Regular-111"/>
     <use x="249.999924" xlink:href="#UbuntuMono-Regular-105"/>
     <use x="299.999908" xlink:href="#UbuntuMono-Regular-110"/>
     <use x="349.999893" xlink:href="#UbuntuMono-Regular-116"/>
     <use x="399.999878" xlink:href="#UbuntuMono-Regular-115"/>
     <use x="449.999863" xlink:href="#UbuntuMono-Regular-47"/>
     <use x="499.999847" xlink:href="#UbuntuMono-Regular-115"/>
     <use x="549.999832" xlink:href="#UbuntuMono-Regular-101"/>
     <use x="599.999817" xlink:href="#UbuntuMono-Regular-103"/>
     <use x="649.999802" xlink:href="#UbuntuMono-Regular-109"/>
     <use x="699.999786" xlink:href="#UbuntuMono-Regular-101"/>
     <use x="749.999771" xlink:href="#UbuntuMono-Regular-110"/>
     <use x="799.999756" xlink:href="#UbuntuMono-Regular-116"/>
    </g>
    <!-- $\Delta$d sat.: 7.0 km -->
    <defs>
     <path d="M 34.1875 63.1875 
L 14.15625 8.203125 
L 54.25 8.203125 
z
M 0.78125 0 
L 28.609375 72.90625 
L 39.796875 72.90625 
L 67.578125 0 
z
" id="DejaVuSans-916"/>
     <path d="M 34.59375 36.59375 
Q 33.203125 37.90625 30.5 39.046875 
Q 27.796875 40.203125 24.90625 40.203125 
Q 21.59375 40.203125 19.25 38.890625 
Q 16.90625 37.59375 15.40625 35.34375 
Q 13.90625 33.09375 13.203125 29.9375 
Q 12.5 26.796875 12.5 23.203125 
Q 12.5 15.09375 16.296875 10.6875 
Q 20.09375 6.296875 26.203125 6.296875 
Q 29.296875 6.296875 31.4375 6.59375 
Q 33.59375 6.90625 34.59375 7.203125 
z
M 34.59375 67.90625 
L 42.90625 69.296875 
L 42.90625 1.296875 
Q 40.203125 0.5 36 -0.296875 
Q 31.796875 -1.09375 26.203125 -1.09375 
Q 21.203125 -1.09375 17.09375 0.59375 
Q 13 2.296875 10.09375 5.4375 
Q 7.203125 8.59375 5.59375 13.09375 
Q 4 17.59375 4 23.203125 
Q 4 28.59375 5.34375 33.046875 
Q 6.703125 37.5 9.296875 40.703125 
Q 11.90625 43.90625 15.546875 45.703125 
Q 19.203125 47.5 23.90625 47.5 
Q 27.59375 47.5 30.390625 46.59375 
Q 33.203125 45.703125 34.59375 44.703125 
z
" id="UbuntuMono-Regular-100"/>
     <path d="M 25.5 5.90625 
Q 28.59375 5.90625 31.046875 6.09375 
Q 33.5 6.296875 35.09375 6.59375 
L 35.09375 20.40625 
Q 33.5 20.90625 31.25 21.203125 
Q 29 21.5 26.5 21.5 
Q 24.203125 21.5 22 21.140625 
Q 19.796875 20.796875 18.09375 19.890625 
Q 16.40625 19 15.296875 17.546875 
Q 14.203125 16.09375 14.203125 13.90625 
Q 14.203125 9.40625 17.25 7.65625 
Q 20.296875 5.90625 25.5 5.90625 
z
M 24.703125 47.5 
Q 29.90625 47.5 33.453125 46.203125 
Q 37 44.90625 39.203125 42.59375 
Q 41.40625 40.296875 42.296875 37 
Q 43.203125 33.703125 43.203125 29.796875 
L 43.203125 0.796875 
Q 40.296875 0.296875 35.546875 -0.390625 
Q 30.796875 -1.09375 25.796875 -1.09375 
Q 22 -1.09375 18.390625 -0.4375 
Q 14.796875 0.203125 12 1.84375 
Q 9.203125 3.5 7.5 6.390625 
Q 5.796875 9.296875 5.796875 13.796875 
Q 5.796875 17.796875 7.546875 20.546875 
Q 9.296875 23.296875 12.046875 25 
Q 14.796875 26.703125 18.34375 27.453125 
Q 21.90625 28.203125 25.5 28.203125 
Q 30.40625 28.203125 35.09375 27.09375 
L 35.09375 29.40625 
Q 35.09375 31.5 34.640625 33.453125 
Q 34.203125 35.40625 32.953125 37 
Q 31.703125 38.59375 29.546875 39.546875 
Q 27.40625 40.5 24 40.5 
Q 19.703125 40.5 16.5 39.890625 
Q 13.296875 39.296875 11.59375 38.703125 
L 10.59375 45.5 
Q 12.296875 46.296875 16.25 46.890625 
Q 20.203125 47.5 24.703125 47.5 
z
" id="UbuntuMono-Regular-97"/>
     <path d="M 32.40625 6.40625 
Q 32.40625 3.40625 30.40625 1.09375 
Q 28.40625 -1.203125 25.09375 -1.203125 
Q 21.703125 -1.203125 19.703125 1.09375 
Q 17.703125 3.40625 17.703125 6.40625 
Q 17.703125 9.5 19.703125 11.796875 
Q 21.703125 14.09375 25.09375 14.09375 
Q 28.40625 14.09375 30.40625 11.796875 
Q 32.40625 9.5 32.40625 6.40625 
z
" id="UbuntuMono-Regular-46"/>
     <path d="M 32.40625 6.40625 
Q 32.40625 3.40625 30.40625 1.09375 
Q 28.40625 -1.203125 25.09375 -1.203125 
Q 21.703125 -1.203125 19.703125 1.09375 
Q 17.703125 3.40625 17.703125 6.40625 
Q 17.703125 9.5 19.703125 11.796875 
Q 21.703125 14.09375 25.09375 14.09375 
Q 28.40625 14.09375 30.40625 11.796875 
Q 32.40625 9.5 32.40625 6.40625 
z
M 32.40625 38.703125 
Q 32.40625 35.703125 30.40625 33.390625 
Q 28.40625 31.09375 25.09375 31.09375 
Q 21.703125 31.09375 19.703125 33.390625 
Q 17.703125 35.703125 17.703125 38.703125 
Q 17.703125 41.796875 19.703125 44.09375 
Q 21.703125 46.390625 25.09375 46.390625 
Q 28.40625 46.390625 30.40625 44.09375 
Q 32.40625 41.796875 32.40625 38.703125 
z
" id="UbuntuMono-Regular-58"/>
     <path d="M 15.5 0 
Q 16 7.09375 18.046875 15.046875 
Q 20.09375 23 23 30.453125 
Q 25.90625 37.90625 29.40625 44.25 
Q 32.90625 50.59375 36.296875 54.703125 
L 6.296875 54.703125 
L 6.296875 61.90625 
L 45.5 61.90625 
L 45.5 55 
Q 42.5 51.5 39 45.59375 
Q 35.5 39.703125 32.34375 32.34375 
Q 29.203125 25 26.890625 16.640625 
Q 24.59375 8.296875 24 0 
z
" id="UbuntuMono-Regular-55"/>
     <path d="M 23.796875 25.5 
Q 26.5 23.5 29.890625 20.453125 
Q 33.296875 17.40625 36.640625 13.90625 
Q 40 10.40625 43 6.75 
Q 46 3.09375 47.796875 0 
L 38 0 
Q 36.09375 3.09375 33.296875 6.34375 
Q 30.5 9.59375 27.34375 12.59375 
Q 24.203125 15.59375 21.046875 18.09375 
Q 17.90625 20.59375 15.40625 22.296875 
L 15.40625 0 
L 7.09375 0 
L 7.09375 67.90625 
L 15.40625 69.296875 
L 15.40625 27 
Q 20.90625 31.796875 26.40625 36.546875 
Q 31.90625 41.296875 36.296875 46.40625 
L 46 46.40625 
Q 41.703125 41.296875 35.640625 35.890625 
Q 29.59375 30.5 23.796875 25.5 
z
" id="UbuntuMono-Regular-107"/>
    </defs>
    <g transform="translate(110.16 468.8928)scale(0.16 -0.16)">
     <use transform="translate(0 0.09375)" xlink:href="#DejaVuSans-916"/>
     <use transform="translate(68.408203 0.09375)" xlink:href="#UbuntuMono-Regular-100"/>
     <use transform="translate(118.408188 0.09375)" xlink:href="#UbuntuMono-Regular-32"/>
     <use transform="translate(168.408173 0.09375)" xlink:href="#UbuntuMono-Regular-115"/>
     <use transform="translate(218.408157 0.09375)" xlink:href="#UbuntuMono-Regular-97"/>
     <use transform="translate(268.408142 0.09375)" xlink:href="#UbuntuMono-Regular-116"/>
     <use transform="translate(318.408127 0.09375)" xlink:href="#UbuntuMono-Regular-46"/>
     <use transform="translate(368.408112 0.09375)" xlink:href="#UbuntuMono-Regular-58"/>
     <use transform="translate(418.408096 0.09375)" xlink:href="#UbuntuMono-Regular-32"/>
     <use transform="translate(468.408081 0.09375)" xlink:href="#UbuntuMono-Regular-55"/>
     <use transform="translate(518.408066 0.09375)" xlink:href="#UbuntuMono-Regular-46"/>
     <use transform="translate(568.408051 0.09375)" xlink:href="#UbuntuMono-Regular-48"/>
     <use transform="translate(618.408035 0.09375)" xlink:href="#UbuntuMono-Regular-32"/>
     <use transform="translate(668.40802 0.09375)" xlink:href="#UbuntuMono-Regular-107"/>
     <use transform="translate(718.408005 0.09375)" xlink:href="#UbuntuMono-Regular-109"/>
    </g>
   </g>
  </g>
 </g>
 <defs>
  <clipPath id="pcc914ff9ce">
   <rect height="557.28" width="567" x="64.8" y="45.36"/>
  </clipPath>
 </defs>
</svg>
