<?xml version="1.0" encoding="utf-8" standalone="no"?>
<!DOCTYPE svg PUBLIC "-//W3C//DTD SVG 1.1//EN"
  "http://www.w3.org/Graphics/SVG/1.1/DTD/svg11.dtd">
<!-- Created with matplotlib (https://matplotlib.org/) -->
<svg height="648pt" version="1.1" viewBox="0 0 648 648" width="648pt" xmlns="http://www.w3.org/2000/svg" xmlns:xlink="http://www.w3.org/1999/xlink">
 <defs>
  <style type="text/css">
*{stroke-linecap:butt;stroke-linejoin:round;}
  </style>
 </defs>
 <g id="figure_1">
  <g id="patch_1">
   <path d="M 0 648 
L 648 648 
L 648 0 
L 0 0 
z
" style="fill:#ffffff;"/>
  </g>
  <g id="axes_1">
   <g id="patch_2">
    <path d="M 64.8 602.64 
L 631.8 602.64 
L 631.8 45.36 
L 64.8 45.36 
z
" style="fill:#ffffff;"/>
   </g>
   <g id="matplotlib.axis_1">
    <g id="xtick_1">
     <g id="line2d_1">
      <path clip-path="url(#pe00d7bb6f1)" d="M 86.393003 602.64 
L 86.393003 45.36 
" style="fill:none;stroke:#000000;stroke-linecap:square;stroke-width:0.2;"/>
     </g>
     <g id="line2d_2">
      <defs>
       <path d="M 0 0 
L 0 3.5 
" id="m8b57f9aa97" style="stroke:#000000;stroke-width:0.8;"/>
      </defs>
      <g>
       <use style="stroke:#000000;stroke-width:0.8;" x="86.393003" xlink:href="#m8b57f9aa97" y="602.64"/>
      </g>
     </g>
     <g id="text_1">
      <!-- 1000 -->
      <defs>
       <path d="M 24.3125 0 
L 24.3125 54.828125 
L 9.765625 45.75 
L 9.765625 54.890625 
Q 15.28125 57.671875 21.5 62.546875 
Q 27.734375 67.4375 31.15625 71.828125 
L 34.078125 71.828125 
L 34.078125 0 
z
" id="TrebuchetMS-49"/>
       <path d="M 3.125 37.9375 
Q 3.125 53.375 9.375 63.078125 
Q 15.625 72.796875 26.953125 72.796875 
Q 38.1875 72.796875 43.828125 64.6875 
Q 49.46875 56.59375 49.46875 36.375 
Q 49.46875 19 43.546875 9 
Q 37.640625 -0.984375 26.265625 -0.984375 
Q 14.890625 -0.984375 9 7.078125 
Q 3.125 15.140625 3.125 37.9375 
z
M 12.890625 37.0625 
Q 12.890625 7.328125 25.59375 7.328125 
Q 32.859375 7.328125 36.28125 13.921875 
Q 39.703125 20.515625 39.703125 37.015625 
Q 39.703125 48.390625 38.375 53.703125 
Q 37.0625 59.03125 34.125 61.765625 
Q 31.203125 64.5 26.703125 64.5 
Q 12.890625 64.5 12.890625 37.0625 
z
" id="TrebuchetMS-48"/>
      </defs>
      <g transform="translate(69.613003 621.4375)scale(0.16 -0.16)">
       <use xlink:href="#TrebuchetMS-49"/>
       <use x="52.441406" xlink:href="#TrebuchetMS-48"/>
       <use x="104.882812" xlink:href="#TrebuchetMS-48"/>
       <use x="157.324219" xlink:href="#TrebuchetMS-48"/>
      </g>
     </g>
    </g>
    <g id="xtick_2">
     <g id="line2d_3">
      <path clip-path="url(#pe00d7bb6f1)" d="M 128.635309 602.64 
L 128.635309 45.36 
" style="fill:none;stroke:#000000;stroke-linecap:square;stroke-width:0.2;"/>
     </g>
     <g id="line2d_4">
      <g>
       <use style="stroke:#000000;stroke-width:0.8;" x="128.635309" xlink:href="#m8b57f9aa97" y="602.64"/>
      </g>
     </g>
     <g id="text_2">
      <!-- 700 -->
      <defs>
       <path d="M 20.90625 0 
L 10.0625 0 
Q 13.671875 11.46875 22.21875 30.34375 
Q 30.765625 49.21875 37.84375 62.546875 
L 4.109375 62.546875 
L 4.109375 71.828125 
L 50.484375 71.828125 
L 50.484375 68.015625 
L 44.1875 55.609375 
Q 41.015625 49.3125 37.546875 41.796875 
Q 34.078125 34.28125 30.75 26.46875 
Q 27.4375 18.65625 24.953125 11.96875 
Q 22.46875 5.28125 20.90625 0 
z
" id="TrebuchetMS-55"/>
      </defs>
      <g transform="translate(116.050309 621.4375)scale(0.16 -0.16)">
       <use xlink:href="#TrebuchetMS-55"/>
       <use x="52.441406" xlink:href="#TrebuchetMS-48"/>
       <use x="104.882812" xlink:href="#TrebuchetMS-48"/>
      </g>
     </g>
    </g>
    <g id="xtick_3">
     <g id="line2d_5">
      <path clip-path="url(#pe00d7bb6f1)" d="M 168.484936 602.64 
L 168.484936 45.36 
" style="fill:none;stroke:#000000;stroke-linecap:square;stroke-width:0.2;"/>
     </g>
     <g id="line2d_6">
      <g>
       <use style="stroke:#000000;stroke-width:0.8;" x="168.484936" xlink:href="#m8b57f9aa97" y="602.64"/>
      </g>
     </g>
     <g id="text_3">
      <!-- 500 -->
      <defs>
       <path d="M 11.328125 34.90625 
L 8.015625 37.203125 
L 8.015625 71.828125 
L 43.609375 71.828125 
L 43.609375 63.53125 
L 17.28125 63.53125 
L 17.28125 46.140625 
Q 20.90625 48.828125 26.46875 48.828125 
Q 36.421875 48.828125 41.671875 42.875 
Q 46.921875 36.921875 46.921875 25.921875 
Q 46.921875 -0.984375 22.953125 -0.984375 
Q 12.9375 -0.984375 6.34375 4.59375 
L 10.109375 12.75 
Q 16.75 7.328125 22.90625 7.328125 
Q 36.671875 7.328125 36.671875 24.515625 
Q 36.671875 40.53125 23.09375 40.53125 
Q 16.546875 40.53125 11.328125 34.90625 
z
" id="TrebuchetMS-53"/>
      </defs>
      <g transform="translate(155.899936 621.4375)scale(0.16 -0.16)">
       <use xlink:href="#TrebuchetMS-53"/>
       <use x="52.441406" xlink:href="#TrebuchetMS-48"/>
       <use x="104.882812" xlink:href="#TrebuchetMS-48"/>
      </g>
     </g>
    </g>
    <g id="xtick_4">
     <g id="line2d_7">
      <path clip-path="url(#pe00d7bb6f1)" d="M 228.983866 602.64 
L 228.983866 45.36 
" style="fill:none;stroke:#000000;stroke-linecap:square;stroke-width:0.2;"/>
     </g>
     <g id="line2d_8">
      <g>
       <use style="stroke:#000000;stroke-width:0.8;" x="228.983866" xlink:href="#m8b57f9aa97" y="602.64"/>
      </g>
     </g>
     <g id="text_4">
      <!-- 300 -->
      <defs>
       <path d="M 5.328125 5.078125 
L 10.015625 12.59375 
Q 14.796875 7.328125 22.125 7.328125 
Q 35.6875 7.328125 35.6875 20.609375 
Q 35.6875 26.65625 31.734375 30.4375 
Q 27.78125 34.234375 21.234375 34.234375 
L 20.453125 34.234375 
L 20.453125 42.140625 
L 20.90625 42.140625 
Q 33.296875 42.140625 33.296875 53.078125 
Q 33.296875 64.5 21.625 64.5 
Q 15.28125 64.5 11.53125 60.25 
L 7.171875 66.890625 
Q 11.71875 72.796875 22.359375 72.796875 
Q 31.734375 72.796875 37.640625 67.796875 
Q 43.5625 62.796875 43.5625 54.984375 
Q 43.5625 49.03125 40.265625 44.4375 
Q 36.96875 39.84375 32.515625 38.28125 
Q 38.671875 36.28125 42.3125 31.46875 
Q 45.953125 26.65625 45.953125 19.828125 
Q 45.953125 9.859375 39.640625 4.4375 
Q 33.34375 -0.984375 21.96875 -0.984375 
Q 17.1875 -0.984375 12.59375 0.796875 
Q 8.015625 2.59375 5.328125 5.078125 
z
" id="TrebuchetMS-51"/>
      </defs>
      <g transform="translate(216.398866 621.4375)scale(0.16 -0.16)">
       <use xlink:href="#TrebuchetMS-51"/>
       <use x="52.441406" xlink:href="#TrebuchetMS-48"/>
       <use x="104.882812" xlink:href="#TrebuchetMS-48"/>
      </g>
     </g>
    </g>
    <g id="xtick_5">
     <g id="line2d_9">
      <path clip-path="url(#pe00d7bb6f1)" d="M 277.004568 602.64 
L 277.004568 45.36 
" style="fill:none;stroke:#000000;stroke-linecap:square;stroke-width:0.2;"/>
     </g>
     <g id="line2d_10">
      <g>
       <use style="stroke:#000000;stroke-width:0.8;" x="277.004568" xlink:href="#m8b57f9aa97" y="602.64"/>
      </g>
     </g>
     <g id="text_5">
      <!-- 200 -->
      <defs>
       <path d="M 3.375 0 
L 3.375 1.953125 
L 25.78125 36.28125 
Q 32.8125 47.078125 32.8125 54.59375 
Q 32.8125 64.5 21.625 64.5 
Q 17.671875 64.5 14.203125 62.421875 
Q 10.75 60.359375 9.1875 57.171875 
L 2.875 62.359375 
Q 4.546875 67.140625 9.40625 69.96875 
Q 14.265625 72.796875 21.140625 72.796875 
Q 31.453125 72.796875 37.25 68.03125 
Q 43.0625 63.28125 43.0625 54.59375 
Q 43.0625 46.53125 35.359375 34.28125 
L 19.28125 8.796875 
L 47.3125 8.796875 
L 47.3125 0 
z
" id="TrebuchetMS-50"/>
      </defs>
      <g transform="translate(264.419568 621.4375)scale(0.16 -0.16)">
       <use xlink:href="#TrebuchetMS-50"/>
       <use x="52.441406" xlink:href="#TrebuchetMS-48"/>
       <use x="104.882812" xlink:href="#TrebuchetMS-48"/>
      </g>
     </g>
    </g>
    <g id="xtick_6">
     <g id="line2d_11">
      <path clip-path="url(#pe00d7bb6f1)" d="M 311.075799 602.64 
L 311.075799 45.36 
" style="fill:none;stroke:#000000;stroke-linecap:square;stroke-width:0.2;"/>
     </g>
     <g id="line2d_12">
      <g>
       <use style="stroke:#000000;stroke-width:0.8;" x="311.075799" xlink:href="#m8b57f9aa97" y="602.64"/>
      </g>
     </g>
     <g id="text_6">
      <!-- 150 -->
      <g transform="translate(298.490799 621.4375)scale(0.16 -0.16)">
       <use xlink:href="#TrebuchetMS-49"/>
       <use x="52.441406" xlink:href="#TrebuchetMS-53"/>
       <use x="104.882812" xlink:href="#TrebuchetMS-48"/>
      </g>
     </g>
    </g>
    <g id="xtick_7">
     <g id="line2d_13">
      <path clip-path="url(#pe00d7bb6f1)" d="M 359.096501 602.64 
L 359.096501 45.36 
" style="fill:none;stroke:#000000;stroke-linecap:square;stroke-width:0.2;"/>
     </g>
     <g id="line2d_14">
      <g>
       <use style="stroke:#000000;stroke-width:0.8;" x="359.096501" xlink:href="#m8b57f9aa97" y="602.64"/>
      </g>
     </g>
     <g id="text_7">
      <!-- 100 -->
      <g transform="translate(346.511501 621.4375)scale(0.16 -0.16)">
       <use xlink:href="#TrebuchetMS-49"/>
       <use x="52.441406" xlink:href="#TrebuchetMS-48"/>
       <use x="104.882812" xlink:href="#TrebuchetMS-48"/>
      </g>
     </g>
    </g>
    <g id="xtick_8">
     <g id="line2d_15">
      <path clip-path="url(#pe00d7bb6f1)" d="M 401.338808 602.64 
L 401.338808 45.36 
" style="fill:none;stroke:#000000;stroke-linecap:square;stroke-width:0.2;"/>
     </g>
     <g id="line2d_16">
      <g>
       <use style="stroke:#000000;stroke-width:0.8;" x="401.338808" xlink:href="#m8b57f9aa97" y="602.64"/>
      </g>
     </g>
     <g id="text_8">
      <!-- 70 -->
      <g transform="translate(392.948808 621.4375)scale(0.16 -0.16)">
       <use xlink:href="#TrebuchetMS-55"/>
       <use x="52.441406" xlink:href="#TrebuchetMS-48"/>
      </g>
     </g>
    </g>
    <g id="xtick_9">
     <g id="line2d_17">
      <path clip-path="url(#pe00d7bb6f1)" d="M 441.188434 602.64 
L 441.188434 45.36 
" style="fill:none;stroke:#000000;stroke-linecap:square;stroke-width:0.2;"/>
     </g>
     <g id="line2d_18">
      <g>
       <use style="stroke:#000000;stroke-width:0.8;" x="441.188434" xlink:href="#m8b57f9aa97" y="602.64"/>
      </g>
     </g>
     <g id="text_9">
      <!-- 50 -->
      <g transform="translate(432.798434 621.4375)scale(0.16 -0.16)">
       <use xlink:href="#TrebuchetMS-53"/>
       <use x="52.441406" xlink:href="#TrebuchetMS-48"/>
      </g>
     </g>
    </g>
    <g id="xtick_10">
     <g id="line2d_19">
      <path clip-path="url(#pe00d7bb6f1)" d="M 467.616134 602.64 
L 467.616134 45.36 
" style="fill:none;stroke:#000000;stroke-linecap:square;stroke-width:0.2;"/>
     </g>
     <g id="line2d_20">
      <g>
       <use style="stroke:#000000;stroke-width:0.8;" x="467.616134" xlink:href="#m8b57f9aa97" y="602.64"/>
      </g>
     </g>
     <g id="text_10">
      <!-- 40 -->
      <defs>
       <path d="M 43.0625 19.484375 
L 43.0625 0 
L 33.796875 0 
L 33.796875 19.484375 
L 1.21875 19.484375 
L 1.21875 25.046875 
L 39.65625 71.828125 
L 43.0625 71.828125 
L 43.0625 27 
L 50.296875 27 
L 50.296875 19.484375 
z
M 33.796875 52.34375 
L 12.796875 27 
L 33.796875 27 
z
" id="TrebuchetMS-52"/>
      </defs>
      <g transform="translate(459.226134 621.4375)scale(0.16 -0.16)">
       <use xlink:href="#TrebuchetMS-52"/>
       <use x="52.441406" xlink:href="#TrebuchetMS-48"/>
      </g>
     </g>
    </g>
    <g id="xtick_11">
     <g id="line2d_21">
      <path clip-path="url(#pe00d7bb6f1)" d="M 523.280367 602.64 
L 523.280367 45.36 
" style="fill:none;stroke:#000000;stroke-linecap:square;stroke-width:0.2;"/>
     </g>
     <g id="line2d_22">
      <g>
       <use style="stroke:#000000;stroke-width:0.8;" x="523.280367" xlink:href="#m8b57f9aa97" y="602.64"/>
      </g>
     </g>
     <g id="text_11">
      <!-- 25 -->
      <g transform="translate(514.890367 621.4375)scale(0.16 -0.16)">
       <use xlink:href="#TrebuchetMS-50"/>
       <use x="52.441406" xlink:href="#TrebuchetMS-53"/>
      </g>
     </g>
    </g>
    <g id="xtick_12">
     <g id="line2d_23">
      <path clip-path="url(#pe00d7bb6f1)" d="M 583.779298 602.64 
L 583.779298 45.36 
" style="fill:none;stroke:#000000;stroke-linecap:square;stroke-width:0.2;"/>
     </g>
     <g id="line2d_24">
      <g>
       <use style="stroke:#000000;stroke-width:0.8;" x="583.779298" xlink:href="#m8b57f9aa97" y="602.64"/>
      </g>
     </g>
     <g id="text_12">
      <!-- 15 -->
      <g transform="translate(575.389298 621.4375)scale(0.16 -0.16)">
       <use xlink:href="#TrebuchetMS-49"/>
       <use x="52.441406" xlink:href="#TrebuchetMS-53"/>
      </g>
     </g>
    </g>
    <g id="xtick_13">
     <g id="line2d_25">
      <path clip-path="url(#pe00d7bb6f1)" d="M 631.8 602.64 
L 631.8 45.36 
" style="fill:none;stroke:#000000;stroke-linecap:square;stroke-width:0.2;"/>
     </g>
     <g id="line2d_26">
      <g>
       <use style="stroke:#000000;stroke-width:0.8;" x="631.8" xlink:href="#m8b57f9aa97" y="602.64"/>
      </g>
     </g>
     <g id="text_13">
      <!-- 10 -->
      <g transform="translate(623.41 621.4375)scale(0.16 -0.16)">
       <use xlink:href="#TrebuchetMS-49"/>
       <use x="52.441406" xlink:href="#TrebuchetMS-48"/>
      </g>
     </g>
    </g>
    <g id="text_14">
     <!-- Wave-length [km] -->
     <defs>
      <path d="M 62.3125 -0.984375 
L 59.234375 -0.984375 
L 42.1875 48.34375 
L 26.265625 -0.984375 
L 23.1875 -0.984375 
L 0.640625 71.53125 
L 10.796875 71.53125 
L 25.140625 21.578125 
L 40.875 71.53125 
L 44.28125 71.53125 
L 59.8125 21.6875 
L 74.421875 71.53125 
L 84.578125 71.53125 
z
" id="TrebuchetMS-87"/>
      <path d="M 36.140625 6 
Q 30.5625 -0.984375 19.09375 -0.984375 
Q 12.9375 -0.984375 8.421875 3.484375 
Q 3.90625 7.953125 3.90625 14.59375 
Q 3.90625 22.5625 10.859375 28.046875 
Q 17.828125 33.546875 28.609375 33.546875 
Q 31.546875 33.546875 35.25 32.28125 
Q 35.25 44.96875 23.921875 44.96875 
Q 15.234375 44.96875 10.546875 40.28125 
L 6.640625 48.046875 
Q 9.28125 50.203125 13.9375 51.734375 
Q 18.609375 53.265625 22.859375 53.265625 
Q 34.234375 53.265625 39.375 48.09375 
Q 44.53125 42.921875 44.53125 31.640625 
L 44.53125 12.890625 
Q 44.53125 6 48.640625 3.71875 
L 48.640625 -0.921875 
Q 42.96875 -0.921875 40.15625 0.6875 
Q 37.359375 2.296875 36.140625 6 
z
M 35.25 25.6875 
Q 30.859375 26.65625 29.109375 26.65625 
Q 22.078125 26.65625 17.625 23.046875 
Q 13.1875 19.4375 13.1875 14.5 
Q 13.1875 6.34375 22.796875 6.34375 
Q 29.828125 6.34375 35.25 13.03125 
z
" id="TrebuchetMS-97"/>
      <path d="M 25.4375 -0.984375 
L 23 -0.984375 
L 0.59375 52.4375 
L 10.75 52.4375 
L 24.5625 15.828125 
L 38.671875 52.4375 
L 48.390625 52.4375 
z
" id="TrebuchetMS-118"/>
      <path d="M 50.640625 25.25 
L 12.9375 25.25 
Q 12.9375 16.0625 17.96875 11.140625 
Q 22.40625 6.84375 29.390625 6.84375 
Q 37.359375 6.84375 42.671875 11.46875 
L 46.578125 4.78125 
Q 44.4375 2.640625 39.984375 1.078125 
Q 34.421875 -0.984375 27.59375 -0.984375 
Q 17.71875 -0.984375 10.84375 5.71875 
Q 3.171875 13.09375 3.171875 25.53125 
Q 3.171875 38.484375 11.03125 46.296875 
Q 18.0625 53.265625 27.6875 53.265625 
Q 38.875 53.265625 45.21875 46.96875 
Q 51.375 40.921875 51.375 30.90625 
Q 51.375 27.828125 50.640625 25.25 
z
M 28.125 45.453125 
Q 21.921875 45.453125 17.71875 41.453125 
Q 13.71875 37.640625 13.1875 31.984375 
L 42.140625 31.984375 
Q 42.140625 37.59375 38.625 41.359375 
Q 34.765625 45.453125 28.125 45.453125 
z
" id="TrebuchetMS-101"/>
      <path d="M 7.765625 24.703125 
L 7.765625 33.25 
L 28.65625 33.25 
L 28.65625 24.703125 
z
" id="TrebuchetMS-45"/>
      <path d="M 7.328125 14.796875 
L 7.328125 73.734375 
L 16.609375 73.734375 
L 16.609375 16.359375 
Q 16.609375 12.15625 19.015625 9.734375 
Q 21.4375 7.328125 25.34375 7.328125 
L 25.34375 -0.984375 
Q 7.328125 -0.984375 7.328125 14.796875 
z
" id="TrebuchetMS-108"/>
      <path d="M 38.765625 0 
L 38.765625 30.421875 
Q 38.765625 38.765625 36.25 42.109375 
Q 33.734375 45.453125 27.828125 45.453125 
Q 24.65625 45.453125 21.1875 43.546875 
Q 17.71875 41.65625 15.875 38.875 
L 15.875 0 
L 6.59375 0 
L 6.59375 52.296875 
L 12.9375 52.296875 
L 15.875 45.5625 
Q 20.453125 53.265625 30.859375 53.265625 
Q 48.046875 53.265625 48.046875 32.375 
L 48.046875 0 
z
" id="TrebuchetMS-110"/>
      <path d="M 4.6875 -14.3125 
L 9.71875 -6.890625 
Q 17.828125 -12.3125 24.65625 -12.3125 
Q 30.953125 -12.3125 34.59375 -10.125 
Q 38.234375 -7.953125 38.234375 -4.734375 
Q 38.234375 1.609375 29.046875 1.609375 
Q 27.484375 1.609375 23.375 0.828125 
Q 19.28125 0.046875 17 0.046875 
Q 5.859375 0.046875 5.859375 8.453125 
Q 5.859375 11.03125 8.46875 13.125 
Q 11.078125 15.234375 14.9375 16.15625 
Q 3.90625 21.34375 3.90625 34.125 
Q 3.90625 42.328125 9.609375 47.796875 
Q 15.328125 53.265625 23.734375 53.265625 
Q 31.453125 53.265625 35.796875 50.09375 
L 40.4375 55.671875 
L 46.484375 49.953125 
L 40.921875 45.75 
Q 44.484375 41.109375 44.484375 33.640625 
Q 44.484375 25.734375 39.546875 20.359375 
Q 34.625 14.984375 26.609375 14.203125 
L 18.953125 13.421875 
Q 17.578125 13.28125 15.28125 12.375 
Q 12.984375 11.46875 12.984375 10.015625 
Q 12.984375 8.015625 17.78125 8.015625 
Q 19.875 8.015625 24.3125 8.765625 
Q 28.765625 9.515625 30.90625 9.515625 
Q 38.625 9.515625 42.9375 5.828125 
Q 47.265625 2.15625 47.265625 -4.390625 
Q 47.265625 -11.625 40.796875 -16.0625 
Q 34.328125 -20.515625 24.421875 -20.515625 
Q 19.34375 -20.515625 13.71875 -18.703125 
Q 8.109375 -16.890625 4.6875 -14.3125 
z
M 24.359375 45.796875 
Q 19.53125 45.796875 16.46875 42.375 
Q 13.421875 38.96875 13.421875 34.078125 
Q 13.421875 28.609375 16.375 25.015625 
Q 19.34375 21.4375 24.359375 21.4375 
Q 29.296875 21.4375 32.078125 24.921875 
Q 34.859375 28.421875 34.859375 34.078125 
Q 34.859375 38.96875 31.859375 42.375 
Q 28.859375 45.796875 24.359375 45.796875 
z
" id="TrebuchetMS-103"/>
      <path d="M 9.90625 44.96875 
L 3.859375 44.96875 
L 3.859375 52.296875 
L 9.90625 52.296875 
L 9.90625 63.234375 
L 19.1875 66.796875 
L 19.1875 52.296875 
L 33.546875 52.296875 
L 33.546875 44.96875 
L 19.1875 44.96875 
L 19.1875 19 
Q 19.1875 12.40625 21.40625 9.625 
Q 23.640625 6.84375 28.5625 6.84375 
Q 32.125 6.84375 35.9375 8.640625 
L 37.3125 0.484375 
Q 31.546875 -0.984375 24.65625 -0.984375 
Q 18.453125 -0.984375 14.171875 3.625 
Q 9.90625 8.25 9.90625 15.28125 
z
" id="TrebuchetMS-116"/>
      <path d="M 38.8125 0 
L 38.8125 32.859375 
Q 38.8125 38.71875 35.9375 42.078125 
Q 33.0625 45.453125 27.828125 45.453125 
Q 24.46875 45.453125 21.0625 43.46875 
Q 17.671875 41.5 15.875 38.875 
L 15.875 0 
L 6.59375 0 
L 6.59375 73.734375 
L 15.875 73.734375 
L 15.875 46.53125 
Q 17.71875 49.421875 21.84375 51.34375 
Q 25.984375 53.265625 30.375 53.265625 
Q 38.671875 53.265625 43.375 47.796875 
Q 48.09375 42.328125 48.09375 32.859375 
L 48.09375 0 
z
" id="TrebuchetMS-104"/>
      <path id="TrebuchetMS-32"/>
      <path d="M 9.859375 -20.515625 
L 9.859375 73.734375 
L 32.46875 73.734375 
L 32.46875 65.4375 
L 19.625 65.4375 
L 19.625 -12.203125 
L 32.46875 -12.203125 
L 32.46875 -20.515625 
z
" id="TrebuchetMS-91"/>
      <path d="M 40.375 0 
L 23.96875 26.171875 
L 15.875 17.828125 
L 15.875 0 
L 6.59375 0 
L 6.59375 73.734375 
L 15.875 73.734375 
L 15.875 27.984375 
L 35.890625 52.296875 
L 46.734375 52.296875 
L 29.984375 32.421875 
L 50.4375 0 
z
" id="TrebuchetMS-107"/>
      <path d="M 67.140625 0 
L 67.140625 33.109375 
Q 67.140625 45.453125 56.453125 45.453125 
Q 53.078125 45.453125 50.140625 43.375 
Q 47.21875 41.3125 46.140625 38.671875 
L 46.140625 0 
L 36.859375 0 
L 36.859375 37.15625 
Q 36.859375 41.015625 33.953125 43.234375 
Q 31.0625 45.453125 26.265625 45.453125 
Q 23.484375 45.453125 20.328125 43.296875 
Q 17.1875 41.15625 15.875 38.578125 
L 15.875 0 
L 6.59375 0 
L 6.59375 52.296875 
L 12.640625 52.296875 
L 15.71875 46.234375 
Q 21.09375 53.265625 29.15625 53.265625 
Q 40.375 53.265625 44.875 46.296875 
Q 46.4375 49.265625 50.6875 51.265625 
Q 54.9375 53.265625 59.421875 53.265625 
Q 67.53125 53.265625 71.96875 48.453125 
Q 76.421875 43.65625 76.421875 34.96875 
L 76.421875 0 
z
" id="TrebuchetMS-109"/>
      <path d="M 26.859375 -20.515625 
L 4.25 -20.515625 
L 4.25 -12.203125 
L 17.09375 -12.203125 
L 17.09375 65.4375 
L 4.25 65.4375 
L 4.25 73.734375 
L 26.859375 73.734375 
z
" id="TrebuchetMS-93"/>
     </defs>
     <g transform="translate(284.45125 640.5175)scale(0.16 -0.16)">
      <use xlink:href="#TrebuchetMS-87"/>
      <use x="85.126953" xlink:href="#TrebuchetMS-97"/>
      <use x="137.666016" xlink:href="#TrebuchetMS-118"/>
      <use x="186.640625" xlink:href="#TrebuchetMS-101"/>
      <use x="241.181641" xlink:href="#TrebuchetMS-45"/>
      <use x="277.900391" xlink:href="#TrebuchetMS-108"/>
      <use x="307.392578" xlink:href="#TrebuchetMS-101"/>
      <use x="361.933594" xlink:href="#TrebuchetMS-110"/>
      <use x="416.572266" xlink:href="#TrebuchetMS-103"/>
      <use x="466.767578" xlink:href="#TrebuchetMS-116"/>
      <use x="506.416016" xlink:href="#TrebuchetMS-104"/>
      <use x="561.054688" xlink:href="#TrebuchetMS-32"/>
      <use x="591.181641" xlink:href="#TrebuchetMS-91"/>
      <use x="627.900391" xlink:href="#TrebuchetMS-107"/>
      <use x="678.339844" xlink:href="#TrebuchetMS-109"/>
      <use x="761.347656" xlink:href="#TrebuchetMS-93"/>
     </g>
    </g>
   </g>
   <g id="matplotlib.axis_2">
    <g id="ytick_1">
     <g id="line2d_27">
      <path clip-path="url(#pe00d7bb6f1)" d="M 64.8 602.64 
L 631.8 602.64 
" style="fill:none;stroke:#000000;stroke-linecap:square;stroke-width:0.2;"/>
     </g>
     <g id="line2d_28">
      <defs>
       <path d="M 0 0 
L -3.5 0 
" id="m61ce433b10" style="stroke:#000000;stroke-width:0.8;"/>
      </defs>
      <g>
       <use style="stroke:#000000;stroke-width:0.8;" x="64.8" xlink:href="#m61ce433b10" y="602.64"/>
      </g>
     </g>
     <g id="text_15">
      <!-- $\mathregular{10^{-8}}$ -->
      <defs>
       <path d="M 46.875 34.46875 
L 46.875 27.59375 
L 5.953125 27.59375 
L 5.953125 34.46875 
z
" id="TrebuchetMS-8722"/>
       <path d="M 17.234375 39.796875 
Q 12.703125 42.234375 9.8125 46.578125 
Q 6.9375 50.921875 6.9375 55.5625 
Q 6.9375 63.53125 12.328125 68.15625 
Q 17.71875 72.796875 26.265625 72.796875 
Q 35.5 72.796875 40.578125 68.15625 
Q 45.65625 63.53125 45.65625 55.515625 
Q 45.65625 50.828125 42.578125 45.96875 
Q 39.5 41.109375 35.453125 38.8125 
Q 48.34375 31.59375 48.34375 19.828125 
Q 48.34375 9.90625 42.375 4.453125 
Q 36.421875 -0.984375 26.03125 -0.984375 
Q 4.34375 -0.984375 4.34375 19.828125 
Q 4.34375 25.828125 8.046875 31.640625 
Q 11.765625 37.453125 17.234375 39.796875 
z
M 29.203125 42.828125 
Q 35.84375 49.078125 35.84375 55.765625 
Q 35.84375 59.765625 33.171875 62.125 
Q 30.515625 64.5 26.265625 64.5 
Q 16.703125 64.5 16.703125 55.671875 
Q 16.703125 49.125 29.203125 42.828125 
z
M 24.859375 35.546875 
Q 14.109375 29.734375 14.109375 19.828125 
Q 14.109375 14.5 17.421875 10.90625 
Q 20.75 7.328125 26.03125 7.328125 
Q 31.5 7.328125 35.03125 10.84375 
Q 38.578125 14.359375 38.578125 19.828125 
Q 38.578125 23.78125 36.125 27.265625 
Q 33.6875 30.765625 24.859375 35.546875 
z
" id="TrebuchetMS-56"/>
      </defs>
      <g transform="translate(28.68 608.53875)scale(0.16 -0.16)">
       <use transform="translate(0 0.434375)" xlink:href="#TrebuchetMS-49"/>
       <use transform="translate(52.441406 0.434375)" xlink:href="#TrebuchetMS-48"/>
       <use transform="translate(105.798008 37.042188)scale(0.7)" xlink:href="#TrebuchetMS-8722"/>
       <use transform="translate(142.506992 37.042188)scale(0.7)" xlink:href="#TrebuchetMS-56"/>
      </g>
     </g>
    </g>
    <g id="ytick_2">
     <g id="line2d_29">
      <path clip-path="url(#pe00d7bb6f1)" d="M 64.8 546.912 
L 631.8 546.912 
" style="fill:none;stroke:#000000;stroke-linecap:square;stroke-width:0.2;"/>
     </g>
     <g id="line2d_30">
      <g>
       <use style="stroke:#000000;stroke-width:0.8;" x="64.8" xlink:href="#m61ce433b10" y="546.912"/>
      </g>
     </g>
     <g id="text_16">
      <!-- $\mathregular{10^{-7}}$ -->
      <g transform="translate(28.68 552.81075)scale(0.16 -0.16)">
       <use transform="translate(0 0.1125)" xlink:href="#TrebuchetMS-49"/>
       <use transform="translate(52.441406 0.1125)" xlink:href="#TrebuchetMS-48"/>
       <use transform="translate(105.798008 36.720313)scale(0.7)" xlink:href="#TrebuchetMS-8722"/>
       <use transform="translate(142.506992 36.720313)scale(0.7)" xlink:href="#TrebuchetMS-55"/>
      </g>
     </g>
    </g>
    <g id="ytick_3">
     <g id="line2d_31">
      <path clip-path="url(#pe00d7bb6f1)" d="M 64.8 491.184 
L 631.8 491.184 
" style="fill:none;stroke:#000000;stroke-linecap:square;stroke-width:0.2;"/>
     </g>
     <g id="line2d_32">
      <g>
       <use style="stroke:#000000;stroke-width:0.8;" x="64.8" xlink:href="#m61ce433b10" y="491.184"/>
      </g>
     </g>
     <g id="text_17">
      <!-- $\mathregular{10^{-6}}$ -->
      <defs>
       <path d="M 32.8125 72.796875 
L 37.546875 67.578125 
Q 33.25 65.875 25.125 56.03125 
Q 17 46.1875 16.109375 40.875 
Q 20.171875 44.78125 27.390625 44.78125 
Q 36.859375 44.78125 42.578125 38.71875 
Q 48.296875 32.671875 48.296875 22.078125 
Q 48.296875 11.578125 42.40625 5.171875 
Q 36.53125 -1.21875 27.640625 -1.21875 
Q 4.109375 -1.21875 4.109375 29.984375 
Q 4.109375 42.96875 13.3125 56.5625 
Q 22.515625 70.171875 32.8125 72.796875 
z
M 14.359375 22.359375 
Q 14.359375 7.078125 26.90625 7.078125 
Q 32.171875 7.078125 35.21875 11.0625 
Q 38.28125 15.046875 38.28125 21.578125 
Q 38.28125 28.375 35.0625 32.421875 
Q 31.84375 36.46875 26.765625 36.46875 
Q 14.359375 36.46875 14.359375 22.359375 
z
" id="TrebuchetMS-54"/>
      </defs>
      <g transform="translate(28.68 497.08275)scale(0.16 -0.16)">
       <use transform="translate(0 0.434375)" xlink:href="#TrebuchetMS-49"/>
       <use transform="translate(52.441406 0.434375)" xlink:href="#TrebuchetMS-48"/>
       <use transform="translate(105.798008 37.042188)scale(0.7)" xlink:href="#TrebuchetMS-8722"/>
       <use transform="translate(142.506992 37.042188)scale(0.7)" xlink:href="#TrebuchetMS-54"/>
      </g>
     </g>
    </g>
    <g id="ytick_4">
     <g id="line2d_33">
      <path clip-path="url(#pe00d7bb6f1)" d="M 64.8 435.456 
L 631.8 435.456 
" style="fill:none;stroke:#000000;stroke-linecap:square;stroke-width:0.2;"/>
     </g>
     <g id="line2d_34">
      <g>
       <use style="stroke:#000000;stroke-width:0.8;" x="64.8" xlink:href="#m61ce433b10" y="435.456"/>
      </g>
     </g>
     <g id="text_18">
      <!-- $\mathregular{10^{-5}}$ -->
      <g transform="translate(28.68 441.35475)scale(0.16 -0.16)">
       <use transform="translate(0 0.1125)" xlink:href="#TrebuchetMS-49"/>
       <use transform="translate(52.441406 0.1125)" xlink:href="#TrebuchetMS-48"/>
       <use transform="translate(105.798008 36.720313)scale(0.7)" xlink:href="#TrebuchetMS-8722"/>
       <use transform="translate(142.506992 36.720313)scale(0.7)" xlink:href="#TrebuchetMS-53"/>
      </g>
     </g>
    </g>
    <g id="ytick_5">
     <g id="line2d_35">
      <path clip-path="url(#pe00d7bb6f1)" d="M 64.8 379.728 
L 631.8 379.728 
" style="fill:none;stroke:#000000;stroke-linecap:square;stroke-width:0.2;"/>
     </g>
     <g id="line2d_36">
      <g>
       <use style="stroke:#000000;stroke-width:0.8;" x="64.8" xlink:href="#m61ce433b10" y="379.728"/>
      </g>
     </g>
     <g id="text_19">
      <!-- $\mathregular{10^{-4}}$ -->
      <g transform="translate(28.68 385.62675)scale(0.16 -0.16)">
       <use transform="translate(0 0.1125)" xlink:href="#TrebuchetMS-49"/>
       <use transform="translate(52.441406 0.1125)" xlink:href="#TrebuchetMS-48"/>
       <use transform="translate(105.798008 36.720313)scale(0.7)" xlink:href="#TrebuchetMS-8722"/>
       <use transform="translate(142.506992 36.720313)scale(0.7)" xlink:href="#TrebuchetMS-52"/>
      </g>
     </g>
    </g>
    <g id="ytick_6">
     <g id="line2d_37">
      <path clip-path="url(#pe00d7bb6f1)" d="M 64.8 324 
L 631.8 324 
" style="fill:none;stroke:#000000;stroke-linecap:square;stroke-width:0.2;"/>
     </g>
     <g id="line2d_38">
      <g>
       <use style="stroke:#000000;stroke-width:0.8;" x="64.8" xlink:href="#m61ce433b10" y="324"/>
      </g>
     </g>
     <g id="text_20">
      <!-- $\mathregular{10^{-3}}$ -->
      <g transform="translate(28.68 329.89875)scale(0.16 -0.16)">
       <use transform="translate(0 0.434375)" xlink:href="#TrebuchetMS-49"/>
       <use transform="translate(52.441406 0.434375)" xlink:href="#TrebuchetMS-48"/>
       <use transform="translate(105.798008 37.042188)scale(0.7)" xlink:href="#TrebuchetMS-8722"/>
       <use transform="translate(142.506992 37.042188)scale(0.7)" xlink:href="#TrebuchetMS-51"/>
      </g>
     </g>
    </g>
    <g id="ytick_7">
     <g id="line2d_39">
      <path clip-path="url(#pe00d7bb6f1)" d="M 64.8 268.272 
L 631.8 268.272 
" style="fill:none;stroke:#000000;stroke-linecap:square;stroke-width:0.2;"/>
     </g>
     <g id="line2d_40">
      <g>
       <use style="stroke:#000000;stroke-width:0.8;" x="64.8" xlink:href="#m61ce433b10" y="268.272"/>
      </g>
     </g>
     <g id="text_21">
      <!-- $\mathregular{10^{-2}}$ -->
      <g transform="translate(28.68 274.17075)scale(0.16 -0.16)">
       <use transform="translate(0 0.434375)" xlink:href="#TrebuchetMS-49"/>
       <use transform="translate(52.441406 0.434375)" xlink:href="#TrebuchetMS-48"/>
       <use transform="translate(105.798008 37.042188)scale(0.7)" xlink:href="#TrebuchetMS-8722"/>
       <use transform="translate(142.506992 37.042188)scale(0.7)" xlink:href="#TrebuchetMS-50"/>
      </g>
     </g>
    </g>
    <g id="ytick_8">
     <g id="line2d_41">
      <path clip-path="url(#pe00d7bb6f1)" d="M 64.8 212.544 
L 631.8 212.544 
" style="fill:none;stroke:#000000;stroke-linecap:square;stroke-width:0.2;"/>
     </g>
     <g id="line2d_42">
      <g>
       <use style="stroke:#000000;stroke-width:0.8;" x="64.8" xlink:href="#m61ce433b10" y="212.544"/>
      </g>
     </g>
     <g id="text_22">
      <!-- $\mathregular{10^{-1}}$ -->
      <g transform="translate(28.68 218.44275)scale(0.16 -0.16)">
       <use transform="translate(0 0.1125)" xlink:href="#TrebuchetMS-49"/>
       <use transform="translate(52.441406 0.1125)" xlink:href="#TrebuchetMS-48"/>
       <use transform="translate(105.798008 36.720313)scale(0.7)" xlink:href="#TrebuchetMS-8722"/>
       <use transform="translate(142.506992 36.720313)scale(0.7)" xlink:href="#TrebuchetMS-49"/>
      </g>
     </g>
    </g>
    <g id="ytick_9">
     <g id="line2d_43">
      <path clip-path="url(#pe00d7bb6f1)" d="M 64.8 156.816 
L 631.8 156.816 
" style="fill:none;stroke:#000000;stroke-linecap:square;stroke-width:0.2;"/>
     </g>
     <g id="line2d_44">
      <g>
       <use style="stroke:#000000;stroke-width:0.8;" x="64.8" xlink:href="#m61ce433b10" y="156.816"/>
      </g>
     </g>
     <g id="text_23">
      <!-- $\mathregular{10^{0}}$ -->
      <g transform="translate(34.44 162.71475)scale(0.16 -0.16)">
       <use transform="translate(0 0.434375)" xlink:href="#TrebuchetMS-49"/>
       <use transform="translate(52.441406 0.434375)" xlink:href="#TrebuchetMS-48"/>
       <use transform="translate(105.798008 37.042188)scale(0.7)" xlink:href="#TrebuchetMS-48"/>
      </g>
     </g>
    </g>
    <g id="ytick_10">
     <g id="line2d_45">
      <path clip-path="url(#pe00d7bb6f1)" d="M 64.8 101.088 
L 631.8 101.088 
" style="fill:none;stroke:#000000;stroke-linecap:square;stroke-width:0.2;"/>
     </g>
     <g id="line2d_46">
      <g>
       <use style="stroke:#000000;stroke-width:0.8;" x="64.8" xlink:href="#m61ce433b10" y="101.088"/>
      </g>
     </g>
     <g id="text_24">
      <!-- $\mathregular{10^{1}}$ -->
      <g transform="translate(34.44 106.98675)scale(0.16 -0.16)">
       <use transform="translate(0 0.1125)" xlink:href="#TrebuchetMS-49"/>
       <use transform="translate(52.441406 0.1125)" xlink:href="#TrebuchetMS-48"/>
       <use transform="translate(105.798008 36.720313)scale(0.7)" xlink:href="#TrebuchetMS-49"/>
      </g>
     </g>
    </g>
    <g id="ytick_11">
     <g id="line2d_47">
      <path clip-path="url(#pe00d7bb6f1)" d="M 64.8 45.36 
L 631.8 45.36 
" style="fill:none;stroke:#000000;stroke-linecap:square;stroke-width:0.2;"/>
     </g>
     <g id="line2d_48">
      <g>
       <use style="stroke:#000000;stroke-width:0.8;" x="64.8" xlink:href="#m61ce433b10" y="45.36"/>
      </g>
     </g>
     <g id="text_25">
      <!-- $\mathregular{10^{2}}$ -->
      <g transform="translate(34.44 51.25875)scale(0.16 -0.16)">
       <use transform="translate(0 0.434375)" xlink:href="#TrebuchetMS-49"/>
       <use transform="translate(52.441406 0.434375)" xlink:href="#TrebuchetMS-48"/>
       <use transform="translate(105.798008 37.042188)scale(0.7)" xlink:href="#TrebuchetMS-50"/>
      </g>
     </g>
    </g>
    <g id="text_26">
     <!-- SSH PSD [$\mathregular{m^2}$/(cy/km)] -->
     <defs>
      <path d="M 4.109375 3.265625 
L 7.671875 12.25 
Q 10.40625 10.25 14.484375 8.90625 
Q 18.5625 7.5625 21.78125 7.5625 
Q 27.484375 7.5625 30.953125 10.6875 
Q 34.421875 13.8125 34.421875 18.65625 
Q 34.421875 22.265625 32.484375 25.359375 
Q 30.5625 28.46875 22.796875 32.125 
L 17.046875 34.8125 
Q 9.71875 38.234375 6.8125 42.921875 
Q 3.90625 47.609375 3.90625 54.203125 
Q 3.90625 62.203125 9.5625 67.46875 
Q 15.234375 72.75 24.125 72.75 
Q 35.984375 72.75 40.625 68.890625 
L 37.75 60.40625 
Q 35.796875 61.8125 31.78125 63.125 
Q 27.78125 64.453125 24.359375 64.453125 
Q 19.390625 64.453125 16.53125 61.625 
Q 13.671875 58.796875 13.671875 54.34375 
Q 13.671875 51.609375 14.6875 49.359375 
Q 15.71875 47.125 17.546875 45.609375 
Q 19.390625 44.09375 25.046875 41.359375 
L 30.90625 38.578125 
Q 38.234375 35.109375 41.1875 30.296875 
Q 44.140625 25.484375 44.140625 18.0625 
Q 44.140625 10.015625 37.671875 4.390625 
Q 31.203125 -1.21875 20.359375 -1.21875 
Q 10.84375 -1.21875 4.109375 3.265625 
z
" id="TrebuchetMS-83"/>
      <path d="M 48.34375 0 
L 48.34375 34.578125 
L 17.09375 34.578125 
L 17.09375 0 
L 7.328125 0 
L 7.328125 71.53125 
L 17.09375 71.53125 
L 17.09375 42.875 
L 48.34375 42.875 
L 48.34375 71.53125 
L 58.109375 71.53125 
L 58.109375 0 
z
" id="TrebuchetMS-72"/>
      <path d="M 17.09375 27.546875 
L 17.09375 0 
L 7.328125 0 
L 7.328125 71.53125 
Q 18.40625 72.015625 20.703125 72.015625 
Q 51.859375 72.015625 51.859375 51.171875 
Q 51.859375 27.046875 24.3125 27.046875 
Q 22.65625 27.046875 17.09375 27.546875 
z
M 17.09375 62.75 
L 17.09375 36.328125 
Q 23.296875 35.84375 23.640625 35.84375 
Q 41.796875 35.84375 41.796875 50.140625 
Q 41.796875 63.234375 22.40625 63.234375 
Q 20.453125 63.234375 17.09375 62.75 
z
" id="TrebuchetMS-80"/>
      <path d="M 21.734375 0 
L 7.328125 0 
L 7.328125 71.53125 
Q 21.09375 72.015625 24.953125 72.015625 
Q 39.9375 72.015625 48.671875 62.90625 
Q 57.421875 53.8125 57.421875 38.671875 
Q 57.421875 0 21.734375 0 
z
M 17.09375 62.75 
L 17.09375 9.28125 
Q 20.359375 8.796875 25.203125 8.796875 
Q 35.453125 8.796875 41.3125 16.484375 
Q 47.171875 24.171875 47.171875 37.84375 
Q 47.171875 63.234375 24.359375 63.234375 
Q 23 63.234375 17.09375 62.75 
z
" id="TrebuchetMS-68"/>
      <path d="M 17.09375 0 
L 9.234375 0 
L 35.15625 71.828125 
L 42.921875 71.828125 
z
" id="TrebuchetMS-47"/>
      <path d="M 30.171875 72.015625 
L 30.171875 67.96875 
Q 20.515625 54 20.515625 27.203125 
Q 20.515625 -4.640625 30.171875 -15.765625 
L 30.171875 -20.90625 
Q 20.3125 -14.015625 14.859375 -1.140625 
Q 9.421875 11.71875 9.421875 27.296875 
Q 9.421875 40.578125 15.625 54.125 
Q 21.828125 67.671875 30.171875 72.015625 
z
" id="TrebuchetMS-40"/>
      <path d="M 46.046875 48.046875 
L 41.453125 41.5 
Q 40.046875 42.921875 36.453125 44.1875 
Q 32.859375 45.453125 29.390625 45.453125 
Q 21.828125 45.453125 17.375 40.15625 
Q 12.9375 34.859375 12.9375 25.640625 
Q 12.9375 16.453125 17.46875 11.640625 
Q 22.015625 6.84375 30.078125 6.84375 
Q 36.328125 6.84375 42.671875 11.671875 
L 46.34375 3.859375 
Q 38.875 -0.984375 27.828125 -0.984375 
Q 17.140625 -0.984375 10.15625 6.1875 
Q 3.171875 13.375 3.171875 25.640625 
Q 3.171875 38.140625 10.421875 45.703125 
Q 17.671875 53.265625 30.28125 53.265625 
Q 34.328125 53.265625 39.0625 51.5625 
Q 43.796875 49.859375 46.046875 48.046875 
z
" id="TrebuchetMS-99"/>
      <path d="M 26.5625 -8.890625 
Q 24.75 -13.875 18.96875 -17.1875 
Q 13.1875 -20.515625 6.0625 -20.515625 
L 6.0625 -12.203125 
Q 11.859375 -12.203125 16.015625 -9.484375 
Q 20.171875 -6.78125 20.171875 -2.875 
Q 20.171875 1.421875 18.65625 5.59375 
Q 17.140625 9.765625 14.75 15.921875 
L 0.59375 52.296875 
L 10.0625 52.296875 
L 25.4375 11.859375 
L 39.265625 52.296875 
L 48.734375 52.296875 
z
" id="TrebuchetMS-121"/>
      <path d="M 9.421875 -20.90625 
L 9.421875 -15.765625 
Q 19.09375 -4.640625 19.09375 27.203125 
Q 19.09375 54 9.421875 67.96875 
L 9.421875 72.015625 
Q 17.78125 67.671875 23.96875 54.125 
Q 30.171875 40.578125 30.171875 27.296875 
Q 30.171875 11.71875 24.71875 -1.140625 
Q 19.28125 -14.015625 9.421875 -20.90625 
z
" id="TrebuchetMS-41"/>
     </defs>
     <g transform="translate(21.32 403.6)rotate(-90)scale(0.16 -0.16)">
      <use transform="translate(0 0.434375)" xlink:href="#TrebuchetMS-83"/>
      <use transform="translate(48.095703 0.434375)" xlink:href="#TrebuchetMS-83"/>
      <use transform="translate(96.191406 0.434375)" xlink:href="#TrebuchetMS-72"/>
      <use transform="translate(161.621094 0.434375)" xlink:href="#TrebuchetMS-32"/>
      <use transform="translate(191.748047 0.434375)" xlink:href="#TrebuchetMS-80"/>
      <use transform="translate(247.509766 0.434375)" xlink:href="#TrebuchetMS-83"/>
      <use transform="translate(295.605469 0.434375)" xlink:href="#TrebuchetMS-68"/>
      <use transform="translate(356.933594 0.434375)" xlink:href="#TrebuchetMS-32"/>
      <use transform="translate(387.060547 0.434375)" xlink:href="#TrebuchetMS-91"/>
      <use transform="translate(423.779297 0.434375)" xlink:href="#TrebuchetMS-109"/>
      <use transform="translate(507.702305 37.042188)scale(0.7)" xlink:href="#TrebuchetMS-50"/>
      <use transform="translate(547.026133 0.434375)" xlink:href="#TrebuchetMS-47"/>
      <use transform="translate(599.467539 0.434375)" xlink:href="#TrebuchetMS-40"/>
      <use transform="translate(636.186289 0.434375)" xlink:href="#TrebuchetMS-99"/>
      <use transform="translate(685.698008 0.434375)" xlink:href="#TrebuchetMS-121"/>
      <use transform="translate(735.014414 0.434375)" xlink:href="#TrebuchetMS-47"/>
      <use transform="translate(787.45582 0.434375)" xlink:href="#TrebuchetMS-107"/>
      <use transform="translate(837.895273 0.434375)" xlink:href="#TrebuchetMS-109"/>
      <use transform="translate(920.903086 0.434375)" xlink:href="#TrebuchetMS-41"/>
      <use transform="translate(957.621836 0.434375)" xlink:href="#TrebuchetMS-93"/>
     </g>
    </g>
   </g>
   <g id="line2d_49">
    <path clip-path="url(#pe00d7bb6f1)" d="M 138.314499 260.353725 
L 156.571122 267.815346 
L 172.385729 274.278897 
L 186.335201 279.980152 
L 198.813429 285.080099 
L 210.101359 289.693562 
L 220.406432 293.905324 
L 229.88618 297.779769 
L 238.663055 301.366945 
L 246.834131 304.706526 
L 254.477662 307.830496 
L 261.657656 310.765014 
L 268.427134 313.531751 
L 274.830511 316.14886 
L 280.905362 318.631698 
L 286.683758 320.993373 
L 292.193292 323.245161 
L 297.457875 325.396837 
L 302.498365 327.456923 
L 307.333062 329.432901 
L 311.978113 331.331368 
L 316.447837 333.158179 
L 320.754988 334.918544 
L 324.910981 336.61713 
L 328.926064 338.258126 
L 332.809482 339.845308 
L 336.569595 341.382095 
L 340.213994 342.871589 
L 343.749589 344.316613 
L 347.182688 345.719747 
L 350.519067 347.08335 
L 353.764027 348.40959 
L 356.922444 349.700459 
L 359.998815 350.957796 
L 362.997295 352.183297 
L 365.921731 353.378536 
L 368.775691 354.544972 
L 371.562493 355.683959 
L 374.285225 356.79676 
L 376.946767 357.884553 
L 379.549808 358.948436 
L 382.096866 359.989438 
L 384.590298 361.008522 
L 387.032315 362.006593 
L 389.424995 362.9845 
L 391.770291 363.94304 
L 394.070046 364.882968 
L 396.325992 365.80499 
L 398.53977 366.709778 
L 400.712925 367.597963 
L 402.846921 368.470144 
L 404.943147 369.326887 
L 407.002914 370.168729 
L 409.027469 370.996181 
L 411.017997 371.809725 
L 412.975622 372.609821 
L 414.901415 373.396907 
L 416.796393 374.171399 
L 418.661528 374.933694 
L 420.497745 375.68417 
L 422.305927 376.423188 
L 424.086918 377.151092 
L 425.841522 377.868212 
L 427.570511 378.574863 
L 429.274621 379.271346 
L 430.954559 379.957949 
L 432.611 380.63495 
L 434.244593 381.302612 
L 435.85596 381.96119 
L 437.445697 382.610927 
L 439.014377 383.252059 
L 440.562551 383.884809 
L 442.090748 384.509395 
L 443.599477 385.126024 
L 445.089228 385.734897 
L 446.560472 386.336205 
L 448.013664 386.930136 
L 449.44924 387.516867 
L 450.867624 388.096571 
L 452.269222 388.669415 
L 453.654426 389.235558 
L 455.023616 389.795157 
L 456.377158 390.34836 
L 457.715405 390.895312 
L 459.0387 391.436152 
L 460.347372 391.971016 
L 461.641741 392.500035 
L 462.922117 393.023334 
L 464.188799 393.541037 
L 465.442077 394.053261 
L 466.682231 394.560121 
L 467.909533 395.061729 
L 469.124248 395.558192 
L 470.32663 396.049615 
" style="fill:none;stroke:#000000;stroke-dasharray:7.4,3.2;stroke-dashoffset:0;stroke-width:2;"/>
   </g>
   <g id="line2d_50">
    <path clip-path="url(#pe00d7bb6f1)" d="M 162.201901 -1 
L 172.385729 9.405521 
L 186.335201 23.65866 
L 198.813429 36.408527 
L 210.101359 47.942185 
L 220.406432 58.471589 
L 229.88618 68.157703 
L 238.663055 77.125643 
L 246.834131 85.474595 
L 254.477662 93.284519 
L 261.657656 100.620814 
L 268.427134 107.537658 
L 274.830511 114.08043 
L 280.905362 120.287525 
L 286.683758 126.191711 
L 292.193292 131.821183 
L 297.457875 137.200371 
L 302.498365 142.350587 
L 307.333062 147.290531 
L 311.978113 152.036701 
L 316.447837 156.603726 
L 320.754988 161.004641 
L 324.910981 165.251105 
L 328.926064 169.353593 
L 332.809482 173.321549 
L 336.569595 177.163517 
L 340.213994 180.887251 
L 343.749589 184.499812 
L 347.182688 188.007647 
L 350.519067 191.416656 
L 353.764027 194.732255 
L 356.922444 197.959428 
L 359.998815 201.102769 
L 362.997295 204.166523 
L 365.921731 207.154621 
L 368.775691 210.070709 
L 371.562493 212.918178 
L 374.285225 215.700181 
L 376.946767 218.419662 
L 379.549808 221.079369 
L 382.096866 223.681874 
L 384.590298 226.229585 
L 387.032315 228.724763 
L 389.424995 231.169529 
L 391.770291 233.565881 
L 394.070046 235.915699 
L 396.325992 238.220755 
L 398.53977 240.482724 
L 400.712925 242.703187 
L 402.846921 244.883639 
L 404.943147 247.025497 
L 407.002914 249.130103 
L 409.027469 251.198732 
L 411.017997 253.232591 
L 412.975622 255.232832 
L 414.901415 257.200547 
L 416.796393 259.136778 
L 418.661528 261.042515 
L 420.497745 262.918705 
L 422.305927 264.766249 
L 424.086918 266.58601 
L 425.841522 268.37881 
L 427.570511 270.145438 
L 429.274621 271.886645 
L 430.954559 273.603153 
L 432.611 275.295654 
L 434.244593 276.964809 
L 435.85596 278.611253 
L 437.445697 280.235597 
L 439.014377 281.838426 
L 440.562551 283.420303 
L 442.090748 284.981767 
L 443.599477 286.52334 
L 445.089228 288.045521 
L 446.560472 289.548793 
L 448.013664 291.033619 
L 449.44924 292.500447 
L 450.867624 293.949707 
L 452.269222 295.381816 
L 453.654426 296.797175 
L 455.023616 298.196172 
L 456.377158 299.579179 
L 457.715405 300.946558 
L 459.0387 302.29866 
L 460.347372 303.635821 
L 461.641741 304.958367 
L 462.922117 306.266616 
L 464.188799 307.560872 
L 465.442077 308.841432 
L 466.682231 310.108583 
L 467.909533 311.362603 
L 469.124248 312.603761 
L 470.32663 313.832318 
" style="fill:none;stroke:#999999;stroke-dasharray:7.4,3.2;stroke-dashoffset:0;stroke-width:2;"/>
   </g>
   <g id="patch_3">
    <path d="M 64.8 602.64 
L 64.8 45.36 
" style="fill:none;stroke:#000000;stroke-linecap:square;stroke-linejoin:miter;stroke-width:0.8;"/>
   </g>
   <g id="patch_4">
    <path d="M 631.8 602.64 
L 631.8 45.36 
" style="fill:none;stroke:#000000;stroke-linecap:square;stroke-linejoin:miter;stroke-width:0.8;"/>
   </g>
   <g id="patch_5">
    <path d="M 64.8 602.64 
L 631.8 602.64 
" style="fill:none;stroke:#000000;stroke-linecap:square;stroke-linejoin:miter;stroke-width:0.8;"/>
   </g>
   <g id="patch_6">
    <path d="M 64.8 45.36 
L 631.8 45.36 
" style="fill:none;stroke:#000000;stroke-linecap:square;stroke-linejoin:miter;stroke-width:0.8;"/>
   </g>
   <g id="line2d_51">
    <path clip-path="url(#pe00d7bb6f1)" d="M -1 114.310773 
L 8.201863 111.031063 
L 56.222566 124.703133 
L 90.293796 121.288172 
L 116.721496 135.76975 
L 138.314499 167.15971 
L 156.571122 164.359592 
L 172.385729 163.426277 
L 186.335201 172.540352 
L 198.813429 171.7093 
L 210.101359 199.415939 
L 220.406432 204.003148 
L 229.88618 189.486655 
L 238.663055 197.245703 
L 246.834131 231.61102 
L 254.477662 202.717785 
L 261.657656 233.876833 
L 268.427134 232.501726 
L 274.830511 224.188369 
L 280.905362 223.578637 
L 286.683758 220.986151 
L 292.193292 241.017298 
L 297.457875 223.479945 
L 302.498365 269.542475 
L 307.333062 273.017162 
L 311.978113 238.998454 
L 316.447837 251.161045 
L 320.754988 271.130483 
L 324.910981 250.655896 
L 328.926064 262.946972 
L 332.809482 259.055187 
L 336.569595 268.609479 
L 340.213994 250.123275 
L 343.749589 263.924657 
L 347.182688 259.888621 
L 350.519067 255.249436 
L 356.922444 280.285132 
L 359.998815 253.911907 
L 362.997295 266.031008 
L 365.921731 309.726443 
L 368.775691 270.255209 
L 371.562493 274.434985 
L 374.285225 281.329123 
L 376.946767 302.253308 
L 379.549808 263.661696 
L 382.096866 274.512593 
L 384.590298 281.230355 
L 387.032315 273.203338 
L 389.424995 293.786996 
L 391.770291 310.993827 
L 394.070046 292.810609 
L 396.325992 267.374931 
L 398.53977 287.653578 
L 400.712925 282.189366 
L 402.846921 276.270871 
L 404.943147 300.435933 
L 407.002914 298.950601 
L 409.027469 294.570575 
L 411.017997 292.50164 
L 412.975622 315.198166 
L 414.901415 278.600186 
L 416.796393 294.499971 
L 418.661528 302.868838 
L 420.497745 285.589554 
L 422.305927 297.202248 
L 424.086918 305.161499 
L 425.841522 305.07959 
L 427.570511 289.617505 
L 429.274621 312.948145 
L 430.954559 307.602406 
L 432.611 282.141246 
L 434.244593 288.916776 
L 435.85596 294.488049 
L 437.445697 286.501747 
L 439.014377 301.447105 
L 440.562551 318.1596 
L 442.090748 313.756085 
L 443.599477 287.469233 
L 445.089228 320.619795 
L 446.560472 283.628835 
L 448.013664 291.241652 
L 449.44924 287.38451 
L 450.867624 312.381047 
L 452.269222 305.597133 
L 453.654426 294.629571 
L 455.023616 351.687655 
L 456.377158 293.568747 
L 457.715405 302.325214 
L 459.0387 296.472565 
L 460.347372 293.56902 
L 461.641741 284.071615 
L 462.922117 305.432148 
L 464.188799 312.7436 
L 465.442077 300.080443 
L 466.682231 320.652636 
L 467.909533 315.30482 
L 469.124248 292.785992 
L 470.32663 293.640328 
L 470.32663 293.640328 
" style="fill:none;stroke:#008ab8;stroke-linecap:square;stroke-width:5;"/>
   </g>
   <g id="legend_1">
    <g id="patch_7">
     <path d="M 377.2975 152.605 
L 622.6 152.605 
Q 625.8 152.605 625.8 149.405 
L 625.8 58.56 
Q 625.8 55.36 622.6 55.36 
L 377.2975 55.36 
Q 374.0975 55.36 374.0975 58.56 
L 374.0975 149.405 
Q 374.0975 152.605 377.2975 152.605 
z
" style="fill:#4c4c4c;opacity:0.5;stroke:#4c4c4c;stroke-linejoin:miter;"/>
    </g>
    <g id="patch_8">
     <path d="M 375.2975 150.605 
L 620.6 150.605 
Q 623.8 150.605 623.8 147.405 
L 623.8 56.56 
Q 623.8 53.36 620.6 53.36 
L 375.2975 53.36 
Q 372.0975 53.36 372.0975 56.56 
L 372.0975 147.405 
Q 372.0975 150.605 375.2975 150.605 
z
" style="fill:#ffffff;stroke:#cccccc;stroke-linejoin:miter;"/>
    </g>
    <g id="line2d_52">
     <path d="M 378.4975 65.9575 
L 410.4975 65.9575 
" style="fill:none;stroke:#ffed00;stroke-linecap:square;stroke-width:4;"/>
    </g>
    <g id="line2d_53"/>
    <g id="text_27">
     <!-- Altimetry ("sla_unfiltered") -->
     <defs>
      <path d="M 47.953125 0 
L 43.015625 15.09375 
L 16.40625 15.09375 
L 11.140625 0 
L 0.203125 0 
L 29.25 72.515625 
L 31.84375 72.515625 
L 58.796875 0 
z
M 30.078125 53.765625 
L 19 22.265625 
L 40.234375 22.265625 
z
" id="TrebuchetMS-65"/>
      <path d="M 16.15625 72.078125 
Q 18.5625 72.078125 20.234375 70.390625 
Q 21.921875 68.703125 21.921875 66.359375 
Q 21.921875 63.96875 20.234375 62.28125 
Q 18.5625 60.59375 16.15625 60.59375 
Q 13.8125 60.59375 12.125 62.28125 
Q 10.453125 63.96875 10.453125 66.359375 
Q 10.453125 68.75 12.109375 70.40625 
Q 13.765625 72.078125 16.15625 72.078125 
z
M 11.078125 0 
L 11.078125 44.484375 
L 3.90625 44.484375 
L 3.90625 52.296875 
L 20.359375 52.296875 
L 20.359375 0 
z
" id="TrebuchetMS-105"/>
      <path d="M 35.015625 43.359375 
Q 31.984375 45.453125 28.90625 45.453125 
Q 23.96875 45.453125 20.28125 40.90625 
Q 16.609375 36.375 16.609375 29.984375 
L 16.609375 0 
L 7.328125 0 
L 7.328125 52.296875 
L 16.609375 52.296875 
L 16.609375 43.953125 
Q 21.6875 53.265625 31.6875 53.265625 
Q 34.1875 53.265625 38.875 52.390625 
z
" id="TrebuchetMS-114"/>
      <path d="M 11.1875 53.03125 
L 4.6875 53.03125 
L 3.515625 71.625 
L 12.5 71.625 
z
M 27.296875 53.03125 
L 20.796875 53.03125 
L 19.625 71.625 
L 28.609375 71.625 
z
" id="TrebuchetMS-34"/>
      <path d="M 3.171875 3.125 
L 6.453125 11.921875 
Q 14.203125 6.84375 18.953125 6.84375 
Q 27.546875 6.84375 27.546875 14.0625 
Q 27.546875 19.234375 19.234375 22.953125 
Q 12.84375 25.875 10.625 27.390625 
Q 8.40625 28.90625 6.765625 30.828125 
Q 5.125 32.765625 4.3125 34.9375 
Q 3.515625 37.109375 3.515625 39.59375 
Q 3.515625 46.046875 8.203125 49.65625 
Q 12.890625 53.265625 20.453125 53.265625 
Q 26.171875 53.265625 34.859375 49.65625 
L 32.234375 41.0625 
Q 26.703125 45.453125 21.140625 45.453125 
Q 17.828125 45.453125 15.546875 43.890625 
Q 13.28125 42.328125 13.28125 39.9375 
Q 13.28125 34.90625 19 32.328125 
L 25.640625 29.296875 
Q 31.734375 26.515625 34.515625 22.953125 
Q 37.3125 19.390625 37.3125 14.015625 
Q 37.3125 6.984375 32.375 3 
Q 27.4375 -0.984375 18.703125 -0.984375 
Q 10.453125 -0.984375 3.171875 3.125 
z
" id="TrebuchetMS-115"/>
      <path d="M -0.390625 -12.40625 
L -0.390625 -6.109375 
L 52.59375 -6.109375 
L 52.59375 -12.40625 
z
" id="TrebuchetMS-95"/>
      <path d="M 15.375 52.296875 
L 15.375 18.953125 
Q 15.375 6.84375 25.875 6.84375 
Q 30.46875 6.84375 34.28125 9.46875 
Q 38.09375 12.109375 39.3125 15.578125 
L 39.3125 52.296875 
L 48.578125 52.296875 
L 48.578125 0 
L 39.3125 0 
L 39.3125 7.234375 
Q 37.75 4.15625 33.03125 1.578125 
Q 28.328125 -0.984375 23.828125 -0.984375 
Q 15.234375 -0.984375 10.671875 3.953125 
Q 6.109375 8.890625 6.109375 17.96875 
L 6.109375 52.296875 
z
" id="TrebuchetMS-117"/>
      <path d="M 34.859375 65.4375 
Q 32.03125 66.40625 29.59375 66.40625 
Q 25.34375 66.40625 22.578125 63.1875 
Q 19.828125 59.96875 19.828125 55.03125 
Q 19.828125 53.71875 20.0625 52.296875 
L 30.71875 52.296875 
L 30.71875 44.484375 
L 20.0625 44.484375 
L 20.0625 0 
L 10.796875 0 
L 10.796875 44.484375 
L 3.171875 44.484375 
L 3.171875 52.296875 
L 10.796875 52.296875 
Q 10.796875 62.3125 15.71875 68.015625 
Q 20.65625 73.734375 28.765625 73.734375 
Q 32.8125 73.734375 37.453125 72.265625 
z
" id="TrebuchetMS-102"/>
      <path d="M 39.75 0.046875 
L 39.75 3.90625 
Q 34.90625 -0.921875 25.6875 -0.921875 
Q 15.875 -0.921875 9.765625 6.109375 
Q 3.65625 13.140625 3.65625 24.859375 
Q 3.65625 36.625 10.6875 44.9375 
Q 17.71875 53.265625 27.4375 53.265625 
Q 35.546875 53.265625 39.75 49.46875 
L 39.75 73.734375 
L 49.03125 73.734375 
L 49.03125 0.046875 
z
M 39.75 40.1875 
Q 36.234375 45.453125 30.125 45.453125 
Q 22.65625 45.453125 18.03125 39.890625 
Q 13.421875 34.328125 13.421875 25.734375 
Q 13.421875 6.84375 30.609375 6.84375 
Q 32.8125 6.84375 35.890625 8.234375 
Q 38.96875 9.625 39.75 11.1875 
z
" id="TrebuchetMS-100"/>
     </defs>
     <g transform="translate(423.2975 71.5575)scale(0.16 -0.16)">
      <use xlink:href="#TrebuchetMS-65"/>
      <use x="58.984375" xlink:href="#TrebuchetMS-108"/>
      <use x="88.476562" xlink:href="#TrebuchetMS-116"/>
      <use x="128.125" xlink:href="#TrebuchetMS-105"/>
      <use x="156.640625" xlink:href="#TrebuchetMS-109"/>
      <use x="239.648438" xlink:href="#TrebuchetMS-101"/>
      <use x="294.189453" xlink:href="#TrebuchetMS-116"/>
      <use x="333.837891" xlink:href="#TrebuchetMS-114"/>
      <use x="372.705078" xlink:href="#TrebuchetMS-121"/>
      <use x="422.021484" xlink:href="#TrebuchetMS-32"/>
      <use x="452.148438" xlink:href="#TrebuchetMS-40"/>
      <use x="488.867188" xlink:href="#TrebuchetMS-34"/>
      <use x="521.337891" xlink:href="#TrebuchetMS-115"/>
      <use x="561.816406" xlink:href="#TrebuchetMS-108"/>
      <use x="591.308594" xlink:href="#TrebuchetMS-97"/>
      <use x="643.847656" xlink:href="#TrebuchetMS-95"/>
      <use x="696.289062" xlink:href="#TrebuchetMS-117"/>
      <use x="750.927734" xlink:href="#TrebuchetMS-110"/>
      <use x="805.566406" xlink:href="#TrebuchetMS-102"/>
      <use x="842.529297" xlink:href="#TrebuchetMS-105"/>
      <use x="871.044922" xlink:href="#TrebuchetMS-108"/>
      <use x="900.537109" xlink:href="#TrebuchetMS-116"/>
      <use x="940.185547" xlink:href="#TrebuchetMS-101"/>
      <use x="994.726562" xlink:href="#TrebuchetMS-114"/>
      <use x="1033.59375" xlink:href="#TrebuchetMS-101"/>
      <use x="1088.134766" xlink:href="#TrebuchetMS-100"/>
      <use x="1143.847656" xlink:href="#TrebuchetMS-34"/>
      <use x="1176.318359" xlink:href="#TrebuchetMS-41"/>
     </g>
    </g>
    <g id="line2d_54">
     <path d="M 378.4975 89.1 
L 410.4975 89.1 
" style="fill:none;stroke:#008ab8;stroke-linecap:square;stroke-width:5;"/>
    </g>
    <g id="line2d_55"/>
    <g id="text_28">
     <!-- NEMO ("sossheig_bl") -->
     <defs>
      <path d="M 53.5625 -0.984375 
L 16.609375 51.3125 
L 16.609375 0 
L 7.328125 0 
L 7.328125 71.53125 
L 11.234375 71.53125 
L 47.21875 22.078125 
L 47.21875 71.53125 
L 56.5 71.53125 
L 56.5 -0.984375 
z
" id="TrebuchetMS-78"/>
      <path d="M 17.09375 62.75 
L 17.09375 42.875 
L 40.71875 42.875 
L 40.71875 34.578125 
L 17.09375 34.578125 
L 17.09375 8.796875 
L 49.515625 8.796875 
L 49.515625 0 
L 7.328125 0 
L 7.328125 71.53125 
L 50.046875 71.53125 
L 50.046875 62.75 
z
" id="TrebuchetMS-69"/>
      <path d="M 61.1875 0 
L 52.6875 45.953125 
L 37.0625 -0.984375 
L 34.625 -0.984375 
L 18.5625 45.953125 
L 10.25 0 
L 0.984375 0 
L 14.359375 71.53125 
L 18.796875 71.53125 
L 35.84375 19.34375 
L 51.5625 71.53125 
L 55.953125 71.53125 
L 70.453125 0 
z
" id="TrebuchetMS-77"/>
      <path d="M 3.90625 36.375 
Q 3.90625 51.90625 11.6875 62.34375 
Q 19.484375 72.796875 32.71875 72.796875 
Q 47.609375 72.796875 55.546875 63.171875 
Q 63.484375 53.5625 63.484375 36.375 
Q 63.484375 18.75 55.515625 8.765625 
Q 47.5625 -1.21875 32.71875 -1.21875 
Q 19.1875 -1.21875 11.546875 9.328125 
Q 3.90625 19.875 3.90625 36.375 
z
M 14.15625 36.375 
Q 14.15625 24.078125 19.015625 15.8125 
Q 23.875 7.5625 32.71875 7.5625 
Q 42.71875 7.5625 47.96875 15.125 
Q 53.21875 22.703125 53.21875 36.375 
Q 53.21875 64.015625 32.71875 64.015625 
Q 23.640625 64.015625 18.890625 56.59375 
Q 14.15625 49.171875 14.15625 36.375 
z
" id="TrebuchetMS-79"/>
      <path d="M 3.171875 26.265625 
Q 3.171875 38.375 9.6875 45.8125 
Q 16.21875 53.265625 26.859375 53.265625 
Q 38.09375 53.265625 44.28125 46.109375 
Q 50.484375 38.96875 50.484375 26.265625 
Q 50.484375 13.625 44.140625 6.3125 
Q 37.796875 -0.984375 26.859375 -0.984375 
Q 15.671875 -0.984375 9.421875 6.390625 
Q 3.171875 13.765625 3.171875 26.265625 
z
M 12.9375 26.265625 
Q 12.9375 6.59375 26.859375 6.59375 
Q 33.34375 6.59375 37.03125 11.859375 
Q 40.71875 17.140625 40.71875 26.265625 
Q 40.71875 45.703125 26.859375 45.703125 
Q 20.515625 45.703125 16.71875 40.53125 
Q 12.9375 35.359375 12.9375 26.265625 
z
" id="TrebuchetMS-111"/>
      <path d="M 14.5 3.765625 
L 11.234375 -0.984375 
L 6.59375 -0.984375 
L 6.59375 73.734375 
L 15.875 73.734375 
L 15.875 48.4375 
Q 17.1875 50.25 20.828125 51.75 
Q 24.46875 53.265625 27.984375 53.265625 
Q 38.71875 53.265625 45.375 45.84375 
Q 52.046875 38.421875 52.046875 27.09375 
Q 52.046875 14.015625 45.359375 6.515625 
Q 38.671875 -0.984375 27.25 -0.984375 
Q 23.53125 -0.984375 19.9375 0.40625 
Q 16.359375 1.8125 14.5 3.765625 
z
M 15.875 41.359375 
L 15.875 11.1875 
Q 15.875 10.40625 19.328125 8.625 
Q 22.796875 6.84375 24.609375 6.84375 
Q 34.078125 6.84375 38.171875 11.375 
Q 42.28125 15.921875 42.28125 26.609375 
Q 42.28125 35.5 37.5 40.46875 
Q 32.71875 45.453125 24.609375 45.453125 
Q 22.90625 45.453125 19.84375 43.984375 
Q 16.796875 42.53125 15.875 41.359375 
z
" id="TrebuchetMS-98"/>
     </defs>
     <g transform="translate(423.2975 94.7)scale(0.16 -0.16)">
      <use xlink:href="#TrebuchetMS-78"/>
      <use x="63.818359" xlink:href="#TrebuchetMS-69"/>
      <use x="117.382812" xlink:href="#TrebuchetMS-77"/>
      <use x="188.330078" xlink:href="#TrebuchetMS-79"/>
      <use x="255.712891" xlink:href="#TrebuchetMS-32"/>
      <use x="285.839844" xlink:href="#TrebuchetMS-40"/>
      <use x="322.558594" xlink:href="#TrebuchetMS-34"/>
      <use x="355.029297" xlink:href="#TrebuchetMS-115"/>
      <use x="395.507812" xlink:href="#TrebuchetMS-111"/>
      <use x="449.169922" xlink:href="#TrebuchetMS-115"/>
      <use x="489.648438" xlink:href="#TrebuchetMS-115"/>
      <use x="530.126953" xlink:href="#TrebuchetMS-104"/>
      <use x="584.765625" xlink:href="#TrebuchetMS-101"/>
      <use x="639.306641" xlink:href="#TrebuchetMS-105"/>
      <use x="667.822266" xlink:href="#TrebuchetMS-103"/>
      <use x="718.017578" xlink:href="#TrebuchetMS-95"/>
      <use x="770.458984" xlink:href="#TrebuchetMS-98"/>
      <use x="826.171875" xlink:href="#TrebuchetMS-108"/>
      <use x="855.664062" xlink:href="#TrebuchetMS-34"/>
      <use x="888.134766" xlink:href="#TrebuchetMS-41"/>
     </g>
    </g>
    <g id="line2d_56">
     <path d="M 378.4975 112.2425 
L 410.4975 112.2425 
" style="fill:none;stroke:#000000;stroke-dasharray:7.4,3.2;stroke-dashoffset:0;stroke-width:2;"/>
    </g>
    <g id="line2d_57"/>
    <g id="text_29">
     <!-- k$^\mathregular{-2}$ -->
     <g transform="translate(423.2975 117.8425)scale(0.16 -0.16)">
      <use transform="translate(0 0.760938)" xlink:href="#TrebuchetMS-107"/>
      <use transform="translate(51.396484 39.042188)scale(0.7)" xlink:href="#TrebuchetMS-8722"/>
      <use transform="translate(88.105469 39.042188)scale(0.7)" xlink:href="#TrebuchetMS-50"/>
     </g>
    </g>
    <g id="line2d_58">
     <path d="M 378.4975 135.3225 
L 410.4975 135.3225 
" style="fill:none;stroke:#999999;stroke-dasharray:7.4,3.2;stroke-dashoffset:0;stroke-width:2;"/>
    </g>
    <g id="line2d_59"/>
    <g id="text_30">
     <!-- k$^\mathregular{-5}$ -->
     <g transform="translate(423.2975 140.9225)scale(0.16 -0.16)">
      <use transform="translate(0 0.439063)" xlink:href="#TrebuchetMS-107"/>
      <use transform="translate(51.396484 38.720313)scale(0.7)" xlink:href="#TrebuchetMS-8722"/>
      <use transform="translate(88.105469 38.720313)scale(0.7)" xlink:href="#TrebuchetMS-53"/>
     </g>
    </g>
   </g>
   <g id="line2d_60">
    <path clip-path="url(#pe00d7bb6f1)" d="M -1 131.817175 
L 8.201863 130.426469 
L 56.222566 163.896356 
L 90.293796 174.116384 
L 116.721496 170.645411 
L 138.314499 212.660892 
L 156.571122 200.626192 
L 172.385729 187.949839 
L 186.335201 209.258798 
L 198.813429 203.455328 
L 220.406432 202.953832 
L 229.88618 224.40998 
L 238.663055 222.751908 
L 246.834131 219.558265 
L 254.477662 221.387434 
L 261.657656 237.439534 
L 268.427134 258.151769 
L 274.830511 227.828035 
L 280.905362 241.700365 
L 286.683758 271.674681 
L 292.193292 234.660528 
L 297.457875 243.158367 
L 302.498365 237.820378 
L 307.333062 273.771976 
L 311.978113 232.59633 
L 316.447837 256.215108 
L 320.754988 251.271719 
L 324.910981 247.776635 
L 328.926064 292.963742 
L 332.809482 244.280761 
L 336.569595 293.928468 
L 340.213994 239.248599 
L 343.749589 253.816455 
L 347.182688 259.746094 
L 350.519067 268.471824 
L 353.764027 283.214852 
L 356.922444 261.611222 
L 359.998815 287.289528 
L 362.997295 324.835224 
L 365.921731 259.459881 
L 368.775691 306.237216 
L 371.562493 268.723164 
L 374.285225 278.257552 
L 376.946767 263.621966 
L 379.549808 276.898269 
L 382.096866 266.696172 
L 384.590298 280.331799 
L 387.032315 272.909831 
L 389.424995 268.08483 
L 391.770291 304.181607 
L 394.070046 289.637574 
L 396.325992 310.483297 
L 398.53977 266.745587 
L 400.712925 259.605153 
L 402.846921 263.325252 
L 404.943147 294.878848 
L 407.002914 317.346079 
L 409.027469 310.280168 
L 411.017997 276.72399 
L 412.975622 291.822673 
L 414.901415 282.916628 
L 416.796393 314.776584 
L 418.661528 268.150944 
L 420.497745 273.303473 
L 422.305927 286.54141 
L 424.086918 279.685357 
L 425.841522 312.794762 
L 427.570511 280.018304 
L 429.274621 303.624712 
L 430.954559 264.830021 
L 432.611 270.260412 
L 434.244593 259.381195 
L 435.85596 277.306297 
L 437.445697 298.842353 
L 439.014377 282.351635 
L 440.562551 271.467246 
L 442.090748 292.737152 
L 443.599477 280.07906 
L 445.089228 282.866709 
L 446.560472 274.427855 
L 448.013664 308.224044 
L 449.44924 280.962798 
L 450.867624 279.521065 
L 452.269222 297.534965 
L 453.654426 289.230159 
L 455.023616 284.682146 
L 456.377158 270.526173 
L 457.715405 299.068443 
L 459.0387 284.123102 
L 460.347372 299.059549 
L 461.641741 278.58137 
L 462.922117 267.987469 
L 464.188799 298.860667 
L 465.442077 279.260561 
L 466.682231 306.884645 
L 467.909533 283.758613 
L 469.124248 286.586745 
L 470.32663 288.535839 
L 470.32663 288.535839 
" style="fill:none;stroke:#ffed00;stroke-linecap:square;stroke-width:4;"/>
   </g>
  </g>
  <g id="axes_2">
   <g id="matplotlib.axis_3">
    <g id="xtick_14">
     <g id="line2d_61">
      <defs>
       <path d="M 0 0 
L 0 -3.5 
" id="m48e63f3cd4" style="stroke:#000000;stroke-width:0.8;"/>
      </defs>
      <g>
       <use style="stroke:#000000;stroke-width:0.8;" x="86.393003" xlink:href="#m48e63f3cd4" y="45.36"/>
      </g>
     </g>
     <g id="text_31">
      <!-- $\mathregular{10^{-3}}$ -->
      <g style="fill:#4c4c4c;" transform="translate(71.833003 35.0775)scale(0.16 -0.16)">
       <use transform="translate(0 0.434375)" xlink:href="#TrebuchetMS-49"/>
       <use transform="translate(52.441406 0.434375)" xlink:href="#TrebuchetMS-48"/>
       <use transform="translate(105.798008 37.042188)scale(0.7)" xlink:href="#TrebuchetMS-8722"/>
       <use transform="translate(142.506992 37.042188)scale(0.7)" xlink:href="#TrebuchetMS-51"/>
      </g>
     </g>
    </g>
    <g id="xtick_15">
     <g id="line2d_62">
      <g>
       <use style="stroke:#000000;stroke-width:0.8;" x="359.096501" xlink:href="#m48e63f3cd4" y="45.36"/>
      </g>
     </g>
     <g id="text_32">
      <!-- $\mathregular{10^{-2}}$ -->
      <g style="fill:#4c4c4c;" transform="translate(344.536501 35.0775)scale(0.16 -0.16)">
       <use transform="translate(0 0.434375)" xlink:href="#TrebuchetMS-49"/>
       <use transform="translate(52.441406 0.434375)" xlink:href="#TrebuchetMS-48"/>
       <use transform="translate(105.798008 37.042188)scale(0.7)" xlink:href="#TrebuchetMS-8722"/>
       <use transform="translate(142.506992 37.042188)scale(0.7)" xlink:href="#TrebuchetMS-50"/>
      </g>
     </g>
    </g>
    <g id="xtick_16">
     <g id="line2d_63">
      <g>
       <use style="stroke:#000000;stroke-width:0.8;" x="631.8" xlink:href="#m48e63f3cd4" y="45.36"/>
      </g>
     </g>
     <g id="text_33">
      <!-- $\mathregular{10^{-1}}$ -->
      <g style="fill:#4c4c4c;" transform="translate(617.24 35.0775)scale(0.16 -0.16)">
       <use transform="translate(0 0.1125)" xlink:href="#TrebuchetMS-49"/>
       <use transform="translate(52.441406 0.1125)" xlink:href="#TrebuchetMS-48"/>
       <use transform="translate(105.798008 36.720313)scale(0.7)" xlink:href="#TrebuchetMS-8722"/>
       <use transform="translate(142.506992 36.720313)scale(0.7)" xlink:href="#TrebuchetMS-49"/>
      </g>
     </g>
    </g>
    <g id="text_34">
     <!-- Wave-number [cy/km] -->
     <g style="fill:#4c4c4c;" transform="translate(267.69 19.28)scale(0.16 -0.16)">
      <use xlink:href="#TrebuchetMS-87"/>
      <use x="85.126953" xlink:href="#TrebuchetMS-97"/>
      <use x="137.666016" xlink:href="#TrebuchetMS-118"/>
      <use x="186.640625" xlink:href="#TrebuchetMS-101"/>
      <use x="241.181641" xlink:href="#TrebuchetMS-45"/>
      <use x="277.900391" xlink:href="#TrebuchetMS-110"/>
      <use x="332.539062" xlink:href="#TrebuchetMS-117"/>
      <use x="387.177734" xlink:href="#TrebuchetMS-109"/>
      <use x="470.185547" xlink:href="#TrebuchetMS-98"/>
      <use x="525.898438" xlink:href="#TrebuchetMS-101"/>
      <use x="580.439453" xlink:href="#TrebuchetMS-114"/>
      <use x="619.306641" xlink:href="#TrebuchetMS-32"/>
      <use x="649.433594" xlink:href="#TrebuchetMS-91"/>
      <use x="686.152344" xlink:href="#TrebuchetMS-99"/>
      <use x="735.664062" xlink:href="#TrebuchetMS-121"/>
      <use x="784.980469" xlink:href="#TrebuchetMS-47"/>
      <use x="837.421875" xlink:href="#TrebuchetMS-107"/>
      <use x="887.861328" xlink:href="#TrebuchetMS-109"/>
      <use x="970.869141" xlink:href="#TrebuchetMS-93"/>
     </g>
    </g>
   </g>
   <g id="patch_9">
    <path d="M 64.8 602.64 
L 64.8 45.36 
" style="fill:none;stroke:#000000;stroke-linecap:square;stroke-linejoin:miter;stroke-width:0.8;"/>
   </g>
   <g id="patch_10">
    <path d="M 631.8 602.64 
L 631.8 45.36 
" style="fill:none;stroke:#000000;stroke-linecap:square;stroke-linejoin:miter;stroke-width:0.8;"/>
   </g>
   <g id="patch_11">
    <path d="M 64.8 602.64 
L 631.8 602.64 
" style="fill:none;stroke:#000000;stroke-linecap:square;stroke-linejoin:miter;stroke-width:0.8;"/>
   </g>
   <g id="patch_12">
    <path d="M 64.8 45.36 
L 631.8 45.36 
" style="fill:none;stroke:#000000;stroke-linecap:square;stroke-linejoin:miter;stroke-width:0.8;"/>
   </g>
   <g id="text_35">
    <g id="patch_13">
     <path d="M 100.24 481.4528 
L 211.12 481.4528 
L 211.12 400.4183 
L 100.24 400.4183 
z
" style="fill:#e6e6e6;stroke:#000000;stroke-linejoin:miter;"/>
    </g>
    <!--  2017 -->
    <defs>
     <path id="UbuntuMono-Regular-32"/>
     <path d="M 42 46.09375 
Q 42 42.90625 40.75 39.90625 
Q 39.5 36.90625 37.453125 34 
Q 35.40625 31.09375 32.796875 28.296875 
Q 30.203125 25.5 27.5 22.796875 
Q 26 21.296875 24 19.1875 
Q 22 17.09375 20.203125 14.890625 
Q 18.40625 12.703125 17.203125 10.59375 
Q 16 8.5 16 7 
L 44.5 7 
L 44.5 0 
L 7 0 
Q 6.90625 0.5 6.90625 1.046875 
Q 6.90625 1.59375 6.90625 2.09375 
Q 6.90625 6.296875 8.296875 9.890625 
Q 9.703125 13.5 11.890625 16.703125 
Q 14.09375 19.90625 16.84375 22.75 
Q 19.59375 25.59375 22.296875 28.296875 
Q 24.5 30.5 26.546875 32.59375 
Q 28.59375 34.703125 30.140625 36.796875 
Q 31.703125 38.90625 32.640625 41.15625 
Q 33.59375 43.40625 33.59375 45.796875 
Q 33.59375 48.5 32.75 50.390625 
Q 31.90625 52.296875 30.453125 53.546875 
Q 29 54.796875 27.09375 55.390625 
Q 25.203125 56 23 56 
Q 20.40625 56 18.25 55.296875 
Q 16.09375 54.59375 14.4375 53.59375 
Q 12.796875 52.59375 11.59375 51.640625 
Q 10.40625 50.703125 9.796875 50.09375 
L 5.703125 55.90625 
Q 6.5 56.796875 8.09375 58.09375 
Q 9.703125 59.40625 11.953125 60.546875 
Q 14.203125 61.703125 17 62.5 
Q 19.796875 63.296875 23 63.296875 
Q 32.703125 63.296875 37.34375 58.84375 
Q 42 54.40625 42 46.09375 
z
" id="UbuntuMono-Regular-50"/>
     <path d="M 30.796875 32.09375 
Q 30.796875 29.5 29.25 27.59375 
Q 27.703125 25.703125 25.203125 25.703125 
Q 22.59375 25.703125 21 27.59375 
Q 19.40625 29.5 19.40625 32.09375 
Q 19.40625 34.703125 21 36.703125 
Q 22.59375 38.703125 25.203125 38.703125 
Q 27.703125 38.703125 29.25 36.703125 
Q 30.796875 34.703125 30.796875 32.09375 
z
M 4.59375 31 
Q 4.59375 46.59375 9.9375 54.9375 
Q 15.296875 63.296875 25 63.296875 
Q 34.796875 63.296875 40.09375 54.9375 
Q 45.40625 46.59375 45.40625 31 
Q 45.40625 15.40625 40.09375 7.046875 
Q 34.796875 -1.296875 25 -1.296875 
Q 15.296875 -1.296875 9.9375 7.046875 
Q 4.59375 15.40625 4.59375 31 
z
M 37 31 
Q 37 36.09375 36.390625 40.640625 
Q 35.796875 45.203125 34.390625 48.59375 
Q 33 52 30.703125 54 
Q 28.40625 56 25 56 
Q 21.59375 56 19.296875 54 
Q 17 52 15.59375 48.59375 
Q 14.203125 45.203125 13.59375 40.640625 
Q 13 36.09375 13 31 
Q 13 25.90625 13.59375 21.34375 
Q 14.203125 16.796875 15.59375 13.390625 
Q 17 10 19.296875 8 
Q 21.59375 6 25 6 
Q 28.40625 6 30.703125 8 
Q 33 10 34.390625 13.390625 
Q 35.796875 16.796875 36.390625 21.34375 
Q 37 25.90625 37 31 
z
" id="UbuntuMono-Regular-48"/>
     <path d="M 7.5 49.09375 
Q 12.59375 51.09375 17.390625 54.140625 
Q 22.203125 57.203125 26.296875 61.90625 
L 32.09375 61.90625 
L 32.09375 7 
L 43.796875 7 
L 43.796875 0 
L 10.5 0 
L 10.5 7 
L 23.90625 7 
L 23.90625 50.40625 
Q 22.796875 49.40625 21.25 48.34375 
Q 19.703125 47.296875 17.84375 46.296875 
Q 16 45.296875 14 44.390625 
Q 12 43.5 10.09375 42.90625 
z
" id="UbuntuMono-Regular-49"/>
     <path d="M 15.5 0 
Q 16 7.09375 18.046875 15.046875 
Q 20.09375 23 23 30.453125 
Q 25.90625 37.90625 29.40625 44.25 
Q 32.90625 50.59375 36.296875 54.703125 
L 6.296875 54.703125 
L 6.296875 61.90625 
L 45.5 61.90625 
L 45.5 55 
Q 42.5 51.5 39 45.59375 
Q 35.5 39.703125 32.34375 32.34375 
Q 29.203125 25 26.890625 16.640625 
Q 24.59375 8.296875 24 0 
z
" id="UbuntuMono-Regular-55"/>
    </defs>
    <g transform="translate(110.16 421.3458)scale(0.16 -0.16)">
     <use xlink:href="#UbuntuMono-Regular-32"/>
     <use x="49.999985" xlink:href="#UbuntuMono-Regular-50"/>
     <use x="99.999969" xlink:href="#UbuntuMono-Regular-48"/>
     <use x="149.999954" xlink:href="#UbuntuMono-Regular-49"/>
     <use x="199.999939" xlink:href="#UbuntuMono-Regular-55"/>
    </g>
    <!-- 3 tracks -->
    <defs>
     <path d="M 21.203125 6 
Q 29.09375 6 32.4375 9.140625 
Q 35.796875 12.296875 35.796875 17.59375 
Q 35.796875 21 34.390625 23.296875 
Q 33 25.59375 30.703125 27 
Q 28.40625 28.40625 25.40625 29 
Q 22.40625 29.59375 19.09375 29.59375 
L 17 29.59375 
L 17 36.296875 
L 19.90625 36.296875 
Q 22.09375 36.296875 24.4375 36.75 
Q 26.796875 37.203125 28.75 38.34375 
Q 30.703125 39.5 31.890625 41.5 
Q 33.09375 43.5 33.09375 46.59375 
Q 33.09375 51.703125 29.9375 53.84375 
Q 26.796875 56 22.59375 56 
Q 18.296875 56 15.296875 54.75 
Q 12.296875 53.5 10.296875 52.203125 
L 7.09375 58.5 
Q 9.203125 60 13.453125 61.640625 
Q 17.703125 63.296875 22.90625 63.296875 
Q 27.796875 63.296875 31.296875 62.09375 
Q 34.796875 60.90625 37.046875 58.703125 
Q 39.296875 56.5 40.390625 53.546875 
Q 41.5 50.59375 41.5 47.09375 
Q 41.5 42.203125 38.953125 38.796875 
Q 36.40625 35.40625 32.40625 33.59375 
Q 37.203125 32.203125 40.703125 28.140625 
Q 44.203125 24.09375 44.203125 17.40625 
Q 44.203125 13.40625 42.84375 9.953125 
Q 41.5 6.5 38.75 4 
Q 36 1.5 31.640625 0.09375 
Q 27.296875 -1.296875 21.296875 -1.296875 
Q 19 -1.296875 16.546875 -0.9375 
Q 14.09375 -0.59375 12 -0.046875 
Q 9.90625 0.5 8.25 1.046875 
Q 6.59375 1.59375 5.90625 1.90625 
L 7.5 9 
Q 9.09375 8.203125 12.59375 7.09375 
Q 16.09375 6 21.203125 6 
z
" id="UbuntuMono-Regular-51"/>
     <path d="M 24.296875 46.40625 
L 43.90625 46.40625 
L 43.90625 39.5 
L 24.296875 39.5 
L 24.296875 17.90625 
Q 24.296875 14.40625 24.796875 12.203125 
Q 25.296875 10 26.4375 8.640625 
Q 27.59375 7.296875 29.390625 6.796875 
Q 31.203125 6.296875 33.796875 6.296875 
Q 37.40625 6.296875 39.59375 6.890625 
Q 41.796875 7.5 43.796875 8.5 
L 45 1.5 
Q 43.59375 0.90625 40.546875 -0.09375 
Q 37.5 -1.09375 33 -1.09375 
Q 27.796875 -1.09375 24.5 0.09375 
Q 21.203125 1.296875 19.34375 3.6875 
Q 17.5 6.09375 16.796875 9.640625 
Q 16.09375 13.203125 16.09375 17.90625 
L 16.09375 39.5 
L 6.296875 39.5 
L 6.296875 46.40625 
L 16.09375 46.40625 
L 16.09375 59.40625 
L 24.296875 60.796875 
z
" id="UbuntuMono-Regular-116"/>
     <path d="M 10.703125 0 
L 10.703125 43.90625 
Q 20.90625 47.40625 31.296875 47.40625 
Q 34.5 47.40625 37.390625 47.15625 
Q 40.296875 46.90625 43.796875 46.09375 
L 42.296875 38.796875 
Q 39.09375 39.703125 36.640625 39.953125 
Q 34.203125 40.203125 31.296875 40.203125 
Q 25.203125 40.203125 18.90625 38.5 
L 18.90625 0 
z
" id="UbuntuMono-Regular-114"/>
     <path d="M 25.5 5.90625 
Q 28.59375 5.90625 31.046875 6.09375 
Q 33.5 6.296875 35.09375 6.59375 
L 35.09375 20.40625 
Q 33.5 20.90625 31.25 21.203125 
Q 29 21.5 26.5 21.5 
Q 24.203125 21.5 22 21.140625 
Q 19.796875 20.796875 18.09375 19.890625 
Q 16.40625 19 15.296875 17.546875 
Q 14.203125 16.09375 14.203125 13.90625 
Q 14.203125 9.40625 17.25 7.65625 
Q 20.296875 5.90625 25.5 5.90625 
z
M 24.703125 47.5 
Q 29.90625 47.5 33.453125 46.203125 
Q 37 44.90625 39.203125 42.59375 
Q 41.40625 40.296875 42.296875 37 
Q 43.203125 33.703125 43.203125 29.796875 
L 43.203125 0.796875 
Q 40.296875 0.296875 35.546875 -0.390625 
Q 30.796875 -1.09375 25.796875 -1.09375 
Q 22 -1.09375 18.390625 -0.4375 
Q 14.796875 0.203125 12 1.84375 
Q 9.203125 3.5 7.5 6.390625 
Q 5.796875 9.296875 5.796875 13.796875 
Q 5.796875 17.796875 7.546875 20.546875 
Q 9.296875 23.296875 12.046875 25 
Q 14.796875 26.703125 18.34375 27.453125 
Q 21.90625 28.203125 25.5 28.203125 
Q 30.40625 28.203125 35.09375 27.09375 
L 35.09375 29.40625 
Q 35.09375 31.5 34.640625 33.453125 
Q 34.203125 35.40625 32.953125 37 
Q 31.703125 38.59375 29.546875 39.546875 
Q 27.40625 40.5 24 40.5 
Q 19.703125 40.5 16.5 39.890625 
Q 13.296875 39.296875 11.59375 38.703125 
L 10.59375 45.5 
Q 12.296875 46.296875 16.25 46.890625 
Q 20.203125 47.5 24.703125 47.5 
z
" id="UbuntuMono-Regular-97"/>
     <path d="M 4.90625 23.09375 
Q 4.90625 29.40625 6.90625 34 
Q 8.90625 38.59375 12.40625 41.59375 
Q 15.90625 44.59375 20.546875 46.046875 
Q 25.203125 47.5 30.5 47.5 
Q 33.90625 47.5 37.25 47.046875 
Q 40.59375 46.59375 44.40625 45.40625 
L 42.5 38.296875 
Q 39.203125 39.5 36.453125 39.84375 
Q 33.703125 40.203125 30.90625 40.203125 
Q 27.296875 40.203125 24.09375 39.25 
Q 20.90625 38.296875 18.546875 36.25 
Q 16.203125 34.203125 14.796875 30.953125 
Q 13.40625 27.703125 13.40625 23.09375 
Q 13.40625 18.703125 14.703125 15.546875 
Q 16 12.40625 18.34375 10.34375 
Q 20.703125 8.296875 24 7.296875 
Q 27.296875 6.296875 31.296875 6.296875 
Q 34.5 6.296875 37.453125 6.640625 
Q 40.40625 7 43.90625 8.203125 
L 45.09375 1.296875 
Q 41.59375 0 38 -0.546875 
Q 34.40625 -1.09375 30.203125 -1.09375 
Q 24.59375 -1.09375 19.9375 0.453125 
Q 15.296875 2 11.9375 5 
Q 8.59375 8 6.75 12.546875 
Q 4.90625 17.09375 4.90625 23.09375 
z
" id="UbuntuMono-Regular-99"/>
     <path d="M 23.796875 25.5 
Q 26.5 23.5 29.890625 20.453125 
Q 33.296875 17.40625 36.640625 13.90625 
Q 40 10.40625 43 6.75 
Q 46 3.09375 47.796875 0 
L 38 0 
Q 36.09375 3.09375 33.296875 6.34375 
Q 30.5 9.59375 27.34375 12.59375 
Q 24.203125 15.59375 21.046875 18.09375 
Q 17.90625 20.59375 15.40625 22.296875 
L 15.40625 0 
L 7.09375 0 
L 7.09375 67.90625 
L 15.40625 69.296875 
L 15.40625 27 
Q 20.90625 31.796875 26.40625 36.546875 
Q 31.90625 41.296875 36.296875 46.40625 
L 46 46.40625 
Q 41.703125 41.296875 35.640625 35.890625 
Q 29.59375 30.5 23.796875 25.5 
z
" id="UbuntuMono-Regular-107"/>
     <path d="M 35.09375 11.59375 
Q 35.09375 14.09375 33.046875 15.6875 
Q 31 17.296875 27.953125 18.5 
Q 24.90625 19.703125 21.296875 20.84375 
Q 17.703125 22 14.640625 23.703125 
Q 11.59375 25.40625 9.546875 27.90625 
Q 7.5 30.40625 7.5 34.40625 
Q 7.5 40 12.046875 43.75 
Q 16.59375 47.5 26.296875 47.5 
Q 30.09375 47.5 34.140625 46.953125 
Q 38.203125 46.40625 41.09375 45.5 
L 39.59375 38.09375 
Q 38.796875 38.5 37.390625 38.953125 
Q 36 39.40625 34.203125 39.75 
Q 32.40625 40.09375 30.34375 40.296875 
Q 28.296875 40.5 26.40625 40.5 
Q 15.59375 40.5 15.59375 34.59375 
Q 15.59375 32.5 17.640625 31.046875 
Q 19.703125 29.59375 22.796875 28.390625 
Q 25.90625 27.203125 29.5 25.953125 
Q 33.09375 24.703125 36.1875 22.890625 
Q 39.296875 21.09375 41.34375 18.546875 
Q 43.40625 16 43.40625 12.09375 
Q 43.40625 5.796875 38.5 2.34375 
Q 33.59375 -1.09375 23 -1.09375 
Q 18.203125 -1.09375 14.203125 -0.296875 
Q 10.203125 0.5 6.59375 2.09375 
L 8.203125 9.59375 
Q 11.703125 8 15.546875 6.953125 
Q 19.40625 5.90625 23.796875 5.90625 
Q 35.09375 5.90625 35.09375 11.59375 
z
" id="UbuntuMono-Regular-115"/>
    </defs>
    <g transform="translate(110.16 437.1948)scale(0.16 -0.16)">
     <use xlink:href="#UbuntuMono-Regular-51"/>
     <use x="49.999985" xlink:href="#UbuntuMono-Regular-32"/>
     <use x="99.999969" xlink:href="#UbuntuMono-Regular-116"/>
     <use x="149.999954" xlink:href="#UbuntuMono-Regular-114"/>
     <use x="199.999939" xlink:href="#UbuntuMono-Regular-97"/>
     <use x="249.999924" xlink:href="#UbuntuMono-Regular-99"/>
     <use x="299.999908" xlink:href="#UbuntuMono-Regular-107"/>
     <use x="349.999893" xlink:href="#UbuntuMono-Regular-115"/>
    </g>
    <!-- 200 points -->
    <defs>
     <path d="M 37.5 23.09375 
Q 37.5 31.203125 33.703125 35.640625 
Q 29.90625 40.09375 23.796875 40.09375 
Q 20.40625 40.09375 18.453125 39.796875 
Q 16.5 39.5 15.40625 39.09375 
L 15.40625 9.796875 
Q 16.796875 8.5 19.5 7.390625 
Q 22.203125 6.296875 25.09375 6.296875 
Q 28.40625 6.296875 30.75 7.59375 
Q 33.09375 8.90625 34.59375 11.15625 
Q 36.09375 13.40625 36.796875 16.453125 
Q 37.5 19.5 37.5 23.09375 
z
M 46 23.09375 
Q 46 17.796875 44.640625 13.34375 
Q 43.296875 8.90625 40.75 5.703125 
Q 38.203125 2.5 34.5 0.703125 
Q 30.796875 -1.09375 26.09375 -1.09375 
Q 22.40625 -1.09375 19.59375 -0.1875 
Q 16.796875 0.703125 15.40625 1.796875 
L 15.40625 -16.5 
L 7.09375 -16.5 
L 7.09375 45 
Q 9.796875 45.796875 14.046875 46.59375 
Q 18.296875 47.40625 23.796875 47.40625 
Q 28.796875 47.40625 32.890625 45.703125 
Q 37 44 39.890625 40.84375 
Q 42.796875 37.703125 44.390625 33.203125 
Q 46 28.703125 46 23.09375 
z
" id="UbuntuMono-Regular-112"/>
     <path d="M 46 23.203125 
Q 46 17.703125 44.453125 13.25 
Q 42.90625 8.796875 40.09375 5.59375 
Q 37.296875 2.40625 33.390625 0.65625 
Q 29.5 -1.09375 24.90625 -1.09375 
Q 20.40625 -1.09375 16.546875 0.65625 
Q 12.703125 2.40625 9.890625 5.59375 
Q 7.09375 8.796875 5.546875 13.25 
Q 4 17.703125 4 23.203125 
Q 4 28.703125 5.546875 33.203125 
Q 7.09375 37.703125 9.890625 40.84375 
Q 12.703125 44 16.546875 45.75 
Q 20.40625 47.5 24.90625 47.5 
Q 29.5 47.5 33.390625 45.75 
Q 37.296875 44 40.09375 40.84375 
Q 42.90625 37.703125 44.453125 33.203125 
Q 46 28.703125 46 23.203125 
z
M 37.5 23.203125 
Q 37.5 31.09375 34.09375 35.640625 
Q 30.703125 40.203125 24.90625 40.203125 
Q 19.203125 40.203125 15.84375 35.640625 
Q 12.5 31.09375 12.5 23.203125 
Q 12.5 15.40625 15.84375 10.84375 
Q 19.203125 6.296875 24.90625 6.296875 
Q 30.703125 6.296875 34.09375 10.84375 
Q 37.5 15.40625 37.5 23.203125 
z
" id="UbuntuMono-Regular-111"/>
     <path d="M 20.90625 53.59375 
Q 18.296875 53.59375 16.390625 55.390625 
Q 14.5 57.203125 14.5 60.296875 
Q 14.5 63.40625 16.390625 65.203125 
Q 18.296875 67 20.90625 67 
Q 23.59375 67 25.4375 65.203125 
Q 27.296875 63.40625 27.296875 60.296875 
Q 27.296875 57.203125 25.4375 55.390625 
Q 23.59375 53.59375 20.90625 53.59375 
z
M 18.796875 39.5 
L 5.40625 39.5 
L 5.40625 46.40625 
L 27 46.40625 
L 27 17.90625 
Q 27 11 28.890625 8.640625 
Q 30.796875 6.296875 34.59375 6.296875 
Q 37.5 6.296875 39.953125 7 
Q 42.40625 7.703125 43.796875 8.5 
L 45 1.5 
Q 44.40625 1.203125 43.296875 0.75 
Q 42.203125 0.296875 40.75 -0.09375 
Q 39.296875 -0.5 37.546875 -0.796875 
Q 35.796875 -1.09375 33.90625 -1.09375 
Q 29.5 -1.09375 26.59375 0.09375 
Q 23.703125 1.296875 21.953125 3.6875 
Q 20.203125 6.09375 19.5 9.640625 
Q 18.796875 13.203125 18.796875 17.90625 
z
" id="UbuntuMono-Regular-105"/>
     <path d="M 7.09375 45.09375 
Q 11.59375 46.203125 16.046875 46.796875 
Q 20.5 47.40625 24.40625 47.40625 
Q 33.703125 47.40625 38.453125 42.59375 
Q 43.203125 37.796875 43.203125 27.203125 
L 43.203125 0 
L 35 0 
L 35 25.703125 
Q 35 30.203125 34.203125 33 
Q 33.40625 35.796875 31.953125 37.34375 
Q 30.5 38.90625 28.453125 39.5 
Q 26.40625 40.09375 24 40.09375 
Q 22 40.09375 19.75 39.84375 
Q 17.5 39.59375 15.40625 39.203125 
L 15.40625 0 
L 7.09375 0 
z
" id="UbuntuMono-Regular-110"/>
    </defs>
    <g transform="translate(110.16 453.0438)scale(0.16 -0.16)">
     <use xlink:href="#UbuntuMono-Regular-50"/>
     <use x="49.999985" xlink:href="#UbuntuMono-Regular-48"/>
     <use x="99.999969" xlink:href="#UbuntuMono-Regular-48"/>
     <use x="149.999954" xlink:href="#UbuntuMono-Regular-32"/>
     <use x="199.999939" xlink:href="#UbuntuMono-Regular-112"/>
     <use x="249.999924" xlink:href="#UbuntuMono-Regular-111"/>
     <use x="299.999908" xlink:href="#UbuntuMono-Regular-105"/>
     <use x="349.999893" xlink:href="#UbuntuMono-Regular-110"/>
     <use x="399.999878" xlink:href="#UbuntuMono-Regular-116"/>
     <use x="449.999863" xlink:href="#UbuntuMono-Regular-115"/>
    </g>
    <!-- $\Delta$L: 15.4 km -->
    <defs>
     <path d="M 34.1875 63.1875 
L 14.15625 8.203125 
L 54.25 8.203125 
z
M 0.78125 0 
L 28.609375 72.90625 
L 39.796875 72.90625 
L 67.578125 0 
z
" id="DejaVuSans-916"/>
     <path d="M 46 7 
L 46 0 
L 9.09375 0 
L 9.09375 61.90625 
L 17.296875 61.90625 
L 17.296875 7 
z
" id="UbuntuMono-Regular-76"/>
     <path d="M 32.40625 6.40625 
Q 32.40625 3.40625 30.40625 1.09375 
Q 28.40625 -1.203125 25.09375 -1.203125 
Q 21.703125 -1.203125 19.703125 1.09375 
Q 17.703125 3.40625 17.703125 6.40625 
Q 17.703125 9.5 19.703125 11.796875 
Q 21.703125 14.09375 25.09375 14.09375 
Q 28.40625 14.09375 30.40625 11.796875 
Q 32.40625 9.5 32.40625 6.40625 
z
M 32.40625 38.703125 
Q 32.40625 35.703125 30.40625 33.390625 
Q 28.40625 31.09375 25.09375 31.09375 
Q 21.703125 31.09375 19.703125 33.390625 
Q 17.703125 35.703125 17.703125 38.703125 
Q 17.703125 41.796875 19.703125 44.09375 
Q 21.703125 46.390625 25.09375 46.390625 
Q 28.40625 46.390625 30.40625 44.09375 
Q 32.40625 41.796875 32.40625 38.703125 
z
" id="UbuntuMono-Regular-58"/>
     <path d="M 18.59375 38 
Q 32 37.5 38.09375 32.09375 
Q 44.203125 26.703125 44.203125 17.59375 
Q 44.203125 13.5 42.890625 10 
Q 41.59375 6.5 38.84375 4 
Q 36.09375 1.5 31.84375 0.09375 
Q 27.59375 -1.296875 21.796875 -1.296875 
Q 19.40625 -1.296875 17.046875 -0.9375 
Q 14.703125 -0.59375 12.59375 -0.09375 
Q 10.5 0.40625 8.890625 0.953125 
Q 7.296875 1.5 6.59375 1.90625 
L 8.203125 9 
Q 9.796875 8.203125 13.140625 7.09375 
Q 16.5 6 21.59375 6 
Q 25.59375 6 28.296875 6.890625 
Q 31 7.796875 32.640625 9.34375 
Q 34.296875 10.90625 35.046875 12.90625 
Q 35.796875 14.90625 35.796875 17.09375 
Q 35.796875 20.5 34.640625 23.140625 
Q 33.5 25.796875 30.640625 27.59375 
Q 27.796875 29.40625 22.84375 30.34375 
Q 17.90625 31.296875 10.40625 31.296875 
Q 11 35.703125 11.34375 39.546875 
Q 11.703125 43.40625 11.953125 47.046875 
Q 12.203125 50.703125 12.34375 54.296875 
Q 12.5 57.90625 12.703125 61.90625 
L 42.5 61.90625 
L 42.5 54.90625 
L 19.90625 54.90625 
Q 19.796875 53.5 19.640625 51.25 
Q 19.5 49 19.296875 46.5 
Q 19.09375 44 18.890625 41.703125 
Q 18.703125 39.40625 18.59375 38 
z
" id="UbuntuMono-Regular-53"/>
     <path d="M 32.40625 6.40625 
Q 32.40625 3.40625 30.40625 1.09375 
Q 28.40625 -1.203125 25.09375 -1.203125 
Q 21.703125 -1.203125 19.703125 1.09375 
Q 17.703125 3.40625 17.703125 6.40625 
Q 17.703125 9.5 19.703125 11.796875 
Q 21.703125 14.09375 25.09375 14.09375 
Q 28.40625 14.09375 30.40625 11.796875 
Q 32.40625 9.5 32.40625 6.40625 
z
" id="UbuntuMono-Regular-46"/>
     <path d="M 3.59375 21.40625 
Q 5.296875 25.40625 8.25 30.59375 
Q 11.203125 35.796875 14.890625 41.34375 
Q 18.59375 46.90625 22.796875 52.25 
Q 27 57.59375 31.296875 61.90625 
L 39.296875 61.90625 
L 39.296875 22.59375 
L 46.59375 22.59375 
L 46.59375 15.796875 
L 39.296875 15.796875 
L 39.296875 0 
L 31.296875 0 
L 31.296875 15.796875 
L 3.59375 15.796875 
z
M 31.296875 52.09375 
Q 28.59375 49.203125 25.84375 45.703125 
Q 23.09375 42.203125 20.5 38.34375 
Q 17.90625 34.5 15.65625 30.5 
Q 13.40625 26.5 11.59375 22.59375 
L 31.296875 22.59375 
z
" id="UbuntuMono-Regular-52"/>
     <path d="M 4.09375 45.09375 
Q 10.09375 47.40625 15.40625 47.40625 
Q 18.296875 47.40625 20.84375 46.546875 
Q 23.40625 45.703125 25.203125 43.90625 
Q 29.5 47.40625 34.40625 47.40625 
Q 36.796875 47.40625 38.9375 46.5 
Q 41.09375 45.59375 42.75 43.796875 
Q 44.40625 42 45.40625 39.296875 
Q 46.40625 36.59375 46.40625 33 
L 46.40625 0 
L 38.90625 0 
L 38.90625 33.203125 
Q 38.90625 36.796875 37.296875 38.6875 
Q 35.703125 40.59375 33.296875 40.59375 
Q 32.09375 40.59375 30.796875 40 
Q 29.5 39.40625 28.40625 38.09375 
Q 29 35.796875 29 33 
L 29 17.90625 
L 21.5 17.90625 
L 21.5 33.09375 
Q 21.5 36.59375 20.390625 38.59375 
Q 19.296875 40.59375 16.09375 40.59375 
Q 14.09375 40.59375 11.59375 39.703125 
L 11.59375 0 
L 4.09375 0 
z
" id="UbuntuMono-Regular-109"/>
    </defs>
    <g transform="translate(110.16 468.8928)scale(0.16 -0.16)">
     <use transform="translate(0 0.09375)" xlink:href="#DejaVuSans-916"/>
     <use transform="translate(68.408203 0.09375)" xlink:href="#UbuntuMono-Regular-76"/>
     <use transform="translate(118.408188 0.09375)" xlink:href="#UbuntuMono-Regular-58"/>
     <use transform="translate(168.408173 0.09375)" xlink:href="#UbuntuMono-Regular-32"/>
     <use transform="translate(218.408157 0.09375)" xlink:href="#UbuntuMono-Regular-49"/>
     <use transform="translate(268.408142 0.09375)" xlink:href="#UbuntuMono-Regular-53"/>
     <use transform="translate(318.408127 0.09375)" xlink:href="#UbuntuMono-Regular-46"/>
     <use transform="translate(368.408112 0.09375)" xlink:href="#UbuntuMono-Regular-52"/>
     <use transform="translate(418.408096 0.09375)" xlink:href="#UbuntuMono-Regular-32"/>
     <use transform="translate(468.408081 0.09375)" xlink:href="#UbuntuMono-Regular-107"/>
     <use transform="translate(518.408066 0.09375)" xlink:href="#UbuntuMono-Regular-109"/>
    </g>
   </g>
  </g>
 </g>
 <defs>
  <clipPath id="pe00d7bb6f1">
   <rect height="557.28" width="567" x="64.8" y="45.36"/>
  </clipPath>
 </defs>
</svg>
